<svg xmlns="http://www.w3.org/2000/svg" viewBox="0 0 32 32"><path d="M30.9 5.3l-.6-.7c-.3-.4-.6-.8-1-1.2-.9-1-1.9-1.8-2.8-1.8L10 1.1h-.5L8.3 1C5.8.9 3.5 2.7 3.1 5L.5 20.4c0 .3-.1.5-.1.8l-.2.9c0 .3-.1.6 0 .9 0 .4.1.8.2 1.1.6 2.8 2.9 6.3 5.1 6.3l19.8.7c2.5.1 4-1.6 4.5-3.8v.1l.1-.7c0-.1 0-.3.1-.4l.8-8 .9-8.6.1-.5v-.7c.1-1.3-.5-2.7-.9-3.2z" fill="#2e2966"/><path d="M26.9 3.9L9.7 3.3c-2.5-.1-4.8 1.7-5.2 4L1.4 21.6c-.4 2.5 2.2 7.7 4.9 7.8l18.3.7c2.7.1 4.1-2 4.4-4.5L30.6 10c.2-2.3-1.2-6-3.7-6.1z" fill="#16666e"/><path d="M26 3.4L9.8 2.8c-2.4-.1-4.6 1.6-4.9 3.8L2.2 22.2c-.4 2.4 1.2 3.4 3.7 3.5l16.4 1.1c2.5.1 6-3.5 6.2-5.9l1.3-13.4c.3-2.1-1.5-4-3.8-4.1z" fill="#44baff"/><path d="M25.8 2.7l-15.3-.5C8.2 2.1 6 3.8 5.6 5.9L3.1 19.8c-.4 2.4 1.3 4.5 3.8 4.6l16.4.8c2.5.1 4.8-1.8 5-4.2l2.3-11.4c.3-2.2-2.4-6.9-4.8-6.9z" fill="#1d9fbf"/><path d="M24.6 3.5L8.8 2.9C6.5 2.9 4.4 4.5 4 6.6L1.4 21.7C1 24 2.6 26 5.1 26.1l16.9.8c2.4.1 4.6-1.7 4.8-4.1l1.5-15.3c.2-2.1-1.4-3.9-3.7-4z" fill="#23b4cc"/><path d="M24.7 2.7L8.9 2.1C6.6 2 4.5 3.7 4.1 5.8L1.7 20c-.4 2.3 1.2 4.3 3.7 4.4l16.9.8c2.4.1 4.6-1.7 4.8-4.1l1.4-14.4c.1-2.1-1.6-3.9-3.8-4z" fill="#1d9fbf"/><path d="M28.9 4.9L30 6c.3.4.9 1.7.7 2.9l-1.8 17.7-2-4 2-17.7z" fill="#1a8496"/><path d="M13.7 12.4L6 12c-.5 0-.8-.5-.7-.9l1.1-5.5c.1-.4.4-.6.8-.6l7.4.3c.5 0 .8.4.7.9l-.8 5.6c-.1.3-.4.6-.8.6z" fill="#fff"/><path d="M8.3 8.5l.5-2.9L13 8.8l-5.2 2.8z" fill="#16666e"/><path d="M12.3 22.1l-8.1-.5c-.5 0-.8-.5-.7-.9l1.2-6.2c.1-.4.4-.6.8-.6l7.8.4c.5 0 .8.4.7.9l-.9 6.3c-.1.3-.4.6-.8.6z" fill="#7bffdc"/><path d="M6.7 17.8l.5-3.3 4.4 3.6-2.7 1.5-2.8 1.5z" fill="#16666e"/><path d="M24.7 13l-8-.4c-.4 0-.8-.4-.7-.9l.8-5.7c.1-.4.4-.7.8-.6l7.7.3c.4 0 .8.4.7.8l-.5 5.7c0 .5-.4.8-.8.8z" fill="#83ffbb"/><path d="M19 9.1l.4-3 2.2 1.6 2.3 1.6-2.6 1.4-2.7 1.5z" fill="#16666e"/><path d="M23.9 22.8l-8.4-.5c-.4 0-.8-.4-.7-.9l.9-6.4c.1-.4.4-.7.8-.6l8.1.5c.4 0 .7.4.7.8l-.5 6.5c-.2.3-.5.6-.9.6z" fill="#fdff97"/><path d="M17.9 18.4l.4-3.3 2.3 1.8 2.4 1.8-2.8 1.6-2.7 1.5z" fill="#16666e"/></svg>