<svg xmlns="http://www.w3.org/2000/svg" viewBox="0 0 32 32"><path d="M14.5 8.9l-4.3-6.8-10 5.3L4.1 12z" fill="#714113"/><path d="M12.7 7.4l-2.6-3.8-8.8 3.6 2.8 4.4z" fill="#bb7c46"/><path d="M12.7 7.4l.9-4.5 17.5.7-1.5 4.9z" fill="#714113"/><path d="M13.5 8.1l.9-4.5 14.9.7-1.5 4.9z" fill="#bb7c46"/><g fill="#714113"><path d="M22.5 32.1L4.3 26.9l-.1-15.7 18.3 3z"/><path d="M22.5 32.1l6.8-8.1-.1-15.5-6.7 5.7z"/><path d="M29.6 8.5L12.7 7.4l-8.6 4.2 18.4 2.6z"/></g><path d="M23.3 11.9l-7.5-1.5c-1.2-.2-2-1.4-1.7-2.6l1.1-5.3c.2-1.2 1.4-2 2.6-1.7l7.5 1.5c1.2.2 2 1.4 1.7 2.6l-1 5.2c-.3 1.2-1.5 2-2.7 1.8z" fill="#7a0f0f"/><path d="M24.5 12L17 10.5c-1.2-.2-2-1.4-1.7-2.6l1.1-5.3c.2-1.2 1.4-2 2.6-1.7l7.5 1.5c1.2.2 2 1.4 1.7 2.6l-1.1 5.3c-.2 1.2-1.4 2-2.6 1.7z" fill="#e22222"/><path d="M23.9 12.1l-7.5-1.5c-1.2-.2-2-1.4-1.7-2.6l1.1-5.3c.2-1.2 1.4-2 2.6-1.7l7.5 1.5c1.2.2 2 1.4 1.7 2.6l-1.1 5.3c-.2 1.2-1.4 2-2.6 1.7z" fill="#e26546"/><path d="M19.9 2.5l-1.4 7 6.8-2z" fill="#7a0f0f"/><path d="M19.1 16.7l-6.3-4.4c-1-.7-1.3-2.1-.5-3.1l3.1-4.5c.7-1 2.1-1.3 3.1-.5l6.3 4.4c1 .7 1.3 2.1.5 3.1l-3.1 4.5c-.7.9-2.1 1.2-3.1.5z" fill="#0f1d7a"/><path d="M20.1 17.3l-6.3-4.4c-1-.7-1.3-2.1-.5-3.1l3.1-4.5c.7-1 2.1-1.3 3.1-.5l6.3 4.4c1 .7 1.3 2.1.5 3.1l-3.1 4.5c-.7.9-2 1.2-3.1.5z" fill="#2f44e2"/><path d="M19.5 17.1l-6.3-4.4c-1-.7-1.3-2.1-.5-3.1l3.1-4.5c.7-1 2.1-1.3 3.1-.5L25.2 9c1 .7 1.3 2.1.5 3.1l-3.1 4.5c-.7 1-2.1 1.2-3.1.5z" fill="#4658e2"/><path d="M19.7 6.7l-4 5.8 7 .9z" fill="#0f1d7a"/><g fill="#1e579b"><path d="M15.8 10.3L7 12.6c-1.2.3-2.4-.4-2.7-1.6L2.7 5.1c-.3-1.2.5-2.5 1.6-2.8L13.2 0c1.2-.3 2.4.4 2.7 1.6l1.5 5.9c.3 1.3-.4 2.5-1.6 2.8z"/><path d="M14.1 10.5l-7.4 1.9c-1.2.3-2.4-.4-2.7-1.6L2.6 5.5c-.3-1.2.4-2.4 1.6-2.7L11.6.9c1.2-.3 2.4.4 2.7 1.6l1.4 5.3c.3 1.2-.5 2.4-1.6 2.7z"/></g><path d="M15.2 10.1L7.8 12c-1.2.3-2.4-.4-2.7-1.6L3.7 5.1c-.3-1.2.4-2.4 1.6-2.7L12.7.5c1.2-.3 2.4.4 2.7 1.6l1.4 5.3c.3 1.2-.4 2.4-1.6 2.7z" fill="#a6caff"/><linearGradient id="A" gradientUnits="userSpaceOnUse" x1="3.151" y1="6.625" x2="16.3655" y2="6.625"><stop offset="0" stop-color="#4280e2"/><stop offset="1" stop-color="#4f96ff"/></linearGradient><path d="M14.7 10.5l-7.4 1.9c-1.2.3-2.4-.4-2.7-1.6L3.2 5.5c-.3-1.2.4-2.4 1.6-2.7L12.2.9c1.2-.3 2.4.4 2.7 1.6l1.4 5.3c.3 1.1-.4 2.4-1.6 2.7z" fill="url(#A)"/><path d="M6.9 3.6l1.8 6.8L14 5.7z" fill="#1e579b"/><path d="M22.1 13.2l-1.8-3.7L.1 7.3l4.3 5.6z" fill="#714113"/><linearGradient id="B" gradientUnits="userSpaceOnUse" x1="7.5827" y1="28.5141" x2="20.9883" y2="13.2685"><stop offset="0" stop-color="#ddc8ac"/><stop offset="1" stop-color="#dda866"/></linearGradient><path d="M21.9 30.8L5.4 26.2V12.4l16.5 2.4z" fill="url(#B)"/><path d="M21.9 30.8l6.4-6.9V9.6l-6.4 5.2z" fill="#bb7c46"/><path d="M28.3 9.6l-15.2-.9-7.7 3.7 16.5 2.4z" fill="#714113"/><path d="M9.4 16v9c0 .5.5.8.9.6l8.1-4.2c.4-.2.5-.9 0-1.1l-8.1-4.8c-.4-.3-.9 0-.9.5z" fill="#99633a"/><path d="M10.4 17.4v6.3c0 .5.5.8.9.6l5.6-2.9c.4-.2.5-.9 0-1.1l-5.6-3.4c-.4-.3-.9 0-.9.5z" fill="#bb7c46"/><path d="M21.2 14.1l3.3-7.3 7.4-3.4-2.5 5z" fill="#714113"/><g fill="#99633a"><path d="M21.9 14.8l-1.8-3.7L2.5 8.9l2.9 3.5z"/><path d="M21.9 14.8l3.2-7.3 5-2.4-1.8 4.5z"/></g><path d="M10.7 24.4l-.7 1.1 8.7-4.2-1.4-.2z" fill="#714113"/></svg>