<svg xmlns="http://www.w3.org/2000/svg" fill="none" viewBox="0.25 0 32 32">
<g clip-path="url(#clip0_1415_898)">
<path d="M19.0271 24.5146L22.5873 29.7024L24.7235 30.0075L24.3166 23.1922L19.0271 24.5146ZM26.6562 6.10319C26.6562 6.10319 27.6734 6.00147 28.2837 6.30663C28.6906 6.51007 29.8095 7.52728 30.4198 8.23932C30.8267 8.6462 30.9284 9.15481 30.9284 9.66341L30.3181 12.4099L26.6562 6.10319ZM8.14302 18.92L7.32926 19.3269L6.92237 21.7682C6.92237 21.7682 6.82065 22.4802 7.43098 23.1922C7.73614 23.5991 8.24474 24.2095 8.65162 24.6163C8.95678 25.0232 9.46539 25.2267 9.97399 25.2267H11.7032L12.1101 21.6664L8.14302 18.92Z" fill="#158427"/>
<path d="M10.8888 18.5132L7.63379 21.5648L9.76992 24.7181L14.6525 23.8027L10.8888 18.5132Z" fill="#158427"/>
<path d="M28.8944 9.35782L13.8397 11.1888C12.9243 11.2905 12.0088 12.206 11.8053 13.1215L9.56748 23.497C9.36404 24.5142 9.87264 25.3279 10.7881 25.3279H21.3671L24.6221 30.0071L25.5376 25.4297H25.6393C26.86 25.4297 27.9789 24.5142 28.1823 23.2935L30.6236 11.1888C30.8271 9.96814 30.0133 9.15437 28.8944 9.35782Z" fill="#158427"/>
<path d="M26.4535 6.10307L11.5005 7.93404C10.5851 8.03576 9.66957 8.95124 9.46613 9.86673L7.12656 20.2422C6.92312 21.2594 7.43172 22.0732 8.34721 22.0732H18.9261L22.1812 26.7523L23.0967 22.1749H23.1984C24.4191 22.1749 25.538 21.2594 25.7414 20.0388L28.081 7.93404C28.3862 6.81511 27.5724 6.00135 26.4535 6.10307Z" fill="#158427"/>
<path d="M27.1647 6.91703L12.2118 8.748C11.2963 8.84972 10.3808 9.76521 10.1774 10.6807L7.93955 21.0562C7.73611 22.0734 8.24471 22.8872 9.16019 22.8872H19.7391L22.9942 27.5663L23.9097 22.9889H24.0114C25.232 22.9889 26.351 22.0734 26.5544 20.8527L28.894 8.748C29.1991 7.62908 28.3854 6.81531 27.1647 6.91703Z" fill="#78ED74"/>
<path d="M14.7554 15.8682C14.5519 16.682 13.8399 17.2923 13.2296 17.2923C12.5175 17.2923 12.1106 16.7837 12.3141 15.9699C12.5175 15.2579 13.1279 14.5458 13.8399 14.5458C14.4502 14.5458 14.8571 15.1561 14.7554 15.8682ZM19.2311 15.6647C19.0276 16.4785 18.3156 17.1906 17.5018 17.1906C16.7898 17.1906 16.2812 16.5802 16.4846 15.8682C16.6881 15.0544 17.4001 14.4441 18.1122 14.3424C18.9259 14.2407 19.3328 14.851 19.2311 15.6647ZM24.1137 15.3596C23.9102 16.1734 23.0965 16.8854 22.2827 16.9871C21.4689 16.9871 20.9603 16.3768 21.1638 15.563C21.3672 14.7493 22.0793 14.0372 22.893 13.9355C23.7068 13.8338 24.2154 14.5458 24.1137 15.3596Z" fill="#73D7EF"/>
<path d="M14.3484 15.4612C14.145 16.2749 13.4329 16.8853 12.8226 16.8853C12.1105 16.8853 11.7037 16.3767 11.9071 15.5629C12.1105 14.8508 12.7209 14.1388 13.4329 14.1388C14.0432 14.1388 14.5518 14.6474 14.3484 15.4612ZM18.8241 15.156C18.6207 15.9698 17.9086 16.6818 17.0949 16.6818C16.3828 16.6818 15.8742 16.0715 16.0777 15.3594C16.2811 14.5457 16.9931 13.9354 17.7052 13.8336C18.5189 13.7319 19.0275 14.3422 18.8241 15.156ZM23.7067 14.8508C23.5033 15.6646 22.6895 16.3767 21.8757 16.4784C21.062 16.4784 20.5534 15.8681 20.7568 15.0543C20.9602 14.2405 21.6723 13.5285 22.486 13.4268C23.2998 13.4268 23.9101 14.0371 23.7067 14.8508ZM11.5002 20.0386L2.9557 26.8539H2.24365L3.76946 24.0057L10.0761 18.8179L11.5002 20.0386Z" fill="#0F5B70"/>
<path d="M13.9413 20.6489L19.6376 19.3265L13.9413 20.6489ZM22.1806 0.813394C22.1806 0.813394 23.2996 0.711674 23.9099 1.01684C24.3168 1.22028 25.5374 2.3392 26.2495 3.15297C26.6563 3.55985 26.8598 4.17017 26.7581 4.7805L26.2495 7.73039L22.1806 0.813394ZM2.24341 14.7491L1.42964 15.156L0.921039 17.8007C0.921039 17.8007 0.819318 18.5128 1.53136 19.4283C1.83652 19.7334 2.34513 20.3437 2.75201 20.8523C3.15889 21.2592 3.66749 21.5644 4.1761 21.5644H6.00707L6.41395 17.699L2.24341 14.7491Z" fill="#0F5B70"/>
<path d="M5.19434 14.241L1.73584 17.496L4.07541 20.9545L9.26316 19.9373L5.19434 14.241Z" fill="#0F5B70"/>
<path d="M24.6214 4.374L8.4478 6.40842C7.4306 6.51014 6.51511 7.52734 6.31167 8.54455L3.87038 19.7338C3.66694 20.8527 4.17554 21.6665 5.19275 21.7682H21.1629C22.3835 21.7682 23.7059 20.751 23.9093 19.4286L26.4523 6.40842C26.6558 5.08605 25.842 4.17056 24.6214 4.374Z" fill="#0F5B70"/>
<path d="M21.9768 0.91486L5.80327 2.94927C4.88779 2.94927 3.87058 3.96648 3.66714 4.98368L1.22585 16.1729C1.02241 17.2919 1.53101 18.1056 2.54821 18.2074H18.5183C19.739 18.2074 21.0614 17.1902 21.2648 15.8678L23.8078 2.84755C24.113 1.6269 23.1975 0.711419 21.9768 0.91486Z" fill="#0F5B70"/>
<path d="M22.7908 1.72925L6.61724 3.76366C5.60003 3.86538 4.68455 4.88259 4.48111 5.89979L2.03981 17.0891C1.83637 18.208 2.34497 19.0217 3.36218 19.1235H19.3323C20.553 19.1235 21.8753 18.1063 22.0788 16.7839L24.6218 3.76366C24.9269 2.44129 24.1132 1.62753 22.7908 1.72925Z" fill="#73D7EF"/>
<path d="M21.8754 2.64466L7.22761 4.37391C6.31212 4.47563 5.49836 5.39112 5.29492 6.3066L3.05707 16.3769C2.85363 17.3941 3.36223 18.2079 4.17599 18.2079H18.722C19.841 18.2079 20.9599 17.2924 21.265 16.0718L23.6046 4.27219C23.8081 3.25499 22.9943 2.44122 21.8754 2.64466Z" fill="#E9F9FF"/>
<path d="M4.58232 18.2078L3.76855 24.0058L10.889 18.2078H4.58232Z" fill="#73D7EF"/>
<path d="M5.39676 17.3945L4.27783 22.684L10.6862 17.3945H5.39676Z" fill="#E9F9FF"/>
<path d="M3.66774 19.3266L2.24365 26.854L3.66774 25.735L4.4815 19.0215L3.66774 19.3266Z" fill="#0F5B70"/>
<path d="M17.6888 15.8967L17.1532 15.3319L17.9778 8.86411L19.8981 7.88081L20.4423 8.40866L20.1646 15.6343L17.6888 15.8967ZM19.2716 8.18349C18.9298 8.16943 18.6414 8.04445 18.4065 7.80854C18.1716 7.57263 18.0606 7.29595 18.0737 6.9785C18.0867 6.66106 18.22 6.39442 18.4735 6.17858C18.7269 5.96274 19.0246 5.86185 19.3665 5.8759C19.7114 5.89008 19.9998 6.01506 20.2316 6.25085C20.4665 6.48676 20.5775 6.76344 20.5644 7.08089C20.5514 7.39833 20.4181 7.66497 20.1646 7.88081C19.9142 8.09677 19.6165 8.19767 19.2716 8.18349Z" fill="#73D7EF"/>
<path d="M17.1475 15.3438L17.4366 8.31115L19.901 7.8557L19.6234 15.0813L17.1475 15.3438ZM18.7303 7.63053C18.3885 7.61647 18.1001 7.49149 17.8652 7.25558C17.6303 7.01967 17.5194 6.74299 17.5324 6.42554C17.5455 6.1081 17.6787 5.84145 17.9322 5.62562C18.1857 5.40978 18.4833 5.30889 18.8252 5.32294C19.1701 5.33712 19.4585 5.4621 19.6904 5.69789C19.9253 5.9338 20.0362 6.21048 20.0231 6.52793C20.0101 6.84537 19.8768 7.11201 19.6234 7.32785C19.3729 7.54381 19.0753 7.6447 18.7303 7.63053Z" fill="#0F5B70"/>
<path d="M9.04219 16.2381L5.99629 16.426L4.90949 16.0857L9.84578 5.97984L12.55 5.80579L13.6584 6.13656L16.4809 15.7235L13.4848 15.9115L12.3908 15.5721L11.6759 8.8892L11.5956 8.8859L9.04219 16.2381ZM8.64696 12.1616L14.2998 11.7556L14.2141 13.8425L8.56117 14.2485L8.64696 12.1616Z" fill="#73D7EF"/>
<path d="M7.94667 15.9047L4.90076 16.0927L8.75025 5.64645L12.5629 5.80317L15.3853 15.3901L12.3892 15.5781L10.5804 8.55582L10.5001 8.55252L7.94667 15.9047ZM7.55143 11.8282L13.2043 11.4222L13.1185 13.5091L7.46564 13.9151L7.55143 11.8282Z" fill="#0F5B70"/>
</g>
<defs>
<clipPath id="clip0_1415_898">
<rect width="32" height="32" fill="white" transform="translate(0.25)"/>
</clipPath>
</defs>
</svg>