<?xml version="1.0" encoding="utf-8"?>
<!-- Generator: Adobe Illustrator 26.1.0, SVG Export Plug-In . SVG Version: 6.00 Build 0)  -->
<svg version="1.1" id="Layer_1" xmlns="http://www.w3.org/2000/svg" xmlns:xlink="http://www.w3.org/1999/xlink" x="0px" y="0px"
	 viewBox="0 0 17.6 18.5" style="enable-background:new 0 0 17.6 18.5;" xml:space="preserve">
<style type="text/css">
	.st0{fill:url(#SVGID_1_);}
	.st1{fill:url(#SVGID_00000171685492447674858060000011220058092001678738_);}
	.st2{fill:url(#SVGID_00000137112703492160335110000002665307664984185240_);}
	.st3{fill:url(#SVGID_00000017481920100043579820000015371661614184334502_);}
</style>
<linearGradient id="SVGID_1_" gradientUnits="userSpaceOnUse" x1="-2.6296" y1="8.7317" x2="9.6001" y2="12.7881" gradientTransform="matrix(-1 0 0 1 17.5479 0)">
	<stop  offset="8.501456e-02" style="stop-color:#175B73"/>
	<stop  offset="0.2324" style="stop-color:#84C3D9"/>
	<stop  offset="1" style="stop-color:#175B73"/>
</linearGradient>
<path class="st0" d="M4.5,16.3l2.6,0L9,14.8l2.4-0.8l2.5-1.1l0.6-2.8l0.2-1.7l1.2-3l-0.2-1.3l0.6,0.7L17.3,9l0,0
	c0,0.1,0.1,0.3,0.1,0.4c0,0.1,0,0.1,0,0.2c0,0.1,0,0.1,0,0.2c0,0.2,0,0.3-0.1,0.5c-0.1,0.6-0.4,1.2-0.8,1.7c-0.1,0.1-0.1,0.1,0,0.2
	c0.4,1.4-0.1,2.6-1,3.6c-0.6,0.6-1.3,1.1-2.2,1.2c-0.4,0.1-0.8,0.1-1.2,0c-0.1,0-0.1,0-0.2,0.1c-0.5,0.5-1.1,0.9-1.8,1.1
	c-0.8,0.2-1.5,0.1-2.2-0.2l0,0l-3.3-1.5L4.5,16.3C4.5,16.3,4.5,16.3,4.5,16.3z"/>
<g id="Layer_4">
</g>
<g>
	
		<linearGradient id="SVGID_00000146485293015963689210000002628620981452087184_" gradientUnits="userSpaceOnUse" x1="1.6049" y1="11.1677" x2="2.8969" y2="11.6625" gradientTransform="matrix(-1 0 0 1 17.5479 0)">
		<stop  offset="5.583896e-04" style="stop-color:#FFFFFF"/>
		<stop  offset="1" style="stop-color:#175B73;stop-opacity:0"/>
	</linearGradient>
	<polygon style="fill:url(#SVGID_00000146485293015963689210000002628620981452087184_);" points="15.2,8.7 16.4,12 16.5,12.4 
		16.5,12.8 16.5,13.3 16.5,13.7 15.2,11.2 	"/>
	
		<linearGradient id="SVGID_00000103963482316510421260000010028844651337750411_" gradientUnits="userSpaceOnUse" x1="4.9771" y1="6.8067" x2="27.3581" y2="15.3773" gradientTransform="matrix(-1 0 0 1 17.5479 0)">
		<stop  offset="0.2137" style="stop-color:#43B2D9"/>
		<stop  offset="1" style="stop-color:#175B73"/>
	</linearGradient>
	<path style="fill:url(#SVGID_00000103963482316510421260000010028844651337750411_);" d="M0.9,9.9l0-1.2L1.4,8
		c0.2-0.3,0.5-0.8,0.5-0.8l0.3-1.1l0.1-0.7L2.8,4L4.3,3l1.2-0.5l0.2-0.1L6,2.4l0.9-0.3c0,0,1-0.5,1-0.6c0,0,0.3-0.2,0.7-0.3L9,1
		l0.2,0c0.3-0.1,0.5-0.2,0.5-0.2L11.9,1l0.3,1l0.3,0.2L13,2.6l1.5,0.6l0.2,0.3l0.6,0.2l0.5,0.5L16,5.6l-1,2.1c0,0-0.5,1.3-0.4,1.4
		s0.1,1.5,0.1,1.5l-0.4,2.1L12,14.2l-2.4,0.4l-2,1l-2.3,0.5c0,0-0.4,0-0.9,0.1l-0.3-0.6l-0.4-0.4l-0.8-1.7l-0.8-0.6l0,0l-0.1,0
		l-0.2-0.3L1,11.8l0-0.5l-0.3-0.4C0.7,10.9,0.8,10.4,0.9,9.9z"/>
</g>
<g id="Layer_3">
</g>
<g>
	
		<linearGradient id="SVGID_00000088828462078876993020000009820811595017369526_" gradientUnits="userSpaceOnUse" x1="8.7372" y1="9.0205" x2="22.2063" y2="0.9324" gradientTransform="matrix(-1 0 0 1 17.5479 0)">
		<stop  offset="8.501456e-02" style="stop-color:#175B73"/>
		<stop  offset="0.9154" style="stop-color:#84C3D9"/>
		<stop  offset="1" style="stop-color:#175B73"/>
	</linearGradient>
	<path style="fill:url(#SVGID_00000088828462078876993020000009820811595017369526_);" d="M16.4,6.4c-0.2,0.8-0.5,1.5-1,2.1
		c-0.1,0.1-0.1,0.2-0.1,0.3c0.5,1.8-0.1,3.3-1.3,4.6c-0.7,0.8-1.7,1.4-2.8,1.6c-0.5,0.1-1,0.1-1.5,0c-0.1,0-0.2,0-0.3,0.1
		c-0.7,0.7-1.4,1.2-2.4,1.4c-1.4,0.4-2.9,0-3.8-1.2c-0.3-0.4-0.6-1-0.7-1.5c0-0.2-0.1-0.2-0.3-0.3c-1.2-0.4-1.9-1.2-2.1-2.4
		C0.1,9.9,0.5,8.7,1.3,7.6c0.2-0.3,0.3-0.5,0.3-0.8c0-0.9,0.3-1.8,0.8-2.5c0.7-1,1.6-1.7,2.8-2.1C5.6,2.1,5.9,2.1,6.3,2
		c0.1,0,0.2,0,0.3-0.1c0.8-0.8,1.7-1.3,2.8-1.5c0.9-0.1,1.7,0,2.5,0.5c0.5,0.3,0.8,0.7,1,1.2C13,2.2,13,2.2,13.2,2.2
		c1.3,0.1,2.3,0.7,2.9,1.8c0.2,0.4,0.3,0.8,0.4,1.3c0,0.1,0,0.1,0,0.2c0,0.1,0,0.2,0,0.3C16.4,6,16.4,6.2,16.4,6.4z M13.2,10.2
		c-0.9,0.6-1.9,1.2-2.8,1.8c-0.2,0.2-0.5,0.2-0.7,0c-1.2-0.7-2.3-1.3-3.5-1.9c0,0-0.1,0-0.2-0.1c0,0.1,0,0.1,0,0.2
		c0,0.4-0.1,0.8-0.1,1.2c0,0.1,0,0.2,0.1,0.3c1,0.6,2,1.2,3.1,1.8c0.9,0.5,1.9,0.5,2.9,0c1.2-0.6,2-1.5,2.3-2.9c0.1-0.3,0-0.6,0.1-1
		c0,0,0,0-0.1,0C13.8,9.9,13.5,10,13.2,10.2z M9.5,10.9c0.1,0,0.1,0.1,0.2,0.1c0.1,0.1,0.2,0,0.2,0c1.2-0.8,2.5-1.5,3.7-2.4
		C14.5,8,15.1,7.1,15.2,6c0.1-1.2-0.7-2.4-1.9-2.6c-0.1,0-0.1,0-0.1,0.1c0,0.8-0.1,1.6-0.1,2.4c0,0.3,0,0.7,0,1
		c0,0.3-0.1,0.5-0.4,0.7c-1.4,0.9-2.7,1.7-4.1,2.6c0,0-0.1,0.1-0.2,0.1C8.8,10.5,9.1,10.7,9.5,10.9z M5.3,7.8C4.9,8,4.6,8.2,4.3,8.4
		C4.2,8.5,4.1,8.6,4.1,8.7c-0.2,1.2-0.3,2.4-0.5,3.6c-0.1,0.9,0,1.8,0.7,2.5c0.6,0.7,1.4,0.9,2.3,0.7c0.6-0.1,1.1-0.3,1.5-0.7
		c0,0,0.1-0.1,0.2-0.1c-0.2-0.1-0.5-0.3-0.7-0.4c-0.8-0.5-1.5-1-2.3-1.4C5,12.6,4.9,12.4,4.9,12c0.2-1.3,0.3-2.6,0.5-4
		c0-0.1,0-0.2,0-0.4C5.4,7.7,5.3,7.8,5.3,7.8z M7.9,2.4c0.8,0.3,1.6,0.6,2.4,1c0.3,0.1,0.4,0.2,0.3,0.5c-0.1,0.9-0.1,1.8-0.2,2.6
		c0,0.5-0.1,1.1-0.1,1.7c0.1,0,0.1-0.1,0.2-0.1c0.4-0.2,0.8-0.5,1.2-0.7c0.1-0.1,0.1-0.1,0.1-0.3C11.9,5.9,12,4.7,12,3.5
		c0.1-1.1-0.7-2-1.8-2.2c-1-0.2-1.9,0.2-2.7,0.8c0,0,0,0,0,0.1C7.6,2.3,7.8,2.3,7.9,2.4z M6.2,5.1c-0.1,0-0.1,0-0.2,0
		C5.2,5.7,4.4,6.3,3.6,6.8c-0.5,0.3-1,0.6-1.3,1c-0.6,0.7-1,1.5-1,2.5c0,0.9,0.3,1.6,1.2,2.1c0.1,0.1,0.2,0.1,0.2-0.1
		c0.2-1.2,0.4-2.3,0.5-3.5c0-0.3,0.2-0.5,0.4-0.6c1.2-0.8,2.5-1.6,3.7-2.4c0,0,0.1-0.1,0.1-0.1C6.9,5.5,6.6,5.3,6.2,5.1z M9.7,5.7
		c0-0.4,0.1-0.8,0.1-1.1c0-0.1,0-0.2-0.1-0.2C8.8,3.9,7.8,3.5,6.9,3.1C6,2.8,5.2,3,4.4,3.4C3.6,3.9,3,4.6,2.7,5.6
		C2.6,5.8,2.6,6.1,2.5,6.4c0,0,0,0,0,0c0,0,0.1,0,0.1,0c1-0.6,1.9-1.3,2.9-1.9c0.3-0.2,0.5-0.2,0.8-0.1c1,0.5,2.1,0.9,3.1,1.4
		c0.1,0,0.1,0,0.2,0.1C9.7,5.8,9.7,5.7,9.7,5.7z M6.1,9.1c0.5,0.3,0.9,0.5,1.4,0.8c0,0,0.1,0,0.2,0c0.6-0.3,1.1-0.7,1.7-1.1
		c0.1,0,0.1-0.1,0.1-0.2C9.6,8,9.6,7.4,9.7,6.9c0-0.1,0-0.2-0.1-0.2C9.1,6.5,8.6,6.2,8.1,6C8.1,6,8,6,7.9,6.1c-0.5,0.3-1,0.7-1.5,1
		c-0.1,0-0.1,0.1-0.1,0.2C6.2,7.8,6.1,8.4,6,9C6.1,9,6.1,9.1,6.1,9.1z"/>
</g>
</svg>
