<svg xmlns="http://www.w3.org/2000/svg" xmlns:xlink="http://www.w3.org/1999/xlink" viewBox="0 0 32 32"><path d="M21.7 1.6l9.8 7.5c.6.4.7 1.2.2 1.8L17.9 30.3c-.2.3-.6.5-.9.5l-4.7.4c-.3 0-.6-.1-.9-.2L.5 21.8c-.6-.4-.7-1.3-.2-1.8L14.9 1.8c.2-.3.6-.5 1-.5h5c.3 0 .6.1.8.3z" fill="#3a3259"/><path d="M15.9 2.1l4.8.4c.3 0 .6.1.9.3l9.6 7.3-4.5 1.2-10.8-9.2z" fill="#b4b2c1"/><path d="M12.7 29.2l4.4-.3 14-18.7h-3.9z" fill="#93909e"/><g fill="#645f75"><path d="M5 24L20 5l-4.1-2.9L.9 21z"/><path d="M5.6 23.5L20 5l-3-2L2.8 21.4z"/><path d="M13.3 28.9l13.9-18.4c.3-.4.2-1-.3-1.3l-7.7-5.1-15 19.3 7.6 5.7c.5.3 1.1.3 1.5-.2z"/></g><path d="M15.6 9.1l2.5-3.2c1.1.1 2.3.5 3.5 1.3 1.4.9 2.3 2.1 2.7 3.2l-2.3 3-6.4-4.3zm-10 12.8l2.6-3.3 6.3 4.5-2.4 3.1c-1.3.1-2.8-.4-4.1-1.5-1.2-.8-2-1.8-2.4-2.8z" fill="#9991b8"/><path d="M15 10l.8-1.1c1.2-1.5 3.5-1.8 5.2-.7h0c1.7 1.1 2.2 3.3 1 4.8l-.8 1.1L15 10z" fill="#292526"/><path d="M16.9 10.3c.6-.8 1.8-.9 2.6-.3h0c.9.6 1.1 1.7.5 2.5l-.6.8-3.1-2.1.6-.9z" fill="#fff"/><path d="M9.1 18.5l-.7.9c-1 1.3-.7 3.2.7 4.3h0c1.4 1 3.4.8 4.5-.5l.7-1-5.2-3.7z" fill="#292526"/><path d="M9.6 20.2c-.6.7-.4 1.7.4 2.3h0c.8.6 1.8.4 2.4-.3l.5-.7-2.8-2-.5.7z" fill="#fff"/><path d="M14.6 23.7l7.7-10.2-6.9-4.7-7.8 9.9z" fill="#645f75"/><path d="M10.2 18.8c-.6-.5-.8-1.3-.3-1.9l4.6-5.9c.4-.6 1.3-.7 2-.3l.5.3-6.2 8.1-.6-.3z" fill="#f1493c"/><path d="M16.9 11.1l2.4 1.7c.6.4.8 1.3.4 1.9l-4.6 6c-.5.6-1.4.7-2 .2l-2.4-1.7 6.2-8.1z" fill="#fff"/><g fill="#9a4c18"><path d="M18.7 29.2l-.3.5 1.5 1 8.8-8.7-1.4-1.8z"/><path d="M28.9 24.5c-.3 3.5-3.5 6.4-7.1 6.4s-5.8-3-5.1-6.4c.6-3.2 3.7-5.7 6.9-5.7 3.1-.1 5.6 2.4 5.3 5.7z"/><path d="M29.8 25.6c-.3 3.3-3.4 6.1-6.9 6.1s-5.7-2.8-5-6.1c.6-3 3.6-5.4 6.7-5.4 3.1-.1 5.5 2.2 5.2 5.4z"/></g><g fill="#f49937"><path d="M19.7 29.5l1.5.8 7.2-7.6-1.2-1.6z"/><path d="M29.1 25.6c-.3 2.8-2.9 5.2-5.8 5.2s-4.8-2.4-4.2-5.2c.5-2.6 3-4.7 5.6-4.7 2.7-.1 4.6 2 4.4 4.7z"/></g><path d="M28.1 24.4c-.3 3-3.1 5.6-6.2 5.6s-5.1-2.6-4.5-5.5c.5-2.8 3.2-5 6-5 2.9-.1 5 2.1 4.7 4.9z" fill="#ffedc0"/><path d="M27.7 24.7c-.3 2.8-2.9 5.2-5.8 5.2s-4.8-2.4-4.2-5.2c.5-2.6 3-4.7 5.6-4.7 2.7-.1 4.7 2 4.4 4.7z" fill="#ffd766"/><path d="M26.6 24.7c-.2 2.2-2.3 4-4.5 4s-3.7-1.8-3.3-4c.4-2.1 2.3-3.7 4.4-3.7 2.1-.1 3.6 1.6 3.4 3.7z" fill="#ffedc0"/><path d="M26.7 24.1c-.2 2.2-2.2 4-4.5 4-2.2 0-3.7-1.8-3.3-3.9.4-2 2.3-3.7 4.4-3.7 2.1-.1 3.6 1.5 3.4 3.6z" fill="#f49937"/><path d="M26 24.7c-.2 1.8-1.9 3.4-3.8 3.4s-3.1-1.5-2.8-3.3c.3-1.7 2-3.1 3.7-3.2 1.8-.1 3.1 1.3 2.9 3.1z" fill="#ffd766"/><path d="M23.6 21.2l.5 2 2.2.5-2 1.4-.1 2.3-1.8-1.3-2.4.8 1-2.2-1.1-1.7h2.2z" fill="#f49937"/><defs><path id="A" d="M28.1 24.4c-.3 3-3.1 5.6-6.2 5.6s-5.1-2.6-4.5-5.5c.5-2.8 3.2-5 6-5 2.9-.1 5 2.1 4.7 4.9z"/></defs><clipPath ><use xlink:href="#A"/></clipPath></svg>