<svg xmlns="http://www.w3.org/2000/svg" viewBox="0 0 32 32"><circle cx="23.3" cy="4.5" r="4.5" fill="#6a8189"/><circle cx="22.6" cy="4.7" r="4.2" fill="#425763"/><path d="M25.2 4.4s4.9 5.9 1.5 13.6L23.9 7.3l1.5-1.6" fill="#6a8189"/><path d="M22.3 19.8c2 .7 3.8 2.3 4.4 4.6.6 2.4-.2 5.2-2.1 6.6-1.2.9-2.6 1.1-4.1 1.1-3.4 0-6.7-1.1-10.1-2.3-1.1-.4-2.3-.8-3.2-1.5-1-.7-1.8-1.8-2-3.2-.2-1.8.9-3.7 2.3-4.6 2.5-1.6 5-2.2 7.6-2.2 2.4 0 5.1.8 7.2 1.5z" fill="#b74f88"/><path d="M22 18.3c1.9.7 3.6 2.3 4.2 4.6.6 2.4-.2 5.2-1.9 6.6-1.1.9-2.5 1.1-3.8 1.1-3.2 0-6.3-1.1-9.5-2.3-1.1-.4-2.1-.8-3.1-1.5S6.1 25 6 23.6c-.2-1.8.8-3.6 2.2-4.6 2.3-1.6 4.7-2.2 7.2-2.2 2 0 4.6.8 6.6 1.5z" fill="#f29ede"/><path d="M20.7 19.4s-5.4 2.2-9.2 8.4c0 0-1.4-5.3-.6-9.2 0 0 5.4 2.4 9.8.8z" fill="#b74f88"/><path d="M18.7 19.4s-4 1.6-6.9 6.3c0 0-1-4-.4-6.9 0 0 4.1 1.8 7.3.6z" fill="#faeacf"/><path d="M8.6 18.8s1.6 3.9 3.4 4.3 5.2 1 9.4-3.1L8.6 18.8z" opacity=".6" fill="#b74f88"/><ellipse transform="matrix(.3085 -.9512000000000002 .9512000000000002 .3085 -9.960799999999999 37.491)" cx="20.8" cy="25.6" rx="3.9" ry="2.7" opacity=".28" fill="#fff"/><path d="M9.1 17.1s-.1.2-.3.5c-1 1-2.8.6-3.2-.8-.8-2.9-1.7-8.9 3.8-13.5l-.3 13.8z" fill="#425763"/><g fill="#6a8189"><path d="M8.1 4.7s.6 2.4 3.8 2.6 14.3-1.5 14.3-1.5S23.4.3 16.5 0c-5.2-.2-8 3.9-8.4 4.7z"/><path d="M21.7 5.3l1.1 4.8s-6.1 2.1-15.6-2.3c0 0 0-3.2 3-5.3s11.5 2.8 11.5 2.8z"/></g><circle transform="matrix(.003623492 -1 1 .003623492 3.7504 27.9183)" cx="15.9" cy="12.1" r="9.8" fill="#a67a65"/><circle transform="matrix(.003623492 -1 1 .003623492 4.323 27.0769)" cx="15.7" cy="11.4" r="9.5" fill="#e5a98c"/><ellipse transform="matrix(.003623492 -1 1 .003623492 5.1052 27.3323)" cx="16.3" cy="11.1" rx="9.1" ry="8.9" fill="#e8ccaa"/><ellipse transform="matrix(.003623492 -1 1 .003623492 1.417 26.1402)" cx="13.8" cy="12.4" rx="6.7" ry="6.5" fill="#faeacf"/><g fill="#425763"><path d="M8.2 4.6s.6 2.2 3.6 2.5 13.6-1.4 13.6-1.4S22.7.5 16.3.2c-5-.3-7.7 3.7-8.1 4.4z"/><ellipse transform="matrix(.003623492 -1 1 .003623492 2.8591000000000006 29.0453)" cx="16" cy="13.1" rx="1" ry=".9"/></g><ellipse transform="matrix(.003623492 -1 1 .003623492 3.3617 28.8165)" cx="16.1" cy="12.7" rx=".3" ry=".2" fill="#fff"/><ellipse transform="matrix(.003623492 -1 1 .003623492 -2.5901 20.4927)" cx="9" cy="11.5" rx="1" ry=".9" fill="#425763"/><ellipse transform="matrix(.003623492 -1 1 .003623492 -2.0876 20.2639)" cx="9.1" cy="11.2" rx=".3" ry=".2" fill="#fff"/><path d="M22.2 12.8s.8-.6 1.4-.4.5 2.3-1.1 2.5l-.3-2.1z" fill="#faeacf"/><g fill="#425763"><path d="M19.2 5.9s2.2 3.9 1.8 10.2c-.2 3 3.5 4.5 5.5 2.2l.1-.1c1.6-1.9.4-7.2-.6-10.7-.6-2.1-2.6-2.9-4.7-2.3l-2.1.7z"/><path d="M21.1 5.1l1.1 4.6S15.9 12 6.9 7.8c0 0 .5-3.3 3.3-5.3s10.9 2.6 10.9 2.6z"/></g><path d="M7.7 7s.8-1.1 1.8-1.1 5.2 2.8 11.8 1.9c0 0-1.3 1.3-2.8 1.5-1.6.1-7.3-.4-10.8-2.3z" fill="#6a8189"/><path d="M14.1 17.5s-.9-.1-1.5-.6-1.2-.4-1.4-.4c-.1 0-.3-.2-.5-.3s-.5-.1-.5 0 .3.6.3.6.1.4 0 .6 0 .9.7 1c.7.2 1.2.1 1.5-.1.1-.1 1.4-.8 1.4-.8z" fill="#a67a65"/><path d="M27.4 9.2s-5.3-3.9-12.3-4.5-7.8 1-7.8 1l2.3-3.1s8.5 0 12.6 1.8S27 7.3 27 7.3l.4 1.9z" fill="#f29ede"/><path d="M9.2 4.2l1.1-1.1s6.1-.5 10.4 1.8c0 .1-6.7-1.3-11.5-.7z" opacity=".28" fill="#fff"/></svg>