<svg xmlns="http://www.w3.org/2000/svg" viewBox="0 0 32 32"><path d="M8.1 2.6c-.5.3-.9 1.1-.5 1.6-.6-.3-1.5.1-1.6.8-.1.4 0 .8-.2 1.1-.1.2-.3.2-.4.4-.2.2-.3.6-.2.9s.4.5.7.6c-.5 0-.9.4-1 .8-.1.5.1 1 .5 1.2-.4.2-.7.5-.7 1s.2.8.5 1.1c-.2.3-.1.8.1 1.1.2.4.5.6.8.9.4.3.7.7 1.2.9.4.2 1 .4 1.4.2.6-.2 1.1-.8 1.4-1.3.8-1.1 1.5-2.3 1.9-3.6.5-1.3.7-2.6.6-4-.1-.6-.2-1.2-.6-1.7-.3-.4-.7-.8-1-1.2-.4-.4-.7-.9-1.3-1-.4 0-1.1 0-1.6.2z" fill="#4a3531"/><path d="M22.3 19.9c2 .6 3.8 2.3 4.4 4.6.6 2.4-.2 5.2-2 6.5-1.2.9-2.6 1.1-4 1.1-3.3 0-6.7-1.1-10-2.2-1.1-.4-2.2-.8-3.2-1.5s-1.8-1.8-2-3.1c-.2-1.8.9-3.6 2.3-4.5 2.4-1.6 5-2.2 7.5-2.2 2.2-.2 4.9.6 7 1.3z" fill="#305472"/><path d="M22 18.4c1.8.6 3.6 2.3 4.1 4.6.6 2.4-.2 5.2-1.9 6.5-1.1.9-2.5 1.1-3.8 1.1-3.1 0-6.3-1.1-9.4-2.2-1-.4-2.1-.8-3-1.5-1-.8-1.8-1.9-1.9-3.2-.2-1.8.8-3.6 2.2-4.5 2.3-1.6 4.7-2.2 7.1-2.2 2 0 4.6.7 6.6 1.4z" fill="#997567"/><ellipse transform="matrix(.3085 -.9512000000000002 .9512000000000002 .3085 -10.0164 37.5192)" cx="20.8" cy="25.6" rx="3.9" ry="2.7" fill="#a88378"/><circle transform="matrix(.003623492 -1 1 .003623492 3.6194 28.1123)" cx="15.9" cy="12.2" r="9.7" fill="#4a3531"/><g fill="#7a594f"><circle transform="matrix(.003623493 -1 1 .003623493 4.1872 27.2778)" cx="15.8" cy="11.5" r="9.4"/><ellipse transform="matrix(.003623492 -1 1 .003623492 4.9631 27.5311)" cx="16.3" cy="11.3" rx="9.1" ry="8.8"/></g><ellipse transform="matrix(.003623492 -1 1 .003623492 1.3050000000000002 26.3488)" cx="13.9" cy="12.5" rx="6.6" ry="6.4" fill="#997567"/><g fill="#362826"><ellipse transform="matrix(.003623492 -1 1 .003623492 2.7353 29.230100000000004)" cx="16" cy="13.2" rx="1" ry=".9"/><ellipse transform="matrix(.003623492 -1 1 .003623492 -2.6694 20.747399999999995)" cx="9.1" cy="11.7" rx="1" ry=".9"/></g><ellipse transform="matrix(.003623492 -1 1 .003623492 -2.1709 20.5205)" cx="9.2" cy="11.3" rx=".3" ry=".2" fill="#fff"/><path d="M14.1 17.6s-.9-.1-1.5-.6-1.2-.4-1.4-.4c-.1 0-.3-.2-.5-.3s-.5-.1-.5 0 .3.6.3.6.1.4 0 .6 0 .8.7 1 1.2.1 1.5-.1c.2-.1 1.4-.8 1.4-.8z" fill="#4a3531"/><path d="M15.3 11.5c.1.2.4.2.6.2l3.1-.2c.1 0 .3 0 .4-.1s0-.3-.1-.4-.3-.1-.4-.1c-.8-.1-1.5-.1-2.3 0-.3-.1-1.6-.1-1.3.6zM10 10.2h.3c.1 0 .2-.1.2-.3s-.2-.3-.4-.4c-.4-.1-1-.4-1.5-.6-.1 0-.3-.1-.4-.1-.2 0-.3.1-.3.3s.2.3.4.4c.3.1.6.2.9.4.2.1.5.2.8.3z" fill="#362826"/><g fill="#4a3531"><path d="M19 9.6c-.2 0-.4.1-.5 0-.2 0-.4-.1-.6-.2L15.4 8c-.2-.1-.5-.3-.7-.5-.8.9-2.4.8-3.1-.1-.3.3-.7.3-1.1.2s-.7-.4-.8-.8c-.3.1-.6.2-1 .2-.2-.5-.1-1.2.3-1.6-.5.2-1.1-.1-1.2-.6-.1-.3 0-.6.1-.9.1-.4.3-.8.4-1.2s.3-.8.6-1 .8-.2 1.2-.3c.6-.1 1.1-.6 1.6-.9.6-.3 1.4-.5 2.2-.5.5 0 1.2.2 1.4.6.2-.4.7-.6 1.2-.6s.9.4 1 .8c1.1-.3 2.3-.3 3.4-.1.4.1.8.2 1 .5s.2.9-.2 1c.3.1.7 0 1 0s.7-.1 1 0 .6.4.7.7-.3.7-.6.6l2.9 1.2c-.5.6-1.3 1-2.1 1 .3.1.6.1.8.2.3.1.5.4.5.7s-.2.6-.5.6l1 .6c-.3.3-.5.7-.8 1-.2.2-.4.5-.7.6-.4.2-.9.2-1.3-.1-.1.3-.1.8-.5.8-.3 0-.6-.4-.8-.5-1.1-.6-2.1-.2-3.3 0z"/><path d="M20.2 8.1c-.5-.1-1.1.2-1.2.7 0 .4.2.8.6.9.4.2.8.3 1.2.3-.2.1-.4.3-.6.4.1.6.7 1.2 1.3 1.3-.4 0-.8.4-.9.9 0 .4.3.9.7 1-.2 0-.4 0-.6.1s-.4.3-.3.5c0 .4.5.6.5.9 0 .2-.2.4-.5.5-.2.1-.5.2-.5.5-.1.2.2.5.4.4-.3.1-.5.4-.6.7 0 .3.2.6.5.7-.3-.1-.6.1-.6.4 0 .2.2.4.5.4s.4 0 .7-.1c0 .2 0 .5.2.7.2.4.6.6 1 .5s.7-.5.7-.9c0 .1.1.3.1.4.9.3 2-.5 2.1-1.4.6.2 1.2 0 1.6-.5.3-.5.3-1.2 0-1.6.7 0 1.3-.6 1.4-1.2.2-.6-.1-1.4-.7-1.7.4 0 .8-.4.8-.8s-.2-.9-.6-1.1c-.3-.3-.8-.4-1.2-.6.7-.4 1.4-1 1.4-1.8 0-.7-.7-1.4-1.4-1.3l-2.8-1.2c-.3-.1-.7-.3-1-.4-.5-.2-1-.4-1.6-.4-.5 0-1.1.4-1.2.9 0 .3.1.6.2 1 .1.3.1.7-.1.9"/><path d="M24.7 4.4c.4-.4 1.2-.2 1.4.3S26 5.9 25.4 6c.3-.2.7.2.9.6l.5.8c.3.5.6 1 .7 1.5.2.9 0 1.9-.2 2.8-.1.5-.3 1.1-.8 1.3s-1-.2-1.4-.6c-.9-1-1.1-2.4-1.6-3.6-.2-.8-.5-1.4-.8-2-.4-.8-1.8-2.8-.9-3.7s3 0 2.9 1.3z"/><path d="M19.4 1.1c.4 0 .8 0 1.2.2s.6.6.4 1c.3-.5.9-.8 1.5-.6.6.1 1 .7 1 1.2.4-.1.8-.3 1.2-.3.4-.1.9 0 1.2.4s.2.9-.2 1.1c.3-.2.7-.1 1 0 .3.2.5.6.4.9 0 .2-.1.4-.1.6.1.4.5.6.7.9.3.2.3.6.4 1 .1.5.1 1 .2 1.5.1.6.1 1.2.2 1.9 0 .4.1.9-.2 1.2-.1.3-.1.7-.2 1-.1.4-.2.8-.4 1.2-.3.3-.7.5-1.1.3-.3-.1-.4-.4-.5-.7s-.1-.6-.1-.9c-.1-.4-.3-.8-.6-1s-.8-.3-1.2-.1c.1-.4.2-.8.1-1.2s-.3-.8-.7-.9c-.6-.1-1.2.3-1.7 0-.5-.4 0-1.2-.3-1.7s-1-.5-1.5-.4c-.6.1-1.2.2-1.6-.2-.3-.3-.4-.5-.5-.7-.5-1.2-.8-2.6-.9-3.9-.1-1 1.4-1.7 2.3-1.8z"/></g><path d="M6.7 21s1 4 4.2 5 8 1.6 11.2.4 4.1-2.3 4.1-2.3.7 7.8-7.7 6.6-11.4-4-11.7-4.5c-.3-.6-1.9-2.3-.1-5.2z" fill="#53a9b8"/><path d="M13.6 8.3c.1.5.4.8.8 1.1s.8.4 1.3.6c-.3-.1-.7.2-.7.5-.1.3.1.7.3.9s.5.4.9.5c-.3.1-.4.4-.3.7s.3.5.5.6c.5.4 1 .7 1.5 1 .6.4 1.3.7 2 1 .4.2.9.3 1.4.2.6-.2.9-.7 1.1-1.2.4-1 .7-2 .7-3 0-.5 0-.9-.2-1.4-.2-.6-.7-1.1-1.2-1.4-.7-.4-1.3-.6-1.9-.8-.9-.4-1.9-.7-2.9-.8-1-.2-3.6-.1-3.3 1.5z" fill="#4a3531"/><path d="M6.9 8.2s4.2-.4 8.7 1.8c0 0-1.2-3.7-6.9-4.7 0 0-1.6 1.4-1.8 2.9z" fill="#6a648e"/><path d="M11.5 29.3s-1.3-1.5-1.3-2.3c0 0-.9.6-1.1 1.3 0 .1 1.9 1.1 2.4 1z" fill="#305472"/><ellipse transform="matrix(.3085 -.9512000000000002 .9512000000000002 .3085 -9.0736 37.0653)" cx="21" cy="24.8" rx="1.6" ry="1.2" fill="#a88378"/><path d="M22.3 26.3s.5 4.9-2.7 5.2c0 0 7.4-.3 6.9-7.6 0 0-1.4 1.6-4.2 2.4z" opacity=".43" fill="#305472"/><path d="M8.5 7.3s.2-.8.9-1.2c0 0 3.4 1.2 4.6 2.4-.1.1-3.1-1.2-5.5-1.2z" fill="#807ca5"/><path d="M16.3 3c1.7.2 3.5.5 5.1 1.1.4.2.9.4 1.1.8s.1 1-.3 1.2c.5.4 1.2.6 1.8.5 0 .4.1.7.1 1.1.7.9 1 2.1 1.2 3.2.1.6.3 1.3.2 1.9s-.4 1.3-1 1.5c-1.1-.2-1.2-2-2.3-2.3-.8-.2-1.8.7-2.5.2-.5-.4-.3-1.3 0-1.9-.5.1-1-.3-1.2-.7s-.3-1-.4-1.5-.3-1-.8-1.3c-.4-.3-1-.2-1.5-.5S15 5.5 14.6 5c-.3-.5-1-.9-1.3-1.5-.6-1 2.3-.6 3-.5z" fill="#604845"/><path d="M24 16.8l-3.9-1c-.4.5-.3 1.3-.1 2 .1.5.2.9.5 1.3.4.5 1.2.6 1.8.5s1.2-.5 1.8-.8c.8-.5 1.7-1.1 2.2-1.9-.7.2-1.6.2-2.3-.1z" fill="#362826"/></svg>