<svg xmlns="http://www.w3.org/2000/svg" viewBox="0 0 32 32"><style><![CDATA[.I{stroke-width:.5527}.J{stroke-miterlimit:10}]]></style><g stroke-width="1.1974" class="J"><path d="M12 30.6s5.8 2.1 11.9-.4c.5-.2.7-.7.5-1.2-.3-.8-.8-2.1-.8-3.2 0-1.6 0-4.3 2.5-6.7s4.2-9.6-.5-13.7-12.4-3.2-15-1.4-5.5 4.3-4.8 8.9c0 0 .2 1 0 1.3-.2.4-2.3 3.5-2.4 3.8-.1.2-.4 1.1.1 1.3s2 .7 2.1 1.7.1 2.6.1 3.3-.3 2.2 1.4 2.4 3.8-.7 4.3 1c0 0 .1 1.3 0 1.9h0c-.1.4.1.7.4.9l.2.1z" fill="#2590ba" stroke="#2590ba"/><path d="M12.1 28.6s5.8 2.1 11.9-.4c.5-.2.7-.7.5-1.2-.3-.8-.8-2.1-.8-3.2 0-1.6 0-4.3 2.5-6.7s4.2-9.6-.5-13.7S13.3.2 10.7 2s-5.5 4.4-4.8 9c0 0 .2 1 0 1.3-.2.4-2.3 3.5-2.4 3.8-.1.2-.4 1.1.1 1.3s2 .7 2.1 1.7.1 2.6.1 3.3-.3 2.2 1.4 2.4c1.7.1 3.8-.7 4.3 1 0 0 .1 1.3 0 1.9h0c-.1.4.1.7.4.9h.2z" stroke="#457087" fill="#94bece"/></g><path d="M12.2 28.1s5.6 2 11.5-.4c.4-.2.7-.7.5-1.1-.3-.8-.8-2.1-.8-3 0-1.6 0-4.1 2.4-6.5s4.1-9.3-.5-13.2S13.4.8 10.8 2.6s-5.3 4.1-4.6 8.6c0 0 .2.9 0 1.3L3.9 16c-.1.2-.4 1.1.1 1.3s1.9.6 2 1.6.1 2.5.1 3.1-.3 2.2 1.4 2.3 3.7-.7 4.2 1c0 0 .1 1.2 0 1.8h0c-.1.4.1.7.4.9l.1.1z" fill="#94bece"/><g opacity=".84"><linearGradient id="A" gradientUnits="userSpaceOnUse" x1="4.9054" y1="15.0252" x2="27.0223" y2="15.0252"><stop offset="0" stop-color="#fff"/><stop offset="1" stop-color="#b9dae4"/></linearGradient><path d="M12.6 26.9s5 1.8 10.4-.4c.4-.2.6-.6.4-1-.3-.7-.7-1.9-.7-2.7 0-1.4 0-3.7 2.2-5.9s3.7-8.4-.5-11.9-10.7-2.8-13.1-1.2-4.7 3.7-4.2 7.7c0 0 .2.8 0 1.2S5.1 15.8 5 16s-.4.9.1 1.1 1.7.6 1.8 1.5.1 2.3.1 2.8c0 .6-.2 2 1.2 2.1s3.3-.6 3.8.9c0 0 .1 1.1 0 1.7h0c-.1.3.1.6.4.8h.2z" fill="url(#A)"/></g><g fill="#2ca0ce"><path d="M18.9 17.1s2 1.6 4-.2l.4-.7s2-.1 2.1-2.4c0 0 1.9-1.3 1-3.4 0 0 0-.9-1.1-1.2 0 0 .6-1.4-.5-2.7s-1.8-1-1.8-1 .1-.9-.5-1.4-1.7-1.1-3.3-.4c0 0-1.3-1.3-3.3-.8s-2.2 1.5-2.2 1.5-.3-.6-1.6-.2c-1.3.3-1.8 1.4-1.8 2.2 0 0-1.7.2-1.8 1.7 0 1.5 1.5 2.2 1.5 2.2s.2 1.8 1.3 2.2 2.1.3 2.1.3-.5 2.1 1.7 2.6c0 0 .3.9 1.5 1.1s2.3.6 2.3.6z"/><g stroke="#ebf4f6" class="I"><circle cx="14.3" cy="7.4" r="1.4"/><circle cx="18.6" cy="6.3" r="1.4"/><circle cx="21.8" cy="9.2" r="1.4"/></g><g stroke="#ebf5f6" class="I"><circle cx="19.8" cy="12.5" r="1.4"/><circle cx="16.2" cy="13.1" r="1.4"/></g><g stroke="#ebf4f6" class="J I"><path d="M9.5 10.5H11l2.2-2.3"/><path d="M18.4 7.6l-2.2 2.9h-5.4m4.2 3.6l-1.1 1.4m8.6-5.1l1.5 1.4h2.7m-6 1.9l1.5 1.4-.1 3.4"/></g><path d="M18.3 16.3v1.2c0 .7.4 1.2 1 1.5h0c1 .3 2-.4 2-1.5v-1.2c0-.8-.6-1.5-1.5-1.5-.8-.1-1.5.6-1.5 1.5z"/></g></svg>