<?xml version="1.0" encoding="utf-8"?>
<!-- Generator: Adobe Illustrator 25.2.1, SVG Export Plug-In . SVG Version: 6.00 Build 0)  -->
<svg version="1.1" id="Layer_1" xmlns="http://www.w3.org/2000/svg" xmlns:xlink="http://www.w3.org/1999/xlink" x="0px" y="0px"
	 viewBox="0 0 55 55" style="enable-background:new 0 0 55 55;" xml:space="preserve">
<style type="text/css">
	.st0{fill:#5EBE7B;}
	.st1{fill:#FFFFFF;}
</style>
<g transform="translate(-441 -637)">
	<circle class="st0" cx="468.5" cy="664.5" r="27.5"/>
	<g transform="translate(-1475.993 562.044)">
		<path class="st1" d="M1937.5,103.7c1.5,0,3,0,4.6,0c0.7-0.1,1.4,0.5,1.4,1.2c0,0.1,0,0.1,0,0.2c0,3.1,0,6.1,0,9.2
			c0,0.7-0.5,1.4-1.3,1.4c0,0-0.1,0-0.1,0c-3.1,0-6.1,0-9.2,0c-0.7,0-1.4-0.5-1.4-1.3c0,0,0-0.1,0-0.1c0-3.1,0-6.2,0-9.3
			c0-0.7,0.6-1.3,1.3-1.3c0,0,0,0,0.1,0C1934.4,103.7,1936,103.7,1937.5,103.7z M1940.8,106.4h-6.6v6.6h6.6L1940.8,106.4z"/>
		<path class="st1" d="M1946.2,95c0-1.5,0-3,0-4.5c-0.1-0.7,0.5-1.4,1.2-1.5c0.1,0,0.2,0,0.3,0c3,0,6,0,8.9,0
			c0.8-0.1,1.5,0.4,1.6,1.2c0,0.1,0,0.3,0,0.4c0,2.5,0,5,0,7.4c0,0.5,0,1,0,1.5c0.1,0.8-0.5,1.4-1.2,1.5c-0.1,0-0.2,0-0.3,0
			c-3,0-6,0-9,0c-0.7,0.1-1.4-0.5-1.5-1.2c0-0.1,0-0.2,0-0.3C1946.2,98,1946.2,96.5,1946.2,95z M1948.8,98.3h6.6v-6.6h-6.6V98.3z"/>
		<path class="st1" d="M1946.2,109.6c0-1.5,0-3,0-4.5c-0.1-0.7,0.5-1.4,1.2-1.4c0.1,0,0.2,0,0.3,0c3,0,6,0,9.1,0
			c0.7-0.1,1.4,0.5,1.5,1.2c0,0.1,0,0.2,0,0.2c0,3,0,6.1,0,9.1c0.1,0.7-0.5,1.4-1.2,1.5c-0.1,0-0.1,0-0.2,0c-3,0-6,0-9.1,0
			c-0.7,0.1-1.4-0.5-1.5-1.2c0-0.1,0-0.2,0-0.2C1946.2,112.7,1946.2,111.2,1946.2,109.6z M1948.8,113h6.6v-6.6h-6.6V113z"/>
		<path class="st1" d="M1937.5,89c1.5,0,3,0,4.5,0c0.7-0.1,1.4,0.5,1.5,1.2c0,0.1,0,0.2,0,0.2c0,3,0,6,0,9c0.1,0.7-0.5,1.4-1.2,1.5
			c-0.1,0-0.2,0-0.2,0c-3,0-6,0-9,0c-0.7,0.1-1.4-0.5-1.5-1.2c0-0.1,0-0.1,0-0.2c0-3,0-6.1,0-9.1c0-0.7,0.5-1.4,1.3-1.4
			c0.1,0,0.1,0,0.2,0C1934.5,89,1936,89,1937.5,89z M1934.2,91.7v6.6h6.6v-6.6L1934.2,91.7z"/>
	</g>
</g>
</svg>
