<svg xmlns="http://www.w3.org/2000/svg" viewBox="0 0 32 32"><g fill="#1c364f"><path d="M1.5 23.9l-.7.6L4 28.1l1.8-.9-2.7-2.7zm28-21.3l1.7 3.8h-1.8L28.3 3z"/><path d="M25.7.2L6.7.5c-2 0-3.9 1.8-4.2 3.9L.3 21.7C0 24 1.4 26 3.5 26.2L23.4 28c2.5.2 4.8-1.7 5-4.3l1.4-19.3c.1-2.3-1.7-4.2-4.1-4.2z"/><path d="M27.9 4.7L9.6 5c-2 0-3.7 1.7-4 3.7L3.4 25.3c-.3 2.2 1.1 4.2 3.1 4.3l19.1 1.7c2.4.2 4.6-1.6 4.8-4.1l1.4-18.6c.1-2.2-1.6-4-3.9-3.9z"/></g><path d="M4.4 3.7l.8-1.2 20.6-.7 1.1 1.6c.1.2-.5 2-.5 2L5.3 5.3l-.9-1.6zm-2.1 19l.9-1.1 20.6.4 1 1.6c.1.2-.6 1.9-.6 1.9l-21-1.2-.9-1.6z" fill="#5e636b"/><path d="M24.9 1.2l-17.7.3c-1.9 0-3.6 1.6-3.9 3.6l-2 16.1c-.3 2.1 1.1 4 3 4.2l18.5 1.7c2.4.2 4.4-1.6 4.6-4l1.3-18c.2-2.2-1.5-3.9-3.8-3.9zM5.1 23.8l-.9-.1c-.5 0-.9-.5-.8-1v-.2c.1-.5.5-.8 1-.8l.9.1c.5 0 .9.5.8 1L6 23c0 .5-.5.8-.9.8zM7.4 4.6h-.8c-.5 0-1-.5-.9-1h0c.1-.4.4-.8.9-.8h.8c.5 0 1 .5.9 1h0c0 .5-.4.8-.9.8zm2 19.5l-1-.1c-.5 0-.9-.5-.8-1v-.2c.1-.5.5-.8 1-.8l1 .1c.5 0 .9.5.8 1v.2c-.1.5-.5.9-1 .8zm2.2-19.5h-.9c-.5 0-1-.5-.9-1h0c.1-.5.4-.8.9-.8h.9c.5 0 1 .5.9 1h0c0 .5-.4.8-.9.8zm2.3 19.9l-1.1-.1c-.5 0-.9-.5-.8-1v-.2c.1-.5.5-.8 1-.8l1.1.1c.5 0 .9.5.8 1v.3c-.1.4-.5.8-1 .7zM16 4.6h-1c-.5 0-1-.5-.9-1v-.1c0-.5.4-.8.9-.8h1c.5 0 1 .5.9 1v.1c-.1.5-.5.8-.9.8zm2.6 20.3l-1.2-.1c-.5 0-.9-.5-.8-1v-.3c0-.5.5-.9 1-.8l1.2.1c.5 0 .9.5.8 1v.3c-.1.5-.5.8-1 .8zm1.9-20.3h-1.1c-.5 0-1-.5-.9-1v-.1c0-.5.4-.8.9-.8h1.1c.5 0 1 .5.9 1v.1c0 .5-.4.8-.9.8zm3 20.7l-1.3-.1c-.5 0-.9-.5-.8-1v-.3c0-.5.5-.9 1-.8l1.3.1c.5 0 .9.5.8 1v.3c-.1.5-.5.9-1 .8zm1.7-20.7H24c-.5 0-.9-.5-.9-1v-.1c0-.5.4-.8.9-.8h1.2c.5 0 1 .4.9 1v.1c0 .4-.4.8-.9.8z" fill="#295472"/><linearGradient id="A" gradientUnits="userSpaceOnUse" x1="35.9616" y1="16.7842" x2="-4.7856" y2="20.6798"><stop offset="0" stop-color="#2e5882"/><stop offset="1" stop-color="#75add3"/></linearGradient><path d="M2.6 10.8l-1.3 10-.1.6c-.1 1.7.8 3.8 3.1 4.1l19 1.7h.1c1.9.2 3.9-1.7 4-3.6l.1-.8.8-11.3-25.7-.7z" fill="url(#A)"/><path d="M29.4 8.1L28.1 26c0 .2 0 .3.1.4h0c.4.5 1.1.3 1.2-.3l1.4-17.7c0-.2 0-.3-.1-.4l-.1-.1c-.4-.7-1.2-.4-1.2.2zM5.8 28.3h0c.1.1.3.2.5.2l17.9 1.7c.7.1 1.2-.8.7-1.3l-.1-.2c-.1-.2-.3-.3-.5-.3L6.4 26.9c-.7-.1-1.2.8-.6 1.4z" opacity=".4" fill="#406d96"/><path d="M11 14.2L9.9 24c-.1.6.5 1.1 1.1.8l9.2-4.2c.6-.3.7-1.2.2-1.5l-8.1-5.5c-.5-.4-1.2 0-1.3.6z" fill="#1c364f"/><path d="M10.1 12.9L9 22.7c-.1.6.5 1.1 1.1.8l9.2-4.2c.6-.3.7-1.2.2-1.5l-8.1-5.5c-.5-.4-1.2 0-1.3.6z" fill="#fff"/><path d="M10.8 14.3l-.8 7c-.1.5.4.8.8.6l6.6-3c.5-.2.5-.8.1-1.1l-5.8-3.9c-.3-.3-.9 0-.9.4z" opacity=".35" fill="#97cbe8"/><path d="M24.8 11.3l-1 15.8c1.8-.1 3.5-1.9 3.6-3.6l.1-.8.8-11.3-3.5-.1zm-18.9-.4l-3.3-.1-1.3 10-.1.6C1.1 23 2 25 4 25.4l1.9-14.5z" fill="#2f5877"/><path d="M4 14.4h-.3c-.4 0-.8-.4-.7-.8l.1-.4c0-.4.4-.6.7-.6h.3c.4 0 .8.4.7.8l-.1.4c0 .3-.4.6-.7.6zm-.5 3.3h-.2c-.4 0-.8-.4-.7-.8l.1-.4c0-.4.4-.6.7-.6h.2c.4 0 .8.4.7.8l-.1.4c0 .3-.3.6-.7.6zM3 21.1h-.2c-.4 0-.8-.4-.7-.8l.1-.4c0-.4.4-.7.8-.6h.2c.4 0 .8.4.7.8l-.1.4c-.1.3-.4.6-.8.6zm23.6-5.4h-.3c-.4 0-.8-.4-.8-.8v-.4c0-.4.3-.6.7-.6h.3c.4 0 .8.4.8.8v.4c-.1.3-.4.6-.7.6zm-.3 3.3H26c-.4 0-.8-.4-.8-.8v-.4c0-.4.3-.6.7-.6h.2c.4 0 .8.4.8.8v.4c.1.4-.2.6-.6.6zm-.3 3.4h-.2c-.4 0-.8-.4-.8-.8v-.4c0-.4.3-.7.7-.6h.2c.4 0 .8.4.8.8v.4c0 .3-.3.6-.7.6z" fill="#5e92b9"/><path d="M5.8 2.4c-.1 0-.8 2.7-.8 2.7l18.1 1.8 3.7-2.1V2.1l-21 .3z" fill="#295472"/><path d="M6.8 3.5h2.9l-.1.8h-2l-.3 1.6h1.8l-.1.9H7.2L6.8 9h-.9l.9-5.5zM10.6 9l.8-5.6H13c1.5 0 1.8.7 1.7 1.7s-.8 1.5-1.3 1.6l1.4 2.4h-1.2l-1.2-2.2h-.7L11.6 9h-1zm1.7-4.7L12 6h.6c.5 0 1.1-.3 1.1-.9.1-.4-.1-.8-.9-.8h-.5zm4.9-1h3.2l-.1 1H18l-.2 1.4h2l-.1 1h-2l-.2 1.5h2.4l-.1 1h-3.4l.8-5.9zm5.3-.1H26l-.1 1h-2.4l-.2 1.5h2.1l-.1 1h-2.1L23 8.2h2.5l-.1 1-3.5-.1.6-5.9z" fill="#1c364f"/><path d="M6.6 3h2.9l-.1.9h-2l-.3 1.5h1.8l-.1 1H7l-.4 2.1h-.9L6.6 3zm3.9 5.6l.8-5.6h1.6c1.5 0 1.8.7 1.7 1.7s-.8 1.5-1.3 1.6l1.4 2.4h-1.2l-1.2-2.2h-.7l-.3 2.1h-.8zm1.6-4.7l-.2 1.7h.6c.5 0 1.1-.3 1.1-.9.1-.4-.1-.8-.9-.8-.1-.1-.4-.1-.6 0zm5-1h3.2l-.1 1h-2.3l-.2 1.4h2l-.1 1h-2l-.2 1.5h2.4l-.1 1h-3.4l.8-5.9zm5.3-.1l3.4-.1-.1 1h-2.4l-.2 1.5h2.1l-.1 1H23l-.2 1.6h2.5l-.1 1-3.5-.1.7-5.9z" fill="#fff"/></svg>