<svg xmlns="http://www.w3.org/2000/svg" viewBox="0 0 32 32"><path d="M21.3 20.9c1.8.6 3.5 2.1 4 4.2.6 2.2-.2 4.7-1.9 6-1.1.8-2.4 1-3.7 1-3.1 0-6.1-1-9.2-2.1-1-.3-2.1-.7-3-1.4s-1.6-1.7-1.8-2.9c0-1.7 1-3.3 2.3-4.2 2.2-1.4 4.6-2 6.9-2 2 0 4.5.7 6.4 1.4z" fill="#1d282c"/><path d="M21.3 19.6c1.8.6 3.5 2.1 4 4.2.6 2.2-.2 4.7-1.9 6-1.1.8-2.4 1-3.7 1-3.1 0-6.1-1-9.2-2.1-1-.3-2.1-.7-3-1.4s-1.6-1.7-1.8-2.9c-.2-1.7.8-3.3 2.1-4.2 2.2-1.4 4.6-2 6.9-2 2.2 0 4.7.7 6.6 1.4z" fill="#3b3b3b"/><path d="M18 20.5s-3.6 1.5-6.3 5.7c0 0-1-3.6-.4-6.2.1 0 3.8 1.6 6.7.5z" fill="#e5a98c"/><path d="M9.2 18.7s-.4 1.1-2.8 1.1c0 0-4.1-7.3 3.1-12.3l-.3 11.2zm9.6-11.6s3.4 5.9.8 14.8c0 0 3.7 0 6.2-3 1.6-1.9.4-6.9-.6-10.2-.6-2-2.5-2.8-4.5-2.2l-1.9.6z" fill="#8f8a78"/><path d="M9.3 18s-.4 1-2.6 1c0 0-3.9-6.8 2.9-11.5L9.3 18z" fill="#f4eacd"/><path d="M8.3 6.5s.5 2.2 3.4 2.4 13-1.3 13-1.3-2.6-5-8.8-5.3C11.2 2 8.7 5.8 8.3 6.5z" fill="#8f8a78"/><path d="M20.7 7l1 4.4s-5.6 1.9-14.2-2.1c0 0 0-2.9 2.7-4.8S20.7 7 20.7 7z" fill="#6a8189"/><circle transform="matrix(.003623492 -1 1 .003623492 2.1161 28.6008)" cx="15.4" cy="13.2" r="8.9" fill="#a67a65"/><circle transform="matrix(.003623492 -1 1 .003623492 2.6361000000000003 27.8366)" cx="15.3" cy="12.6" r="8.6" fill="#e5a98c"/><ellipse transform="matrix(.003623492 -1 1 .003623492 3.3465 28.0686)" cx="15.8" cy="12.4" rx="8.3" ry="8" fill="#e8ccaa"/><ellipse transform="matrix(.003623492 -1 1 .003623492 -.003262962 26.985900000000004)" cx="13.5" cy="13.5" rx="6" ry="5.9" fill="#faeacf"/><path d="M8.4 6.5s.5 2 3.3 2.2S24 7.5 24 7.5s-2.4-4.7-8.3-5c-4.5-.3-6.9 3.3-7.3 4z" fill="#f4eacd"/><ellipse transform="matrix(.003623492 -1 1 .003623492 1.3065 29.6244)" cx="15.5" cy="14.2" rx=".9" ry=".8" fill="#3c505b"/><circle transform="matrix(.003623492 -1 1 .003623492 1.763 29.4166)" cx="15.6" cy="13.8" r=".2" fill="#fff"/><ellipse transform="matrix(.003623492 -1 1 .003623492 -3.0777000000000005 21.2211)" cx="9.1" cy="12.2" rx=".9" ry=".8" fill="#3c505b"/><circle transform="matrix(.003623492 -1 1 .003623492 -2.6213 21.0134)" cx="9.2" cy="11.8" r=".2" fill="#fff"/><path d="M21.1 13.9s.7-.6 1.3-.3c.6.2.5 2.1-1 2.3l-.3-2z" fill="#faeacf"/><g fill="#f4eacd"><path d="M18.4 7s3.2 5.6.8 14.1c0 0 3.5 0 5.9-2.9 1.5-1.8.4-6.6-.6-9.7-.6-1.9-2.3-2.6-4.3-2.1l-1.8.6z"/><path d="M20.1 6.9l1 4.2s-5.7 2.1-13.9-1.8c0 0 .4-3 3-4.8s9.9 2.4 9.9 2.4z"/></g><path d="M8 8.6s.7-1 1.7-1c.9 0 4.7 2.6 10.7 1.7 0 0-1.2 1.2-2.6 1.3-1.5.2-6.6-.3-9.8-2zM20.4 19s2.7-.7 3.1-1.9c.4-1.3-.3-8.8-.3-8.8s1.5 3.9 1.4 8.8c0 0-1.6 2.4-4.3 2.8V19z" fill="#fff"/><path d="M12.9 10.1c-1 .6-2.4.4-3.1-.5-.2-.3-.3-.6-.3-.8 0-.7 4.2-2.4 5.4-1.4.8.7-.7 1.9-2 2.7z" fill="#bf6922"/><ellipse cx="21.5" cy="10.2" rx="5.2" ry="2.4" fill="#cccdd1"/><ellipse cx="21.4" cy="9.6" rx="5.2" ry="2.4" fill="#1d282c"/><path d="M7.3 8.8s-2.4 1.8-1.5 3.1 4.1 4.6 12.9.5L7.3 8.8z" fill="#3b3b3b"/><path d="M7.9 6.1l-.8 3.5s2.7 4.5 14.7 3.1l.5-1.3L7.9 6.1z" fill="#cccdd1"/><path d="M8.1 5.3l-.8 3.5S10 13.3 22.4 12c.4 0 .9-.4 1.1-.8l.3-.7L8.1 5.3z" fill="#1d282c"/><g fill="#3b3b3b"><path d="M7.3 1l-1.1.1s.2 5 3.3 6.6 5.8 2.4 8.4 2.7 6.2.7 8.4-.5L7.3 1z"/><path d="M11.5 3.9s-1-1.5-2.7-1.8-4-1-1.9-1.8 6.7-.3 10.5 1.1 6.3 3.4 8.2 5.4.8 3.3 0 3.3-2.9-.7-6.7-3-7.4-3.2-7.4-3.2z"/></g><ellipse transform="matrix(.9795 -.2014 .2014 .9795 -1.385 2.2909)" cx="10.6" cy="8" rx="1.3" ry="2.1" fill="#cccdd1"/><path d="M12.7 3.7s-1.2-.7-2.6-1S6.7 2 8.5 1.4s5.7-.3 8.9.9 5.2 2.6 6.8 4.2 1.4 2.4.8 2.3c-.6 0-3.2-.3-6.3-2.1s-6-3-6-3z" fill="#898989"/><path d="M7.7 10.4l.2-1.1-.6-.5-.7 1.2zm17.5.3l-.4 1.4c0 .2 0 .4.1.5h0c.3.4.8.4 1.1 0 .5-.7 1-2 .7-3.7l-1.1.5-.4 1.3z" fill="#3b3b3b"/><path d="M19.4 19.9s-.1 1 .6 1v1s-1.5.1-1.2-.8c.2-.8.6-1.2.6-1.2z" fill="#8f8a78"/><g fill="#898989"><path d="M18.2 21.7l-.1 2.6-2.4.5-.5 3.2-3.3.6c0-.1 1.4-5.7 6.3-6.9zm-7.6-1.4l-1.9 1.8 1.6.8-1.8 1.5 2.7 1.9c0 .1-1.1-4.6-.6-6z"/><ellipse transform="matrix(.3085 -.9512000000000002 .9512000000000002 .3085 -9.8047 37.9519)" cx="21.2" cy="25.7" rx="3.6" ry="2.5" opacity=".28"/></g><path d="M13.6 18.3s-.8-.1-1.4-.6c-.6-.4-1.1-.4-1.2-.4s-.3-.2-.5-.3c-.2 0-.5 0-.5.1s.2.5.2.5v.6c0 .2 0 .8.6.9s1.1.1 1.3-.1c.4 0 1.5-.7 1.5-.7z" fill="#ed949a"/></svg>