<svg xmlns="http://www.w3.org/2000/svg" viewBox="0 0 32 32"><g fill="none"><circle cx="16.1" cy="16.1" r="13.9" stroke="#247835" stroke-width="3.9271"/><circle cx="16.1" cy="16.1" r="13.9" stroke="#6dc458" stroke-width="2.142"/></g><g fill="#247835"><path d="M16 30.1c-.5 0-.9-.2-1.2-.6L6.8 19c-.4-.5-.4-1.1-.2-1.6.3-.5.8-.9 1.4-.9h2.8V8.6c0-.6.6-3.8 1.7-3.8h6.9c1.2 0 1.7 3.2 1.7 3.8v7.9H24c.6 0 1.1.3 1.4.9s.2 1.2-.2 1.6l-8 10.5c-.2.3-.7.6-1.2.6z"/><path d="M19.5 5.1c.8 0 1.4 2.7 1.4 3.5v8.2H24c1 0 1.6 1.2 1 2l-8 10.5c-.2.3-.6.5-1 .5s-.7-.2-1-.5L7 18.8c-.6-.8 0-2 1-2h3.1V8.6c0-.8.6-3.5 1.4-3.5h7m0-.6h-6.9c-1.6 0-2 3.8-2 4.1v7.6H8.1c-.7 0-1.3.4-1.7 1-.3.6-.2 1.4.2 1.9l8 10.5c.4.5.9.7 1.5.7s1.1-.3 1.5-.7l8-10.5c.4-.6.5-1.3.2-1.9s-.9-1-1.7-1h-2.5V8.6c-.1-.4-.6-4.1-2.1-4.1h0z"/></g><path d="M16 28.2c-.5 0-.9-.2-1.2-.6l-8-10.5c-.4-.5-.4-1.1-.2-1.6.3-.5.8-.9 1.4-.9h2.8v-10c0-1 .8-1.7 1.7-1.7h6.9c1 0 1.7.8 1.7 1.7v10H24c.6 0 1.1.3 1.4.9s.2 1.2-.2 1.6l-8 10.5c-.2.4-.7.6-1.2.6z" fill="#c9ffb8"/><path d="M19.5 3.2c.8 0 1.4.6 1.4 1.4v10.3H24c1 0 1.6 1.2 1 2l-8 10.5c-.2.3-.6.5-1 .5s-.7-.2-1-.5L7 16.9c-.6-.8 0-2 1-2h3.1V4.6c0-.8.6-1.4 1.4-1.4h7m0-.6h-6.9c-1.1 0-2 .9-2 2v9.7H8.1c-.7 0-1.3.4-1.7 1-.3.6-.2 1.4.2 1.9l8 10.5c.4.5.9.7 1.5.7s1.1-.3 1.5-.7l8-10.5c.4-.6.5-1.3.2-1.9s-.9-1-1.7-1h-2.5V4.6c-.1-1.1-1-2-2.1-2h0z" fill="#247835"/><linearGradient id="A" gradientUnits="userSpaceOnUse" x1="7.8955" y1="15.2896" x2="24.1094" y2="15.2896"><stop offset="0" stop-color="#68bd51"/><stop offset="1" stop-color="#7bd66b"/></linearGradient><path d="M23 15.5h-2.7V4.9c0-.7-.6-1.3-1.3-1.3h-6c-.7 0-1.3.6-1.3 1.3v10.6H9c-.9 0-1.4 1-.9 1.8l7 9.2c.4.6 1.3.6 1.7 0l7-9.2c.6-.7.1-1.8-.8-1.8z" fill="url(#A)"/><path d="M11.2 8.7l9.2 2.1.1-6.5-.8-.8-7.3.1-1 1zm0 4.5l9.2 2.1.1-2.8-9.1-2z" opacity=".64" fill="#c9ffb8"/><path d="M4 19.4l3.2 5.8-2 2-3.8-6.5zM27.7 5.5l3.3 5.8-2.1 2-3.7-6.5z" opacity=".43" fill="#247835"/></svg>