<svg width="auto" height="auto" viewBox="0 0 80 80" fill="none" xmlns="http://www.w3.org/2000/svg">
<g clip-path="url(#clip0_130_736)">
<path d="M63.75 8L70.5 13.5L76.25 26.75L10.5 65.25L3.25 51L39.75 18.5L63.75 8Z" fill="#14425B"/>
<path d="M78.25 42.75C74.5 64.5 50.5 80.25 29.25 77C12 74.5 3.99998 59.75 8.24998 44.75C12.25 30.25 27.25 16.75 44.25 13.75C64.5 10.25 81.75 22.25 78.25 42.75Z" fill="#14425B"/>
<path d="M65.5 8.75L72 16.25L77.25 29.25L11.5 65.5L4 52.5L65.5 8.75Z" fill="#14425B"/>
<path d="M77.75 41.5C74 63.25 50 79 28.75 75.75C11.5 73.25 3.49998 58.5 7.74998 43.5C11.75 29 26.5 15.5 43.5 12.5C64 8.75 81.25 21 77.75 41.5Z" fill="#14425B"/>
<path d="M73.4999 31.75C69.7499 54 45.4999 69.75 23.9999 66.5C6.49993 63.75 -1.75007 49 2.49993 33.5C6.49993 18.5 21.7499 5 38.7499 2C59.4999 -1.75 76.9999 10.75 73.4999 31.75Z" fill="#14425B"/>
<path d="M74.5 40.75C71.25 60.75 49.25 75.25 30 72.25C14.5 70 7.24998 56.5 11 42.75C14.75 29.5 28.25 17.25 43.5 14.5C62 11 77.75 22 74.5 40.75Z" fill="#0B6D84"/>
<path d="M71.75 36.75C68.5 57.25 46.25 71.75 27 68.75C11.25 66.25 3.74997 52.5 7.49997 38.5C11 25 24.75 12.5 40.25 9.75C59 6.5 74.75 17.75 71.75 36.75Z" fill="#0B6D84"/>
<path d="M70.5 32.25C67.25 52.75 45 67.25 25.75 64.25C9.99997 61.75 2.49997 48 6.24997 34C9.74997 20.5 23.5 8 39 5.25C57.75 2 73.5 13.25 70.5 32.25Z" fill="#00ADF2"/>
<path d="M65.2499 31C62.4999 48 43.9999 60.25 27.7499 57.75C14.4999 55.75 8.49991 44.25 11.7499 32.25C14.7499 21 26.2499 10.75 38.9999 8.5C54.4999 5.5 67.7499 15 65.2499 31Z" fill="#43BBEF"/>
<path d="M70.75 14.5L72 26.75L75 31.25L76.25 27L70.75 14.5Z" fill="#14425B"/>
<path d="M51.2499 31.5L51.7499 28.75C52.7499 23 48.4999 19 41.9999 19.25H40.9999C34.7499 19.75 28.4999 24.25 26.9999 30L26.2499 32.5C25.4999 33.25 23.7499 34.5 23.4999 35.75L22.4999 38.75C21.4999 42.25 21.9999 46 24.2499 48.25C25.7499 49.75 28.2499 51 31.9999 51H36.2499C40.2499 51 43.2499 49.5 45.7499 47.75C49.2499 45 51.4999 41.25 52.2499 37.75L52.7499 34.75C52.9999 33.5 51.9999 32 51.2499 31.5ZM40.2499 23.25H40.9999C45.2499 23 47.9999 25.75 47.2499 29.75L46.7499 31.75L30.2499 32.5L30.7499 30.5C31.9999 26.75 35.9999 23.5 40.2499 23.25ZM37.4999 43L36.7499 46.25C36.4999 47 35.7499 47.75 34.9999 47.75C34.2499 47.75 33.7499 47.25 33.7499 46.25L34.4999 43C32.9999 42.5 32.4999 41.25 32.7499 39.5C33.2499 37.5 35.4999 35.75 37.7499 35.5C39.9999 35.5 41.4999 37 40.9999 39C40.7499 40.75 39.2499 42.25 37.4999 43Z" fill="#0B6D84"/>
<path d="M52.9999 30.75L53.4999 28C54.2499 22.5 49.9999 18.25 43.7499 18.75H42.7499C36.4999 19.25 30.2499 23.75 28.7499 29.5L27.9999 32C27.2499 32.75 25.4999 34 25.2499 35.25L24.2499 38.25C23.2499 41.75 23.7499 45.5 25.9999 47.75C27.4999 49.25 29.9999 50.5 33.7499 50.5H37.9999C41.9999 50.5 44.9999 49 47.4999 47.25C50.9999 44.5 53.2499 40.75 53.9999 37.25L54.4999 34.25C54.4999 32.75 53.4999 31.5 52.9999 30.75ZM41.7499 22.75H42.4999C46.7499 22.5 49.4999 25.25 48.7499 29.25L48.2499 31.25L31.7499 32L32.4999 30C33.4999 26 37.4999 23 41.7499 22.75ZM39.2499 42.25L38.4999 45.5C38.2499 46.25 37.4999 47 36.7499 47C35.9999 47 35.4999 46.5 35.4999 45.5L36.2499 42.25C34.7499 41.75 34.2499 40.5 34.4999 38.75C34.9999 36.75 37.2499 35 39.4999 34.75C41.7499 34.75 43.2499 36.25 42.7499 38.25C42.2499 40.25 40.7499 41.75 39.2499 42.25Z" fill="#0B6D84"/>
<path d="M50.25 29.75L50.75 27.25C51.75 21.75 47.5 17.75 41.5 18.25H40.5C34.5 18.5 28.5 23 27 28.5L26.25 31C25.5 31.75 24 33 23.75 34L22.5 36.75C21.5 40.25 22 43.75 24 46C25.5 47.5 27.75 48.75 31.5 48.5H35.75C39.5 48.5 42.5 47 44.75 45.25C48.25 42.75 50.5 39 51 35.5L51.5 32.5C51.75 31.5 50.75 30.25 50.25 29.75ZM39.5 22H40.25C44.25 21.75 47 24.5 46.25 28L45.75 30L30 30.75L30.5 28.75C31.5 25.25 35.5 22.25 39.5 22ZM37 40.75L36.25 43.75C36 44.5 35.25 45.25 34.5 45.25C33.75 45.25 33.25 44.75 33.5 44L34.25 41C33 40.5 32.25 39.25 32.75 37.75C33.25 35.75 35.25 34 37.5 34C39.5 34 41 35.5 40.5 37.5C40 38.75 38.5 40.25 37 40.75Z" fill="#F6F6F6"/>
<path d="M64.75 30C66 17.25 56 8.75 42.5 9.5C29.5 10.5 16 20.25 11.75 32.75C6.74998 46.75 14.75 59.5 31 59.25C47.75 58.75 63.25 44.75 64.75 30Z" stroke="#F6F6F6" stroke-width="0.9591" stroke-miterlimit="10"/>
<path d="M71.25 29.75L70.25 21.5C70.25 21.5 73.75 27.25 74.5 30.75L70.75 40L71.25 29.75Z" fill="#0B6D84"/>
<path d="M74.7393 65.2212L79.3135 66.4145L78.9158 65.0223L74.7393 63.0335V65.2212Z" fill="#B29A34"/>
<path d="M69.3694 61.6414C71.9549 62.4369 74.3414 64.6246 75.137 67.6078C75.9325 70.591 74.7392 74.3698 72.5515 75.9608C70.9604 77.1541 69.1705 77.353 67.3806 77.353C63.0052 77.353 58.8287 75.9608 54.4533 74.3698C53.0611 73.972 51.4701 73.3754 50.2768 72.381C49.0835 71.3866 47.8902 69.9944 47.6913 68.4033C47.4924 66.0168 48.8846 63.6302 50.6745 62.4369C53.8566 60.4481 57.0387 59.6526 60.4197 59.6526C63.2041 59.8514 66.5851 60.8458 69.3694 61.6414Z" fill="#4C875A"/>
<path d="M69.9663 58.6581C72.5518 59.6525 75.1373 62.4369 75.9328 66.2156C76.7283 70.1933 75.535 74.7675 73.1484 77.1541C71.5574 78.5463 69.5686 78.944 67.5798 78.944C63.0055 78.944 58.4312 77.1541 53.8569 75.1653C52.2659 74.5687 50.8737 73.972 49.4815 72.7787C48.0894 71.5854 47.095 69.7955 46.8961 67.6078C46.4983 64.6246 48.0894 61.6414 50.0782 60.0503C53.4592 57.4648 56.8402 56.2715 60.42 56.2715C63.4032 56.2715 66.9831 57.4648 69.9663 58.6581Z" fill="#4C875A"/>
<path d="M75.202 51.9856C75.2303 44.1871 68.9312 37.8422 61.1326 37.8139C53.334 37.7856 46.9891 44.0847 46.9608 51.8833C46.9326 59.6819 53.2317 66.0268 61.0303 66.0551C68.8288 66.0833 75.1738 59.7842 75.202 51.9856Z" fill="#7F5C4E"/>
<path d="M68.7728 59.8513C71.1593 60.6469 73.347 62.8346 74.1426 65.8178C74.9381 68.801 73.7448 72.5798 71.756 74.1708C70.3638 75.3641 68.5739 75.563 66.7839 75.563C62.8063 75.563 58.6298 74.1708 54.6522 72.5798C53.26 72.182 51.8678 71.5853 50.6745 70.5909C49.4813 69.5965 48.4868 68.2044 48.288 66.6133C48.0891 64.2267 49.2824 61.8402 51.0723 60.6469C54.0555 58.658 57.0387 57.8625 60.2209 57.8625C63.0052 58.0614 66.3862 59.0558 68.7728 59.8513Z" fill="#6BBF7F"/>
<path d="M67.1822 61.4424C68.9721 62.0391 70.7621 63.829 71.3587 66.0167C71.9554 68.4033 71.1598 71.1876 69.3699 72.5798C68.1766 73.3753 66.7844 73.7731 65.5912 73.7731C62.409 73.7731 59.2269 72.5798 56.0448 71.5854C55.0504 71.1876 53.8571 70.7899 53.0616 69.9943C52.0672 69.1988 51.2717 68.2044 51.2717 66.8122C51.0728 65.0223 52.0672 63.2324 53.4594 62.238C55.846 60.6469 58.2325 60.0503 60.6191 60.0503C62.6079 59.8514 65.1934 60.6469 67.1822 61.4424Z" fill="#7ED693"/>
<path d="M68.1762 61.6413C68.1762 61.6413 64.7953 68.6022 58.6299 69.3977C52.4646 70.1932 52.4646 60.448 52.4646 60.448C52.4646 60.448 61.2154 65.8178 68.1762 61.6413Z" fill="#E8CCAA"/>
<path d="M73.6108 51.9798C73.6359 45.0599 68.0466 39.4299 61.1267 39.4049C54.2068 39.3798 48.5768 44.9691 48.5517 51.889C48.5267 58.8089 54.116 64.4389 61.0359 64.4639C67.9558 64.489 73.5857 58.8997 73.6108 51.9798Z" fill="#A67A65"/>
<path opacity="0.48" d="M71.5572 55.476C71.5572 55.476 67.3807 64.4256 59.6243 65.4201C51.8679 66.4145 51.8679 54.0838 51.8679 54.0838C51.8679 54.0838 63.0053 60.8458 71.5572 55.476Z" fill="#A67A65"/>
<path d="M72.9511 51.096C72.9753 44.3958 67.5634 38.9445 60.8632 38.9203C54.1631 38.896 48.7118 44.3079 48.6875 51.0081C48.6632 57.7083 54.0751 63.1595 60.7753 63.1838C67.4755 63.2081 72.9268 57.7962 72.9511 51.096Z" fill="#E5A98C"/>
<path d="M72.9621 50.624C72.9856 44.1435 67.9292 38.8716 61.6684 38.8489C55.4075 38.8262 50.3131 44.0613 50.2896 50.5418C50.2661 57.0223 55.3225 62.2942 61.5833 62.3169C67.8442 62.3396 72.9386 57.1045 72.9621 50.624Z" fill="#E8CCAA"/>
<path d="M66.834 52.274C66.8511 47.5509 63.1252 43.7086 58.5119 43.6918C53.8987 43.6751 50.145 47.4904 50.1279 52.2135C50.1108 56.9366 53.8367 60.7789 58.45 60.7957C63.0632 60.8124 66.8168 56.9971 66.834 52.274Z" fill="#FAEACF"/>
<path d="M52.5779 50.6781C52.5787 50.4584 52.4903 50.28 52.3805 50.2796C52.2706 50.2792 52.1809 50.457 52.1802 50.6766C52.1794 50.8963 52.2678 51.0747 52.3776 51.0751C52.4874 51.0755 52.5771 50.8978 52.5779 50.6781Z" fill="white"/>
<path d="M59.4254 40.9576C59.4254 40.9576 69.9661 41.952 70.9605 49.5095C71.9549 57.067 72.7505 63.829 79.1147 65.4201C79.1147 65.4201 76.3303 62.8346 77.5236 60.448C78.7169 58.0614 85.4789 37.1789 71.3583 33.599C57.2377 30.0191 59.4254 40.9576 59.4254 40.9576Z" fill="#B29A34"/>
<path d="M60.221 41.9521C60.221 41.9521 67.7785 44.1398 68.7729 51.1006C69.7673 58.0615 70.364 64.0279 76.1315 65.4201C76.1315 65.4201 73.7449 63.0335 74.7394 61.0447C75.7338 59.0559 81.8991 39.9633 69.1707 36.5823C56.4422 33.2013 60.221 41.9521 60.221 41.9521Z" fill="#B29A34"/>
<path d="M59.4254 41.5543C59.4254 41.5543 69.1706 43.5431 69.9661 50.5039C70.7616 57.4648 71.5571 63.4312 77.3247 64.8234C77.3247 64.8234 74.9381 62.4368 75.9325 60.448C76.9269 58.4592 83.0923 39.3666 70.3638 35.9856C57.6354 32.6046 59.4254 41.5543 59.4254 41.5543Z" fill="#E8E26B"/>
<path d="M62.4087 40.5599C62.4087 40.5599 51.868 37.7755 49.2825 42.5487C46.6971 47.3218 45.9016 47.7196 46.2993 54.0838C46.2993 54.0838 43.9127 47.9185 44.1116 44.9353C44.3105 41.952 47.4926 32.2069 54.8512 32.008C62.2098 31.8091 65.1931 35.389 64.7953 36.3834C64.3975 37.5767 62.4087 40.5599 62.4087 40.5599V40.5599Z" fill="#B29A34"/>
<path d="M64 42.3498C64 42.3498 53.4593 39.5654 50.8739 44.3386C48.2884 49.1117 47.4929 49.5095 47.8906 55.8737C47.8906 55.8737 45.5041 49.7084 45.7029 46.7252C45.9018 43.7419 49.0839 33.9967 56.4425 33.7979C63.8012 33.599 66.7844 37.1789 66.3866 38.1733C65.9889 39.3665 64 42.3498 64 42.3498V42.3498Z" fill="#E8E26B"/>
<path d="M65.3922 38.7699C65.3922 38.7699 74.3418 38.3722 75.1374 44.7364C75.9329 51.1006 74.5407 55.8738 74.5407 55.8738C74.5407 55.8738 74.9385 49.1118 73.1486 46.9241C71.3586 44.7364 67.1821 43.1453 65.7899 41.7532C64.3978 40.5599 65.3922 38.7699 65.3922 38.7699Z" fill="#F7F1A9"/>
<path d="M45.7023 49.3107L48.4866 55.8738L48.2878 58.0615C48.2878 58.0615 45.5034 53.0894 45.5034 52.095C45.5034 51.2995 45.7023 49.3107 45.7023 49.3107Z" fill="#B29A34"/>
</g>
<defs>
<clipPath id="clip0_130_736">
<rect width="80" height="80" fill="white"/>
</clipPath>
</defs>
</svg>
