<svg xmlns="http://www.w3.org/2000/svg" viewBox="0 0 32 32"><g fill="#474747"><path d="M4.1 2.1L2.4 8.8l25.9 8.5 1.6-6.4z"/><path d="M8.9 22.8L4.1 3.4C3.5 1.2 6.2-.4 7.9.1l19.2 5.7c2.7.8 4.1 4.9 1.6 6.8L12.4 24.9c-1.2.9-3.1-.3-3.5-2.1z"/><path d="M7 30L2.4 11c-.6-2.3.7-4.5 2.4-4l21.1 6.2c2.9.9 3.3 4.6.9 6.5L11.3 31.6c-1.2.9-3.8.2-4.3-1.6z"/></g><g fill="#949494"><path d="M8.1 27.7L4 10.8c-.5-2 .7-4 2.2-3.5l18.6 5.5c2.6.8 2.9 4.1.8 5.8L11.2 29.5c-1 .8-2.7-.2-3.1-1.8z"/><path d="M24.6 11.1l3.7-.5-1.6 6.4L3.9 9.4l1.5-5.8z"/></g><path d="M9.5 22.1L5.4 5.2c-.5-2 .5-4.1 2.6-3.5l18.2 5.5c2.6.8 2.9 4.1.8 5.8L12.7 23.9c-1.1.8-2.8-.2-3.2-1.8z" fill="#fff"/><linearGradient id="A" gradientUnits="userSpaceOnUse" x1="10.9793" y1="24.5385" x2="18.1105" y2="3.5815"><stop offset="0" stop-color="#cfcfcf"/><stop offset="1" stop-color="#dedede"/></linearGradient><path d="M10.1 21.1l-3.9-16c-.5-1.9.6-3.8 2-3.3L25.8 7c2.4.7 2.8 3.9.7 5.5L13 22.8c-1 .7-2.6-.2-2.9-1.7z" fill="url(#A)"/><path d="M21.9 5.8l2.4 8.7 2.9-2.2-1.9-5.5zm-6.8-2l4.1 14.7 2.8-2.3L19 5z" fill="#fff"/><linearGradient id="B" gradientUnits="userSpaceOnUse" x1="4.2354" y1="6.8489" x2="6.1808" y2="13.1969"><stop offset="0" stop-color="#474747"/><stop offset="1" stop-color="#474747" stop-opacity="0"/></linearGradient><path d="M2.9 9l2 7.5 2.5-3.1-2-8.4s-.2-1.1.1-1.9L2.9 9z" fill="url(#B)"/><linearGradient id="C" gradientUnits="userSpaceOnUse" x1="29.0547" y1="13.1314" x2="22.8347" y2="18.8139"><stop offset="0" stop-color="#474747"/><stop offset="1" stop-color="#474747" stop-opacity="0"/></linearGradient><path d="M21.2 17.4l-.8 6L27 18l1.7-7.7s-.6 1.2-1.2 2c0 0-.6.7-1.3 1.1l-5 4z" fill="url(#C)"/><path d="M11.4 23.8l-1.2 5.9s-.9-.2-1.3-.7l1.6-6.1.9.9z" opacity=".2" fill="#fff"/></svg>