<svg xmlns="http://www.w3.org/2000/svg" viewBox="0 0 32 32"><g fill="#374a54"><path d="M20.6 23.8h-.4c-2.4-.1-4.7-1.1-6.4-3-1.7-1.8-2.6-4.1-2.6-6.5.1-4.6 3.7-8.1 8.2-8.1h.3c1.6.1 3.2.5 4.6 1.4l1.5-1-1.6-.2-.2-2.7 7 .5.4 6.6-2.6-.1-.3-2.1-1.5 1.5c1 1.4 1.6 3 1.7 4.7.2 2.4-.6 4.6-2.2 6.3-1.4 1.8-3.5 2.7-5.9 2.7zM19.6 9c-3 0-5.4 2.4-5.4 5.4 0 3.3 2.7 6.1 6 6.2h.2c1.5 0 3-.6 4-1.7s1.5-2.5 1.4-4.1c-.2-3.1-2.9-5.8-6-5.9 0 .1-.1.1-.2.1z"/><path d="M24.5 4.2l6.2.4.3 5 .1.9-1.9-.1-.3-2.4-2.2 2.2c1 1.3 1.7 3 1.8 4.8.3 4.7-3.2 8.5-7.9 8.5h-.3c-4.9-.2-8.8-4.4-8.7-9.1.1-4.4 3.6-7.8 7.9-7.8h.3c1.7.1 3.2.6 4.6 1.5l2.5-1.7-2.2-.2-.2-2M20.4 21c3.4 0 5.9-2.7 5.7-6.1-.2-3.3-3-6.1-6.3-6.2h-.2c-3.2 0-5.8 2.5-5.8 5.7 0 3.4 2.8 6.4 6.3 6.6h.3m3.4-17.5l.1.7.1 2v.5l.5.1h.4l-.6.4c-1.4-.8-3-1.3-4.5-1.4h-.3c-4.7 0-8.5 3.7-8.6 8.4 0 2.5.9 4.9 2.7 6.7 1.8 1.9 4.1 3 6.6 3.1h.4c2.4 0 4.7-1 6.3-2.7s2.4-4.1 2.3-6.5c-.1-1.7-.7-3.3-1.6-4.7l.6-.6.4.9.1.5h.6l1.9.1h.7l.1-1.4-.6-5.1v-.6h-.6l-6.2-.4h-.8zm-3.4 16.9h-.2c-3.1-.1-5.7-2.8-5.7-5.9 0-2.8 2.2-5.1 5.1-5.1h.2c3 .1 5.5 2.6 5.7 5.6.1 1.5-.4 2.8-1.4 3.8-.9 1-2.2 1.6-3.7 1.6h0z"/><path d="M15.6 30.6c-4 0-7.5-2.6-8.8-6.5-.6-1.7-.7-3.5-.3-5.2l-1.8-1.3.4 1.7-2.7 1-2-7 6.7-2.2.9 2.4-2 .8 2.2 1c1-1.4 2.4-2.4 4-2.9.8-.3 1.8-.4 2.8-.4 3.7 0 7.1 2.3 8.6 5.8 1 2.4 1 5.1 0 7.4-.9 2.2-2.7 3.9-4.9 4.8-.9.4-2 .6-3.1.6zm-.5-15.7c-.7 0-1.3.1-1.9.3-3 1.1-4.6 4.6-3.5 7.8.9 2.6 3.3 4.3 5.9 4.3.7 0 1.4-.1 2.1-.4 1.5-.6 2.6-1.7 3.2-3.1.7-1.5.7-3.4 0-4.9-1-2.4-3.4-4-5.8-4z"/><path d="M6.9 11.5l.7 1.8-2.4 1 3.1 1.4c1-1.4 2.3-2.4 4-3 .9-.3 1.8-.5 2.8-.5 3.5 0 6.8 2.1 8.3 5.6 2 4.6 0 10-4.6 11.8-1 .4-2 .6-3 .6-3.7 0-7.2-2.5-8.5-6.3-.6-1.8-.6-3.6-.2-5.2l-2.7-1.9.6 2.3-2.1.8-1.8-6.3 5.8-2.1m8.6 16.1c.7 0 1.5-.1 2.2-.4 3.3-1.3 4.8-5.1 3.4-8.5-1.1-2.6-3.5-4.2-6.1-4.2-.7 0-1.4.1-2 .4-3.2 1.1-4.9 4.8-3.7 8.2 1 2.8 3.6 4.5 6.2 4.5M7.3 10.7l-.6.2-6.1 2-.6.2.2.6 2 7 .7-.3 2.1-.7.5-.2.1-.7.6.2c-.3 1.7-.2 3.5.3 5.1.7 2 1.9 3.7 3.6 4.9 1.6 1.2 3.6 1.8 5.6 1.8 1.1 0 2.2-.2 3.3-.6 2.3-.9 4.1-2.6 5-4.9 1-2.4 1-5.2 0-7.7-.8-1.8-2-3.3-3.7-4.4-1.6-1.1-3.4-1.6-5.3-1.6-1 0-2 .2-3 .5-1.6.6-2.9 1.5-4 2.8l-1.3-.6 1-.4.6-.2-.2-.6-.7-1.8-.1-.6zM15.5 27c-2.5 0-4.7-1.6-5.6-4.1-1.1-3 .4-6.3 3.3-7.3.6-.2 1.2-.3 1.8-.3 2.3 0 4.5 1.5 5.5 3.8.6 1.5.6 3.2 0 4.7-.6 1.4-1.7 2.4-3 2.9-.6.2-1.3.3-2 .3h0z"/><path d="M20.8 22.1h-.4C18 22 15.7 21 14 19.2s-2.6-4-2.5-6.4c.1-4.5 3.7-8 8.2-8h.3c1.6.1 3.2.5 4.5 1.4l1.5-1-1.4-.2-.2-2.6 6.8.4.4 6.5-2.6-.1-.3-2-1.5 1.5c1 1.4 1.6 3 1.7 4.6.2 2.3-.6 4.5-2.2 6.2-1.4 1.7-3.6 2.6-5.9 2.6zm-.9-14.6c-3 0-5.4 2.3-5.4 5.3 0 3.3 2.6 6 5.9 6.1h.2c1.5 0 2.9-.6 4-1.7 1-1.1 1.5-2.5 1.4-4-.2-3.1-2.8-5.7-5.9-5.8-.1.1-.2.1-.2.1z"/><path d="M24.7 2.7l6.2.4.4 5.9-1.9-.1-.4-2.4-2.2 2.2c1 1.3 1.7 2.9 1.8 4.7.3 4.6-3.2 8.4-7.9 8.4h-.3c-4.8-.2-8.7-4.3-8.6-9 .1-4.4 3.6-7.7 7.9-7.7h.3c1.7.1 3.2.6 4.5 1.5L27 5l-2.2-.2-.1-2.1m-4.1 16.6c3.4 0 5.9-2.7 5.7-6s-3-6-6.3-6.1h-.2c-3.2 0-5.7 2.5-5.8 5.7 0 3.4 2.8 6.3 6.2 6.5.2-.1.3-.1.4-.1M24 2l-.2 1.5.4 1.2v.6l.6.1h.4l-.6.4c-1.4-.8-2.9-1.3-4.5-1.3h-.3c-4.7 0-8.5 3.7-8.6 8.3 0 2.4.9 4.8 2.6 6.6 1.8 1.8 4.1 2.9 6.6 3h.4c2.4 0 4.7-.9 6.3-2.7 1.6-1.7 2.4-4 2.3-6.4-.1-1.6-.6-3.2-1.6-4.6l.8-.8.1 1.1.1.6h.6l1.9.1h.7V9l-.4-6v-.6H31L24.8 2H24zm-3.4 16.7h-.2c-3.1-.1-5.6-2.7-5.6-5.8 0-2.8 2.3-5 5.1-5h.2c2.9.1 5.5 2.6 5.6 5.5.1 1.4-.4 2.8-1.4 3.8-.9.9-2.2 1.5-3.7 1.5h0z"/><path d="M16.7 28.4c-3.9 0-7.5-2.6-8.8-6.4-.6-1.7-.7-3.4-.3-5.1l-1.7-1.3.4 1.6-2.7 1-2-6.8 6.6-2.2.8 2.5-2 .8 2.1 1c1-1.3 2.4-2.3 3.9-2.9.9-.3 1.9-.5 2.9-.5 3.7 0 7 2.2 8.6 5.7 1 2.3 1.1 5 .1 7.3-.9 2.2-2.6 3.8-4.8 4.7-1 .4-2 .6-3.1.6zM16.1 13c-.7 0-1.3.1-1.9.3-3 1.1-4.5 4.5-3.4 7.6.9 2.5 3.2 4.2 5.8 4.2.7 0 1.4-.1 2-.4 1.4-.5 2.6-1.6 3.2-3.1s.6-3.3 0-4.8c-.9-2.3-3.3-3.8-5.7-3.8z"/><path d="M8 9.7l.7 1.8-2.4 1 3.1 1.4c.9-1.3 2.3-2.4 3.9-3 .9-.3 1.8-.5 2.7-.5 3.4 0 6.8 2.1 8.3 5.5 2 4.5 0 9.8-4.5 11.5-1 .4-2 .6-3 .6-3.7 0-7.2-2.4-8.5-6.2-.6-1.7-.6-3.5-.2-5.1l-2.7-1.9L6 17l-2.1.8L2 11.7l6-2m8.6 15.8c.7 0 1.4-.1 2.2-.4 3.3-1.2 4.7-5 3.3-8.3-1.1-2.5-3.5-4.1-6-4.1-.7 0-1.4.1-2 .3-3.1 1.1-4.8 4.7-3.6 8 1 2.7 3.5 4.5 6.1 4.5M8.4 8.9l-7.2 2.4L0 13.1 3.2 18l.2.7.7-.2 2.1-.8.6-.2-.1-.6-.1-.5.7.6c-.3 1.7-.2 3.4.4 5 .7 2 1.9 3.6 3.6 4.8 1.6 1.2 3.5 1.8 5.5 1.8 1.1 0 2.2-.2 3.2-.6 2.3-.9 4-2.6 5-4.9 1-2.4 1-5.1-.1-7.6-.8-1.8-2-3.3-3.6-4.3s-3.4-1.6-5.2-1.6c-1 0-2 .2-3 .5-1.5.5-2.9 1.5-3.9 2.8L8 12.3l1-.4.6-.2-.2-.6-.8-1.6-.2-.6zm8.2 15.9c-2.5 0-4.7-1.6-5.5-4-1.1-3 .4-6.2 3.2-7.2.6-.2 1.2-.3 1.8-.3 2.3 0 4.5 1.5 5.4 3.7.6 1.5.6 3.1 0 4.6-.6 1.3-1.6 2.4-3 2.9-.6.2-1.2.3-1.9.3h0z"/></g><g fill="#96d0ea"><path d="M24.7 2.7l.1 2 2.2.2-2.5 1.6C23.2 5.6 21.6 5.1 20 5c-4.4-.2-8.1 3.2-8.2 7.7-.1 4.7 3.8 8.8 8.6 9s8.5-3.7 8.2-8.4c-.1-1.8-.8-3.4-1.8-4.7L29 6.5l.3 2.4 2 .1-.4-5.9-6.2-.4zm-4.3 16.6c-3.5-.1-6.3-3.1-6.2-6.5 0-3.3 2.7-5.8 6-5.7s6.1 2.8 6.3 6.1c0 3.5-2.7 6.2-6.1 6.1z"/><path d="M3.8 17.9l2.1-.8-.6-2.2L8 16.8c-.4 1.6-.4 3.4.2 5.1 1.7 4.8 6.9 7.4 11.5 5.6 4.5-1.7 6.5-7 4.5-11.5-1.9-4.3-6.8-6.5-11-5.1-1.6.6-3 1.6-3.9 3l-3.1-1.4 2.4-1L8 9.7l-6 2 1.8 6.2zm18.3-1.2c1.4 3.3-.1 7.1-3.3 8.3-3.3 1.3-7.1-.6-8.3-4-1.2-3.3.4-6.9 3.6-8 3.1-1.1 6.7.5 8 3.7z"/></g><path d="M6.3 12.5l1-.5-.6-1.9L2 11.7l1.8 6.2 2.1-.8-.6-2.2L8 16.8c-.4 1.6-.4 3.4.2 5.1.7 1.9 1.9 3.5 3.4 4.6l-4-13.3-1.3-.7z" fill="#ff97fe"/><path d="M8 9.7l-1.2.4.5 1.9h.1l1.2-.5zm9.7 15.7c-3 .5-6.1-1.3-7.2-4.3-.9-2.5-.2-5.1 1.5-6.7.4 2.5 2 4.8 4.2 6.1l-1.6-5.2c-.2-.4-.3-.8-.4-1.2l-1.5-4.9c-.4.7-.7 1.5-.8 2.3-1.1.6-2 1.4-2.6 2.4l-1.6-.7h-.1l4 13.3s.1 0 .1.1c1.9 1.3 4.3 1.9 6.6 1.4l-.6-2.6z" fill="#b9baff"/><g fill="#68ff6a"><path d="M14.8 15.7l1.4 4.8c1.2.7 2.6 1.2 4.2 1.2.6 0 1.2 0 1.8-.1l-.7-2.4c-.4.1-.7.1-1.1.1-2.5-.1-4.5-1.5-5.6-3.6zm5.1-1.8L19 11c-1.4-.5-2.9-.7-4.4-.4.6-1.4 1.8-2.5 3.3-3l-.6-2.1c-1.9.6-3.5 1.9-4.5 3.7v.1l1.5 4.9c0-.1-.1-.6-.1-.8v-.3c1.9-.8 4-.4 5.7.8z"/><path d="M14.8 15.7c-.1-.2-.2-.3-.2-.5l1.6 5.2s.1 0 .1.1l-1.5-4.8zm7.4 6c-.6 1.5-1.8 2.8-3.4 3.4-.3.1-.7.2-1.1.3h0-.1l.8 2.5h.1c.4-.1.8-.2 1.2-.4 1.4-.6 2.6-1.5 3.5-2.6l-1-3.2z"/></g><path d="M22.5 5.6c-.8-.3-1.6-.4-2.5-.5-.9 0-1.8.1-2.7.3h-.1l.6 2.1h.1c.6-.2 1.3-.3 2.1-.3 1.2 0 2.3.4 3.2 1l-.7-2.6zm3.2 10.6c-.3.5-.6.9-1 1.3-.1-.5-.3-1.1-.5-1.6-1-2.3-2.9-4-5.1-4.9h0l-.2-.1.9 2.9s.1 0 .1.1c.9.7 1.7 1.6 2.2 2.8.3.7.5 1.5.5 2.2-.3.1-.7.2-1.1.3h-.1l.7 2.4 1 3.3.1-.1c.9-1.2 1.5-2.7 1.7-4.3.6-.4 1.2-.9 1.7-1.4l-.9-2.9z" fill="#d9d900"/><path d="M24.7 2.7l.2 2 2.1.2-.6-2.1z" fill="#ffb750"/><path d="M25.7 16.2l.9 3v-.1l-.9-2.9z" fill="#ff9700"/><path d="M28.6 13.4c-.1-1.8-.8-3.4-1.8-4.7L28 7.5 27 5l-2.5 1.6c-.6-.4-1.3-.7-2-1h-.1l.8 2.7h.1c1.7 1.1 2.8 2.9 2.9 5 .1 1-.2 2-.6 2.8l.9 3c1.5-1.5 2.3-3.5 2.1-5.7z" fill="#ffb750"/><path d="M30.9 3.3v-.2l-4.4-.3h-.1l.6 2.1.9 2.8v-.1L29 6.5l.4 2.4 1.9.1z" fill="#ffa7a7"/><g fill="#ffe3e3"><path d="M25.3 3.1l5.2.3.3 5h-.9l-.4-3.9-4-.4z"/><path d="M28.6 4.1h0c0 .1-4 3.1-4 3.1l.7.8 4.4-3.7-1.1-.2z"/></g><path d="M12.9 11s3.9-7.8 12.3-3.1l.2-.8s-3.6-2.5-7.6-1.5-4.9 5.4-4.9 5.4z" fill="#fff"/><g fill="#374a54"><path d="M11.5 11.8s2-1.5 5-1.4l.7-.7s-2.7-.8-5.3.8l-.4 1.3zm-.4 3.6s1.6-2.9 5.1-2.7l-.2 1.8s-2.5.4-4.3 2l-.6-1.1z"/><path d="M22 19.1s3-.4 4-3.6l-.9.6s-1.6 1.6-4 1.4l.9 1.6zm-.9 2.7s3.4-.2 5.3-2.3l-.2 2s-1 2.8-6.3 1.9l1.2-1.6z" opacity=".77"/></g><path d="M13.1 16.2l1.1-.7s.7 3.1 5.4 4.2c0 0-5 0-6.5-3.5z" fill="#7dc0d8"/><g fill="#ffdeff"><path d="M2.6 11.9l5-1.6.5 1-3.6 1.3.7 4-1.2.5z"/><path d="M4.4 12l5.8 2.9-.9 1.2-5.4-3.2z"/></g><path d="M21.3 23.9s1.6.1 2.3-.1c0 0-2.8 3.1-7 2.4 0 0 3.6-.4 4.7-2.3z" fill="#7dc0d8"/><path d="M10.2 14.9s-3.2 8.8 5 11.3c0 0-8.7-.4-6.1-11l1.1-.3z" fill="#ffdeff"/><path d="M10.1 15.3s3.5-7 12.3-1c0 0-2-3.4-6.6-3.2-5.5.2-6.8 4.4-6.8 4.4l1.1-.2z" fill="#d4f4ff"/><path d="M23.6 7.1s5.3 2.8 2.5 11.3c0 0 3.8-4.5-.6-11.2l-1.9-.1z" fill="#ffe3e3"/></svg>