<svg xmlns="http://www.w3.org/2000/svg" viewBox="0 0 32 32"><path d="M31 29.6L1.4 32l.3-29.3L21.8 0l6.9 5.9z" fill="#395259"/><path d="M29.2 27.1L2.9 29.2l.2-25.5L21 1.4 27.5 7z" fill="#8ec0d4"/><path d="M2.9 19.1l25.8 2.7.6 5.1-26.4 2.3z" fill="#78a2b3"/><path d="M26 15.2L4.7 17.4V5.1L21.4 3l3.9 3.4z" fill="#fff"/><path d="M7.9 26.8c-.6-.3-1-.7-1.3-1.3s-.5-1.2-.5-1.9.2-1.3.5-1.9.7-1.1 1.3-1.5c.5-.4 1.1-.6 1.8-.7.9-.1 1.7.2 2.5.8l-.8 1c-.5-.4-1-.6-1.6-.5-.4 0-.8.2-1.2.4-.4.3-.6.6-.8 1s-.3.8-.3 1.3.1.9.3 1.2c.2.4.5.7.9.9s.8.3 1.2.2c.5 0 1-.3 1.4-.6v-1.4l-1.4.1v-1.3l2.5-.2.1 3.3v.1c-.7.8-1.5 1.2-2.5 1.3-.9.1-1.5 0-2.1-.3zm7.3-7.7l1.2-.1.3 7.5-1.2.1-.3-7.5zm4.4-.4l4.4-.4.1 1.3-3.3.3.1 1.8 2.9-.3.1 1.3-2.9.3.2 3.2H20l-.4-7.5z" fill="#395259" stroke="#395259" stroke-width=".7511" stroke-miterlimit="10"/><path d="M8.5 26c-.5-.3-1-.7-1.3-1.2s-.5-1.1-.5-1.8.1-1.3.4-1.9.7-1.1 1.2-1.4c.5-.4 1.1-.6 1.7-.7.9-.1 1.7.2 2.4.8l-.8.9c-.4-.4-1-.6-1.6-.5-.4 0-.8.2-1.1.4s-.6.6-.8 1-.3.8-.3 1.3c0 .4.1.9.3 1.2.2.4.5.6.8.8.4.2.7.3 1.2.2.5 0 1-.2 1.4-.6v-1.4l-1.4.1V22l2.4-.2.1 3.2v.1c-.7.8-1.5 1.2-2.4 1.3-.6 0-1.2-.1-1.7-.4zm7-7.5l1.1-.1.3 7.3-1.2.1-.2-7.3zm4.3-.4l4.3-.4.1 1.2-3.2.3.1 1.8 2.8-.3.1 1.2-2.8.3.2 3.1-1.2.1-.4-7.3z" fill="#fff"/><path d="M10.2 11.2l1.8 2.7-1.1.1-1.3-2-1.3 2.3-1.1.1 1.7-3.1-1.8-2.7 1.1-.1 1.3 2 1.3-2.3 1.1-.2-1.7 3.2zm5.8-.7l1.9 2.8-1.2.1-1.4-2-1.3 2.3-1.2.1 1.7-3.1L12.6 8l1.1-.1 1.4 2 1.3-2.3 1.2-.1-1.6 3zm5.9-.7l2.1 2.8-1.2.1-1.5-2.1L20 13l-1.2.1 1.7-3.2-2-2.7 1.2-.1 1.5 2 1.2-2.4 1.2-.1-1.7 3.2z" stroke-miterlimit="10" fill="#aa3549" stroke="#aa3549" stroke-width=".3755"/><path d="M27.5 7l-5.7.7-.8-6.3z" fill="#78a2b3"/><path d="M27.6 8.4l-7.1.8V1.5l.5-.1.9 6.2 5.6-.6z" fill="#395259"/><path d="M22.1 3.7l.5 2.9h3.1z" opacity=".25" fill="#fff"/></svg>