<svg xmlns="http://www.w3.org/2000/svg" viewBox="0 0 32 32"><path d="M3.5 15.4S-.3 12.2 2.3 7L6 9l-2.5 6.4zM19 5.9s-.8 5.4 3.8 7.6 3.3 7.9 2.4 12.9c0 0 12.2-10.8 1.3-22.3 0 0-7.4.7-7.5 1.8z" fill="#993a6e"/><path d="M2.5 11.1s-.6 16.4 7.2 19.7c8.2 3.4 16.6 1.4 19.7-17.7 0 0-1.8-8.2-11.4-8.1C9 5 2.4 9.4 2.5 11.1z" fill="#bc7458"/><path d="M3.2 11.4s-.5 15.2 6.7 18.2c7.6 3.2 15.4 1.3 18.2-16.4 0 0-1.7-7.6-10.5-7.5-8.3.1-14.4 4.2-14.4 5.7z" fill="#e5a98c"/><path d="M3.5 12.1S3 25.8 9.8 28.5c7 2.8 14.2 1.1 16.9-14.8 0 0-1.6-6.8-9.7-6.8-7.9.2-13.6 3.8-13.5 5.2z" fill="#e8ccaa"/><path d="M3.7 13s-.5 12.8 5.7 15.3c6.4 2.6 13 1 15.4-13.8 0 0-1.4-6.3-8.8-6.3-7.2.1-12.4 3.5-12.3 4.8z" fill="#faeacf"/><path d="M2.6 11.4s1.7 2.8 5.9 1.8 14.9-8.6 14.9-8.6-4.9-4-13.6-1.2c-4.5 1.4-7 6.8-7.2 8z" fill="#993a6e"/><g fill="#d8649e"><path d="M10 6.3c-1.2.9-2.6 4-4 5.5-1.3 1.4-3.6.6-3.9-1.3C1.8 8.4 0 5.2 2.7.1c0 0 4.6-.8 7.8 3.1.7 1 .5 2.4-.5 3.1zm11.9.7c1.3.8 3.2 1.9 4.7 3.2 1.5 1.2 3.7.2 3.7-1.7 0-2.1-.4-4.9-1.9-8.5 0 0-4.7-.3-7.3 4-.6 1-.3 2.4.8 3z"/><path d="M3.3 12.2S5 15 9.2 14s14.9-8.6 14.9-8.6-4.9-4-13.6-1.2c-4.6 1.4-7 6.8-7.2 8z"/><path d="M18 5.6s-.8 5.4 3.8 7.6 4.5 7.4 3.7 12.3c0 0 9.7-11.7 0-21.8-.1.1-7.4.9-7.5 1.9z"/></g><path d="M22.7 6.6c1 .6 2.4 1.4 3.5 2.4 1.1.8 2.8.1 2.8-1.3 0-1.6-.3-3.7-1.4-6.3 0 0-3.5-.2-5.5 3-.4.7-.2 1.7.6 2.2z" fill="#ffd4f7"/><path d="M23 7c.7.4 1.7 1.1 2.5 1.8s1.9.1 1.9-.9c0-1.1-.2-2.7-1-4.7 0 0-2.5-.2-3.8 2.1-.4.6-.2 1.4.4 1.7z" fill="#bf6a93"/><path d="M9 6c-.9.6-2.1 1.6-3.1 2.6-.9 1-2.6.4-2.8-.9-.2-1.5-.1-3.5.6-6.2 0 0 3.3-.6 5.6 2.2.6.7.4 1.7-.3 2.3z" fill="#ffd4f7"/><path d="M8.9 6.5c-.6.5-1.5 1.2-2.2 2s-1.9.4-2.1-.6c-.1-1.2 0-2.8.5-4.8 0 0 2.4-.5 4 1.7.5.5.4 1.3-.2 1.7z" fill="#bf6a93"/><path d="M6.5 11.4c.6-.2 1.3-.4 2.3-.4 1.9.1 3.3 1.4 3.2 3l-.4 2.7c-.3 1.3-1.5 2.2-3 2.3h-.1c-1.6.1-3.1-.9-3.4-2.2-.2-.8-.4-1.8-.4-2.8-.1-1.1.6-2.1 1.8-2.6z" fill="#3c505b"/><path d="M6.6 12.3c.6-.3 1.3-.5 2.2-.5 1.8.1 3.1 1.6 3 3.4l-.4 3c-.3 1.4-1.4 2.5-2.9 2.6h-.1c-1.5.1-2.9-1-3.3-2.5-.2-.9-.4-2-.4-3.1.2-1.3.8-2.4 1.9-2.9z" fill="#fff"/><path d="M11.1 15.2c-.5-1.8-1.8-2.8-3-2.3-1.3.5-2.2 2.6-1.9 4.8.3 2.4 1.9 3.7 3.4 2.8s2-3.3 1.5-5.3z" fill="#d8649e"/><path d="M10.6 14.8c-.4-1.3-1.4-2-2.3-1.7-1 .4-1.7 1.9-1.4 3.5.3 1.8 1.5 2.7 2.6 2.1 1-.6 1.5-2.4 1.1-3.9z" fill="#3c505b"/><path d="M9.2 15.3c-.2-.6-.8-.9-1.3-.7-.6.2-.9.8-.8 1.5s.8 1.2 1.5.9c.5-.3.8-1.1.6-1.7z" fill="#fff"/><path d="M22.1 12.7c-.6-.3-1.3-.6-2.3-.6-1.8-.1-3.4 1.1-3.4 2.7l.1 2.7c.2 1.3 1.3 2.3 2.8 2.6h.1c1.6.2 3.1-.6 3.6-1.9.3-.8.5-1.7.7-2.8.1-1-.5-2.1-1.6-2.7z" fill="#3c505b"/><path d="M21.9 13.5c-.6-.3-1.3-.6-2.1-.7-1.8-.1-3.2 1.3-3.3 3.1l.1 3c.1 1.4 1.2 2.6 2.6 2.8h.1c1.5.2 3-.7 3.4-2.2.3-.8.5-1.9.7-3.1.1-1.1-.5-2.3-1.5-2.9z" fill="#fff"/><path d="M17.2 16.1c.6-1.8 2-2.6 3.2-2s1.9 2.8 1.5 4.9c-.5 2.3-2.2 3.5-3.6 2.5-1.5-1.1-1.8-3.5-1.1-5.4z" fill="#d8649e"/><path d="M17.8 15.7c.5-1.3 1.5-1.9 2.4-1.5 1 .5 1.5 2 1.1 3.6-.4 1.7-1.7 2.6-2.8 1.8-1-.7-1.3-2.5-.7-3.9z" fill="#3c505b"/><path d="M19.1 16.3c.3-.5.8-.8 1.3-.6s.9.9.7 1.5c-.2.7-.9 1.1-1.5.7-.6-.2-.8-1-.5-1.6z" fill="#fff"/><path d="M7.2 9.8s5.1-7 10.4-4.3c0 0 1 2-1.9 3.2S7.2 9.8 7.2 9.8zm14.4-1.7s4.5 1.5 5.7 3.3 1.3 4.2.4 6.9c0 0-.3-2.1-1.1-3.8s-2.8-5.6-5-6.4z" fill="#ea7db8"/></svg>