<svg xmlns="http://www.w3.org/2000/svg" viewBox="0 0 32 32" shape-rendering="geometricPrecision"><style>#A{animation:e592l2m2rsf310_f_p 2000ms linear infinite normal forwards}@keyframes e592l2m2rsf310_f_p{0%{fill:rgb(81,200,110)}50%{fill:rgb(233,125,54)}98%{fill:rgb(81,200,110)}100%{fill:rgb(81,200,110)}}</style><path d="M17.6 19.4c.5 0 5.6.1 9.3 5.7 1 1.6.5 3.7-1.1 4.5-3.6 1.7-10 4-17.4-.1-1.5-.9-2.2-3.3-1.2-4.8 1.7-2.3 4.9-5.4 10.4-5.3-.1 0 0 0 0 0z" fill="#4a6370"/><path d="M17.5 20.7c.4 0 4.8.1 8 4.5.9 1.2.4 3-1 3.6-3 1.4-8.7 2.9-15-.3-1.3-.7-1.7-2.4-.9-3.6 1.5-1.9 4.2-4.3 8.9-4.2z" fill="#a2b6ba"/><path d="M17.5 20.9c.4 0 3.9.1 6.5 3.7.7 1 .3 2.4-.8 2.9-2.5 1.1-7.1 2.4-12.2-.2-1.1-.6-1.4-1.9-.7-2.9 1.1-1.6 3.3-3.6 7.2-3.5-.1 0 0 0 0 0z" fill="#87999b"/><circle r="13.4" fill="#4a6370" cx="16.70000038147" cy="13.30000038147"/><circle r="11.9" fill="#a2b6ba" cx="16.70000038147" cy="12.90000038147"/><circle r="11" fill="#cbdee4" cx="17.2" cy="11.9"/><circle r="3.196649" fill="#4a6370" cx="23.563661785265" cy="8.269087620626"/><circle id="A" r="2.098886" fill="#51c86e" cx="23.563661848346" cy="8.371810785592"/><path d="M14.5 7.6s.6-4.3 3.8-6c.4-.3.3-.6-.1-.6h-.6c-.5 0-4.1.2-5.4 6.8l2.3-.2z" fill="#a2b6ba"/><ellipse rx="7.6" ry="7.1" transform="matrix(.0036230000000299994 -1 1 .0036230000000299994 13.66593510000045 14.48733350000048)" fill="#4a6370"/><ellipse rx="5.8" ry="5.4" transform="matrix(.0036230000000299994 -1 1 .0036230000000299994 13.86335970000046 14.15224660000047)" fill="#3587c4"/><ellipse rx="4.8" ry="4.5" transform="matrix(.0036230000000299994 -1 1 .0036230000000299994 13.88165970000046 13.93562200000046)" fill="#4da3ec"/><circle transform="matrix(.0036230000000299994 -1 1 .0036230000000299994 15.0732073000005 11.73975140000039)" fill="#fff" r="1.3"/><path d="M16.95692 3.797482c.41776-.41776.83552-.91907 1.420383-1.33683.167104-.167104.41776-.250656.668416-.167104.584864.167104 1.587487.501312 2.840766 1.25328.668416.41776.334208 1.503935-.41776 1.420383-1.086175-.083552-2.339454-.083552-3.84339.083552-.751968.167103-1.169727-.668416-.668416-1.25328z" fill="#e1f0f4"/></svg>