<svg xmlns="http://www.w3.org/2000/svg" viewBox="0 0 32 32"><path d="M8.1 24.5c.6 4.6 12.5.9 10.4 2.8-2.9 2.7-6.5 4.4-6.5 4.4-.4.2-2-.7-3.2-1.9h0c-1.5-1.5-2.9-3.1-2.6-3.5 0 0 1.8-2.2 1.9-1.8z" fill="#72143f"/><path d="M15 16.2s-3.9.3-5.6-2.1c-.4-.7-1.1-1.4-1.1-2.2.1-.3.2-.7.1-1.2-.2-1.3-1.9-2-3-2.1-.8.1-1.4.6-1.5 1.3-.1.1-.1.3-.1.6v.5c.4 2.8 1.6 7.4 5.2 10.5 6.6 5.4 6-5.3 6-5.3z" fill="#962050"/><path d="M13.3 17.2s-3.5-.6-5.3-2.3c-.4-.4-.8-1.8-.8-2.3.1-.2.1-.5.1-.8-.1-.8-.8-1.6-1.6-1.6-.5 0-.9.3-1 .8-.1.1-.1.2 0 .4v.4c.3 1.9 1.4 7.1 7 10.6 4.9 2.9 1.6-5.2 1.6-5.2z" fill="#db529d"/><path d="M7.4 25s4.7-5 6.1-16.9c.4-3.8 5.1-8.7 10.3-6.3h0c5.6 2.6 6.6 10.8 4.1 14.3-5.5 7.8-11 14.5-15.5 14l-5-5.1z" fill="#72143f"/><path d="M7.7 26.2s5.6-6.2 7-18.2c.4-2.9 4.3-7 8.3-5.2h0c4.2 2 5.6 9 3.7 11.8-4.1 6.3-11.5 16.2-14.9 15.8l-4.1-4.2z" fill="#f45ba7"/><path d="M8.4 25.4c2.3 4 5.9 4.1 5.9 4.1l-2.5 1.2c-.3.2-1.8-.5-2.8-1.5h0c-1.2-1.2-1.9-2.3-1.7-2.7.1 0 .9-1.4 1.1-1.1z" fill="#d6d6d6"/><path d="M22.5 11.1s1.4-5.3 2.9-4.5c1.6.8 3 4.6 1.8 7.4C26 16.7 17 29 13.3 29.9c0 0-.7-.3 1.2-2.5 2.1-2.4 7.8-12.3 8-16.3z" fill="#d15298"/><path d="M25.6 16.5s-3.5-.9-3.8-.3.8 1.7.9 2.4c0 .6-.7 2.4-.7 2.4l3.6-4.5zM21 22.3s-5.7-4.6-1.1 1.2l1.1-1.2zm-1.7 1.8s-5.6-4.5-1 1.2l1-1.2zm-1.6 1.8s-5.4-4.4-.9 1.1l.9-1.1zm-1.6 1.7s-5.3-4.3-.9 1.1l.9-1.1z" fill="#c44b8e"/><path d="M7.1 12.2c.1.8-.3 1.3-.8 1.3-.6 0-1.1-.7-1.2-1.4-.1-.8.2-1.4.8-1.3.5 0 1.1.6 1.2 1.4z" fill="#f45ba7"/><g fill="#ff7bca"><ellipse transform="matrix(.5 -.866 .866 .5 3.9022 22.5322)" cx="21.5" cy="7.9" rx="2.6" ry="4.1"/><ellipse transform="matrix(.5 -.866 .866 .5 3.6736 22.1472)" cx="21" cy="7.9" rx="4.7" ry="5.7"/></g><ellipse transform="matrix(.5 -.866 .866 .5 5.4942 22.0567)" cx="21.8" cy="6.3" rx="1.3" ry="3.1" fill="#ffaee2"/><path d="M5.9 15.8s1.5 2.4 3.9 3l-.5 1.7s-2.7-2.6-3.4-4.7z" fill="#c44b8e"/><path d="M11.2 29.7l1.2-.5 1.7.5-2.2 1.1c0 0-1.8-.3-.7-1.1" fill="#afa1a7"/><path d="M5 15.3s2.9 5.1 5.5 5.9l-.8 1c0 0-3.7-2.3-4.7-6.9z" fill="#72143f"/><path d="M8.8 19.3l2-2.8.7.2s-1.2 3.6-1.7 4.3c.1 0-1.7-.6-1-1.7z" fill="#c44b8e"/></svg>