<svg xmlns="http://www.w3.org/2000/svg" viewBox="0 0 32 32"  xmlns:v="https://vecta.io/nano"><g fill="#14425b"><path d="M25.5 3.2l2.7 2.2 2.3 5.3L4.2 26.1l-2.9-5.7 14.6-13z"/><path d="M31.3 17.1c-1.5 8.7-11.1 15-19.6 13.7-6.9-1-10.1-6.9-8.4-12.9 1.6-5.8 7.6-11.2 14.4-12.4 8.1-1.4 15 3.4 13.6 11.6z"/><path d="M26.2 3.5l2.6 3 2.1 5.2L4.6 26.2l-3-5.2z"/><path d="M31.1 16.6c-1.5 8.7-11.1 15-19.6 13.7-6.9-1-10.1-6.9-8.4-12.9C4.7 11.6 10.6 6.2 17.4 5c8.2-1.5 15.1 3.4 13.7 11.6z"/><path d="M29.4 12.7c-1.5 8.9-11.2 15.2-19.8 13.9-7-1.1-10.3-7-8.6-13.2C2.6 7.4 8.7 2 15.5.8c8.3-1.5 15.3 3.5 13.9 11.9z"/></g><g fill="#0b6d84"><path d="M29.8 16.3c-1.3 8-10.1 13.8-17.8 12.6-6.2-.9-9.1-6.3-7.6-11.8 1.5-5.3 6.9-10.2 13-11.3 7.4-1.4 13.7 3 12.4 10.5z"/><path d="M28.7 14.7c-1.3 8.2-10.2 14-17.9 12.8-6.3-1-9.3-6.5-7.8-12.1C4.4 10 9.9 5 16.1 3.9c7.5-1.3 13.8 3.2 12.6 10.8z"/></g><path d="M28.2 12.9c-1.3 8.2-10.2 14-17.9 12.8-6.3-1-9.3-6.5-7.8-12.1C3.9 8.2 9.4 3.2 15.6 2.1 23.1.8 29.4 5.3 28.2 12.9z" fill="#00adf2"/><path d="M26.1 12.4c-1.1 6.8-8.5 11.7-15 10.7-5.3-.8-7.7-5.4-6.4-10.2 1.2-4.5 5.8-8.6 10.9-9.5 6.2-1.2 11.5 2.6 10.5 9z" fill="#43bbef"/><path d="M28.3 5.8l.5 4.9 1.2 1.8.5-1.7z" fill="#14425b"/><g fill="#0b6d84"><path d="M20.5 12.6l.2-1.1c.4-2.3-1.3-3.9-3.9-3.8h0-.4c-2.5.2-5 2-5.6 4.3l-.3 1c-.3.3-1 .8-1.1 1.3L9 15.5c-.4 1.4-.2 2.9.7 3.8.6.6 1.6 1.1 3.1 1.1h1.7c1.6 0 2.8-.6 3.8-1.3 1.4-1.1 2.3-2.6 2.6-4l.2-1.2c.1-.5-.3-1.1-.6-1.3zm-4.4-3.3h.3c1.7-.1 2.8 1 2.5 2.6l-.2.8-6.6.3.2-.8c.5-1.5 2.1-2.8 3.8-2.9zM15 17.2l-.3 1.3c-.1.3-.4.6-.7.6s-.5-.2-.5-.6l.3-1.3c-.6-.2-.8-.7-.7-1.4.2-.8 1.1-1.5 2-1.6.9 0 1.5.6 1.3 1.4-.1.7-.7 1.3-1.4 1.6z"/><path d="M21.2 12.3l.2-1.1c.3-2.2-1.4-3.9-3.9-3.7h0-.4c-2.5.2-5 2-5.6 4.3l-.3 1c-.3.3-1 .8-1.1 1.3l-.4 1.2c-.4 1.4-.2 2.9.7 3.8.6.6 1.6 1.1 3.1 1.1h1.7c1.6 0 2.8-.6 3.8-1.3 1.4-1.1 2.3-2.6 2.6-4l.2-1.2c0-.6-.4-1.1-.6-1.4zm-4.5-3.2h.3c1.7-.1 2.8 1 2.5 2.6l-.2.8-6.6.3.3-.8c.4-1.6 2-2.8 3.7-2.9zm-1 7.8l-.3 1.3c-.1.3-.4.6-.7.6s-.5-.2-.5-.6l.3-1.3c-.6-.2-.8-.7-.7-1.4.2-.8 1.1-1.5 2-1.6.9 0 1.5.6 1.3 1.4s-.8 1.4-1.4 1.6z"/></g><path d="M20.1 11.9l.2-1c.4-2.2-1.3-3.8-3.7-3.6h0-.4c-2.4.1-4.8 1.9-5.4 4.1l-.3 1c-.3.3-.9.8-1 1.2L9 14.7c-.4 1.4-.2 2.8.6 3.7.6.6 1.5 1.1 3 1h1.7c1.5 0 2.7-.6 3.6-1.3 1.4-1 2.3-2.5 2.5-3.9l.2-1.2c.1-.4-.3-.9-.5-1.1zm-4.3-3.1h.3c1.6-.1 2.7 1 2.4 2.4l-.2.8-6.3.3.2-.8c.4-1.4 2-2.6 3.6-2.7zm-1 7.5l-.3 1.2c-.1.3-.4.6-.7.6s-.5-.2-.4-.5l.3-1.2c-.5-.2-.8-.7-.6-1.3.2-.8 1-1.5 1.9-1.5.8 0 1.4.6 1.2 1.4-.2.5-.8 1.1-1.4 1.3z" fill="#f6f6f6"/><path d="M25.9 12c.5-5.1-3.5-8.5-8.9-8.2-5.2.4-10.6 4.3-12.3 9.3-2 5.6 1.2 10.7 7.7 10.6 6.7-.2 12.9-5.8 13.5-11.7z" fill="none" stroke="#f6f6f6" stroke-width=".9591" stroke-miterlimit="10"/><path d="M28.5 11.9l-.4-3.3s1.4 2.3 1.7 3.7L28.3 16l.2-4.1z" fill="#0b6d84"/></svg>