<svg xmlns="http://www.w3.org/2000/svg" viewBox="0 0 32 32"><path d="M26.9 27L19.3 2.2 0 4.2 4.2 31z" fill="#524666"/><path d="M25.9 26L19.8 1.2 0 4.1l5 25.8z" fill="#a2b2bc"/><path d="M24.5 25.3L18.9 2.2 1.5 4.7l4.6 24z" fill="#edf3f7"/><path d="M4.7 7.2l.2 2.1 13.2-2.1-.3-1.9zm.9 4.3l.2 2L19 11.4l-.4-1.8zm.6 3.8l.2 2.1 13.2-2.1-.4-1.9z" fill="#a2b2bc"/><path d="M31.7 10.3c-.8.9-3.2-.9-5.6-3.1s-4.4-4.7-3.6-5.6 4 .3 6.4 2.5 3.6 5.4 2.8 6.2z" fill="#7d4545"/><path d="M14.4 16.3l-4-3.6 11-10.2 3.3 3.1z" fill="#ad7741"/><path d="M18.5 19.4l-3.6-3.2 6.2-6.6 3.2 3z" fill="#524666"/><path d="M22.2 23.2l-3.8-3.4 9.4-11.2 3.1 3z" fill="#ad7741"/><path d="M27.9 15.6L17.3 6.4l5-4.7c.6-.6 1.7-.4 2.4.3l6.5 6.3c.7.7.9 1.7.4 2.4l-3.7 4.9z" fill="#7d4545"/><path d="M22.2 23.2L10.3 12.7l-.8 8.4-.6 4.1c0 .2.1.5.3.8.2.2.5.3.8.2l4.3-1.3 7.9-1.7z" fill="#a2b2bc"/><path d="M15.2 16.1l-3.3-2.9 6.3-6 2.9 2.7z" fill="#ffcb00"/><path d="M11.5 24.3l-.9-.7 1.2-10.2 9.5 8.6z" fill="#ffefcd"/><path d="M18.5 19l-3.3-2.9 5.9-6.2 2.9 2.7z" fill="#ffb100"/><path d="M21.6 21.9L18.5 19l5.5-6.4 2.9 2.4z" fill="#ff9a00"/><path d="M26.8 15.2l-8.6-8 4-3.9c.6-.6 1.7-.5 2.4.3l5.1 4.9c.7.7 1.1 1.3.6 2l-3.5 4.7z" fill="#dc7d79"/><path d="M11 20.7l3.4 2.9-3.1 1c-.2.1-.4 0-.6-.2h0c-.2-.2-.3-.4-.3-.6l.6-3.1z" fill="#524666"/><ellipse transform="matrix(.6631000000000001 -.7485 .7485 .6631000000000001 4.1385 22.1959)" cx="26.7" cy="6.5" rx="1.3" ry="5.2" fill="#dc7d79"/><path d="M27.1 13.8l.5.5-.6.6-.4-.6zm-8.3-7.3l.4.6-.6.6-.5-.6z" fill="#e2e2e2"/><path d="M19.4 5.8l.4.6-.6.6-.4-.5zm8.3 7.3l.5.6-.6.6-.5-.5z" fill="#7d4545"/><ellipse transform="matrix(.6631000000000001 -.7485 .7485 .6631000000000001 -7.5375 18.4321)" cx="16.7" cy="17.6" rx="1.6" ry="6.5" fill="#ffefcd"/><path d="M21.7 9.4l-1.8-1.7 3.2-3.1c.4-.4.9-.4 1.4-.2h0c.7.4.8 1.3.3 1.8l-3.1 3.2z" fill="#e7a3a2"/><path d="M26.2 13.6L24.4 12l2.8-3.4c.5-.6 1.3-.5 1.8.1h0c.3.4.3 1 0 1.3l-2.8 3.6z" fill="#bf6262"/><ellipse transform="matrix(.6631000000000001 -.7485 .7485 .6631000000000001 .6636 20.9857)" cx="23.6" cy="9.8" rx="1.5" ry="5.9" fill="#7d4545"/><ellipse transform="matrix(.6631000000000001 -.7485 .7485 .6631000000000001 -.02068071 20.862300000000005)" cx="23.2" cy="10.5" rx="1.5" ry="5.9" fill="#e2e2e2"/><path d="M13.1 20.9l2.4-5.3s-1.4-1.1-2.7-1.4l-1 6 1.3.7z" fill="#fff7e9"/><path d="M25 11.4l-1.8 2.1c1.8 1.3 3.3 1.9 3.7 1.5.5-.5-.3-1.9-1.9-3.6z" fill="#ff9a00"/><path d="M18.1 7.2c-.4.5.4 2 2.1 3.7l1.9-2.1c-1.9-1.4-3.5-2.1-4-1.6z" fill="#ffcb00"/><path d="M23.5 10l-1.4-1.2-1.9 2.1 1.4 1.3c.6.5 1.1 1 1.7 1.3l1.8-2.1-1.6-1.4z" fill="#ffb100"/><path d="M14.4 22.3l5.6-1.9s.9.5 1.3 1.7l-.3.4-6.2 1.5-.4-1.7z" opacity=".18" fill="#87785c"/><path d="M10.9 25.1l1.8 3L25 25.6l-1.3-4.4-1.5 2z" opacity=".45" fill="#a2b2bc"/><path d="M24.6 20.1l-2.4 3.1L11 25.8l11.8-1.7 2.4-1.7z" fill="#524666"/><path d="M27 11.9l3.3-4.2.9 2.2-3 3.8z" fill="#7d4545"/></svg>