<svg xmlns="http://www.w3.org/2000/svg" xmlns:xlink="http://www.w3.org/1999/xlink" viewBox="0 0 32 32"><path d="M.8 3.8l26.5-1.9 4 26.5-28.1 2.9z" fill="#fff"/><path d="M26.8 2.5l3.8 25.3-26.9 2.8L1.4 4.4l25.4-1.9m1-1.3l-1.1.1L1.4 3.1.1 3.2.2 4.5l2.3 26.3.1 1.2 1.3-.1L30.7 29l1.3-.1-.2-1.3L28 2.3l-.2-1.1z" fill="#95a39b"/><path d="M28.2 24.1L5.1 26.5 3.5 5.9l21.7-1.6z" fill="#96d0ea"/><defs><path id="A" d="M28.2 24.1L5.1 26.5 3.5 5.9l21.7-1.6z"/></defs><clipPath id="B"><use xlink:href="#A"/></clipPath><g clip-path="url(#B)"><g fill="#b83d68"><path d="M19.8 21.6c1.5.5 2.9 1.7 3.3 3.5.5 1.8-.2 3.9-1.6 5-.9.7-2 .8-3.1.8-2.5 0-5.1-.8-7.6-1.7-.8-.3-1.7-.6-2.4-1.2-.7-.5-1.4-1.4-1.5-2.4-.2-1.4.7-2.8 1.8-3.5 1.9-1.2 3.8-1.7 5.7-1.7 1.7.1 3.8.7 5.4 1.2z"/><path d="M20.1 19.8c1.6.6 3 2.2 3.5 4.5s-.2 5.1-1.6 6.4c-.9.9-2.1 1.1-3.2 1.1-2.7 0-5.4-1.1-8.1-2.2-.9-.4-1.8-.8-2.6-1.5S6.7 26.3 6.5 25c-.2-1.8.7-3.6 1.9-4.5 2-1.6 4-2.2 6.1-2.2 1.8.1 3.9.8 5.6 1.5z"/></g><circle transform="matrix(.003623492 -1 1 .003623492 -.98 30.625)" cx="14.9" cy="15.8" r="8.3" fill="#7f5c4e"/><path d="M19.5 20.5c1.4.5 2.7 1.7 3.2 3.5.4 1.8-.2 3.9-1.5 5-.8.7-1.9.8-2.9.8-2.4 0-4.8-.8-7.2-1.7-.8-.3-1.6-.6-2.3-1.1s-1.3-1.4-1.4-2.4c-.2-1.4.6-2.8 1.6-3.5 1.7-1.2 3.6-1.7 5.4-1.7 1.6 0 3.6.6 5.1 1.1z" fill="#db8cb1"/><path d="M18.5 21.4c1.1.4 2.1 1.4 2.5 2.7.4 1.4-.1 3.1-1.1 3.9-.7.5-1.5.7-2.3.7-1.9 0-3.7-.7-5.6-1.3-.6-.2-1.3-.5-1.8-.9-.6-.4-1-1.1-1.1-1.9-.1-1.1.5-2.2 1.3-2.7 1.4-.9 2.8-1.3 4.2-1.3 1.2-.1 2.7.4 3.9.8z" fill="#e8a7c6"/><path d="M19 21.5s-2 4.1-5.7 4.6c-3.7.4-3.7-5.2-3.7-5.2s5.4 3.1 9.4.6z" fill="#e8ccaa"/><g fill="#a67a65"><circle transform="matrix(.003623492 -1 1 .003623492 -.98 30.625)" cx="14.9" cy="15.8" r="7.4"/><path d="M21.1 17.9s-2.5 5.3-7.1 5.9S9.4 17 9.4 17s6.6 4.1 11.7.9z" opacity=".48"/></g><circle transform="matrix(.003623492 -1 1 .003623492 -.5471 29.9888)" cx="14.8" cy="15.3" r="7.2" fill="#e5a98c"/><ellipse transform="matrix(.003623492 -1 1 .003623492 .0443339 30.1819)" cx="15.2" cy="15.1" rx="6.9" ry="6.7" fill="#e8ccaa"/><ellipse transform="matrix(.003623492 -1 1 .003623492 -2.7445 29.2806)" cx="13.3" cy="16" rx="5" ry="4.9" fill="#faeacf"/><g fill="#b29a34"><path d="M17.7 10.4s-.7 3-5.2 3.5-6.1 3.3-6.1 3.3-.8-4.2 1.9-5.8 6.1-3.5 9.4-1z"/><path d="M13.9 9.3s6.3.5 6.8 5 1.1 8.5 4.8 9.4c0 0-1.6-1.6-1-2.9S29.3 7.1 21 5s-7.1 4.3-7.1 4.3z"/><path d="M14.4 10s4.5 1.3 5 5.4 1 7.7 4.4 8.5c0 0-1.5-1.4-.9-2.6s4.2-12.4-3.3-14.4-5.2 3.1-5.2 3.1z"/></g><path d="M13.9 9.7s5.7 1.2 6.2 5.2 1 7.7 4.4 8.5c0 0-1.5-1.4-.9-2.6s4.2-12.4-3.3-14.4-6.4 3.3-6.4 3.3z" fill="#e8e26b"/><path d="M15.6 9.1s-6.3-1.7-7.8 1.2-2 3.1-1.8 6.9c0 0-1.5-3.6-1.3-5.4.1-1.7 2-7.5 6.4-7.6s6.1 2 5.9 2.5c-.2.6-1.4 2.4-1.4 2.4z" fill="#b29a34"/><path d="M16.6 10.2s-6.3-1.7-7.8 1.2-2 3.1-1.8 6.9c0 0-1.5-3.6-1.3-5.4s2-7.5 6.4-7.6 6.1 2 5.9 2.5c-.2.6-1.4 2.4-1.4 2.4z" fill="#e8e26b"/><path d="M17.5 8.1s5.3-.3 5.8 3.5-.3 6.5-.3 6.5.2-4-.8-5.3-3.5-2.3-4.3-3c-1-.7-.4-1.7-.4-1.7z" fill="#f7f1a9"/><path d="M17.6 9.5s-.7 3-5.2 3.5-6.1 3.3-6.1 3.3-.8-4.3 2-5.9 6-3.4 9.3-.9z" fill="#e8e26b"/><path d="M7.6 12.5S8.4 7 12 6.7c3.6-.4 4.6 2.6 3.2 3.4s-6.6.9-7.6 2.4z" fill="#f7f1a9"/><g fill="#b29a34"><path d="M5.4 14.6l.6.4 1.5 3.1.2 1.8s-1.1-.7-2.2-4.6l-.1-.7z"/><path d="M7.4 15.2l-.3.1-.4 2.2.8.6.6-3z"/></g><ellipse transform="matrix(.003623492 -1 1 .003623492 -.08096456999999999 32.564)" cx="16.3" cy="16.3" rx=".9" ry=".8" fill="#425763"/><circle transform="matrix(.003623492 -1 1 .003623492 .362 32.3623)" cx="16.4" cy="16" r=".2" fill="#fff"/><ellipse transform="matrix(.003623492 -1 1 .003623492 -4.884399999999999 25.0249)" cx="10.1" cy="15" rx=".9" ry=".8" fill="#425763"/><circle transform="matrix(.003623492 -1 1 .003623492 -4.4414 24.8233)" cx="10.2" cy="14.6" r=".2" fill="#fff"/><path d="M14.6 20.2s-.8-.1-1.4-.5-1.1-.4-1.2-.4-.3-.2-.5-.3-.4-.1-.5 0c0 .1.2.5.2.5v.5c0 .2 0 .8.6.9s1 .1 1.3-.1 1.5-.6 1.5-.6z" fill="#a67a65"/></g></svg>