<svg xmlns="http://www.w3.org/2000/svg" viewBox="0 0 32 32"><path d="M12.4 11.3l-1.6 6 3 1.9 4.3-3.1zm-.7-8.4c6.4 0 11.7 5.2 11.7 11.7 0 2.3-.7 4.6-2 6.5l-.1.1c0 .1-.1.1-.1.2l2 2.2L26 21l2.6 2.9-2.9 2.6 1.8 3.8-2.1 1.7-2.2-2.6-3.2 2.3-2.6-2.9 2.9-2.6-1.8-2.1-.3.3c-.2.1-.4.3-.6.3-1.8 1-3.8 1.6-5.8 1.6C5.3 26.2 0 21 0 14.6S5.3 2.9 11.7 2.9zm0 19.8c4.5 0 8.2-3.7 8.2-8.2s-3.7-8.2-8.2-8.2-8.2 3.7-8.2 8.2c0 4.6 3.7 8.2 8.2 8.2z" fill="#754b68"/><path d="M13.9.5c6.5 0 11.8 5.3 11.8 11.8 0 2.4-.7 4.7-2 6.6l-.1.2 1.7 2 2.9-2.6 2.8 3.2-2.9 2.6 2.6 2.9-3.1 2.8-2.6-2.9-2.9 2.6-2.8-3.2 2.9-2.6-1.6-1.8-.2.1c-.2.1-.4.3-.6.3-1.8 1-3.8 1.6-5.9 1.6-6.5 0-11.8-5.3-11.8-11.8S7.4.5 13.9.5zm0 19.8c4.4 0 8-3.6 8-8s-3.6-8-8-8-8 3.6-8 8 3.6 8 8 8z" fill="#ea9fc6"/><path d="M27.6 29.5L25 26.6l-2.9 2.6-2.4-2.6 2.9-2.6-2.1-2.4-.3.3s-.1 0-.1.1c-.2.1-.4.2-.5.3-1.7 1-3.6 1.5-5.7 1.5-6.3 0-11.5-5.1-11.5-11.5S7.6.8 13.9.8s11.5 5.1 11.5 11.5c0 2.4-.7 4.6-2 6.4-.1.1-.2.2-.3.4l2.2 2.5 2.9-2.6 2.4 2.6-2.9 2.6 2.6 2.9-2.7 2.4M13.9 4c-4.6 0-8.4 3.7-8.4 8.4 0 4.6 3.7 8.4 8.4 8.4 4.6 0 8.4-3.7 8.4-8.4S18.5 4 13.9 4m13.7 26.5l.5-.5 2.6-2.4.5-.5-.5-.5-2.1-2.3 2.3-2.1.5-.5-.5-.5-2.4-2.6-.3-.6-.5.5-2.3 2.1-1.3-1.5c1.3-2 2.1-4.3 2.1-6.8C26.2 5.6 20.7.1 14 .1S1.7 5.6 1.7 12.3s5.5 12.2 12.2 12.2c2.1 0 4.2-.6 6.1-1.6.2-.1.3-.2.5-.3l1.2 1.3-2.4 2.1-2 2.8 2.1-.8 2.2 1.7.5.5.5-.5 2.3-2.1 2.1 2.3.6.6zM13.9 4.7c4.2 0 7.6 3.4 7.6 7.6s-3.4 7.6-7.6 7.6-7.6-3.4-7.6-7.6 3.4-7.6 7.6-7.6h0z" fill="#754b68"/><path d="M8.1 18.3S4.9 15.4 5.7 11l-3-1.2s-1.2 4 1.5 8.6l3.9-.1z" fill="#ea9fc6"/><path d="M28.8 21.8l-6.7 6.1-1.1-1.2 7.2-6.2 1.1 1.1zm-6.2-5.5c.1 0 .1.1.2.1.2.3.5.5.8.7 3-7.5-2.2-11.8-2.2-11.8 2.3 5 2 8.7 1.2 11zm-5.1 4.6c-9.1 3-13.3-4.2-13.7-4.7 4.5 8.5 11.1 7.5 14.7 6-.3-.4-.7-.8-1-1.3z" fill="#ffdcf0"/><g fill="#754b68"><path d="M24.3 19.2l-3.5-3.9-.5.9 3.6 3.7zm-2.8 3.4L18 18.8l-.5.9 3.6 3.7zM7.4 15l4.2 2.8s1.1-.5 1.5-1.7l-4-3.2c0 .1-1.4.8-1.7 2.1zm6.3-6.1l3.1 3.3s.9-.3 1.2-1.4l-2.9-3.5c-.1-.1-1.2.4-1.4 1.6zM8 11.6l4.7 3.8s1.1-.4 1.5-1.6L9.8 9.7c-.1 0-1.5.6-1.8 1.9zm2.2-2.1l4.2 3.9s1-.3 1.4-1.5l-3.9-4.2c-.1 0-1.4.5-1.7 1.8z"/><path d="M17 15.4l-2.3.8L14 15s1.4-2.2 4.6-3.5c0 0 1.2 1 1.8 2.4 0 0-.1 1.4-.7 2.5l.2.7 3.5 1.6-3.4 4.4-3-3.7s-1-.2-1.7-.1c-.8.1-1.4-.1-1.4-.1s-.9-1-.8-1.5l3.8-1.8.1-.5z"/></g><g fill="#ea9fc6"><path d="M8 14l4.2 2.8s1.1-.5 1.5-1.7l-4-3.2S8.3 12.7 8 14zm6.2-6.2l3.1 3.3s.9-.3 1.2-1.4l-2.9-3.5s-1.1.4-1.4 1.6zm-5.6 2.8l4.7 3.8s1.1-.4 1.5-1.6l-4.4-4.1c-.1-.1-1.5.6-1.8 1.9zm2.2-2.2l4.2 3.9s1-.3 1.4-1.5l-3.9-4.2c-.1 0-1.4.5-1.7 1.8z"/><path d="M17.6 14.4l-2.3.8-.7-1.2s1.4-2.2 4.6-3.5c0 0 1.2 1 1.8 2.4 0 0-.1 1.4-.7 2.5l.2.7 1.8 2.5-2.2 2.4-2.5-2.6s-1-.2-1.7-.1c-.8.1-1.4-.1-1.4-.1s-.9-1-.8-1.5l3.8-1.8.1-.5z"/><g stroke="#754b68" stroke-width=".8988" stroke-miterlimit="10"><path d="M8 14l4.2 2.8s1.1-.5 1.5-1.7l-4-3.2S8.3 12.7 8 14zm6.2-6.2l3.1 3.3s.9-.3 1.2-1.4l-2.9-3.5s-1.1.4-1.4 1.6zm-5.6 2.8l4.7 3.8s1.1-.4 1.5-1.6l-4.4-4.1c-.1-.1-1.5.6-1.8 1.9zm2.2-2.2l4.2 3.9s1-.3 1.4-1.5l-3.9-4.2c-.1 0-1.4.5-1.7 1.8z"/><path d="M17.6 14.4l-2.3.8-.7-1.2s1.4-2.2 4.6-3.5c0 0 1.2 1 1.8 2.4 0 0-.1 1.4-.7 2.5l.5.7 2.2 2.7-2.8 2.6-2.9-2.9s-.6-.2-1.3-.2c-.8.1-1.4-.1-1.4-.1s-.9-1-.8-1.5l3.8-1.8v-.5z"/></g><path d="M19.6 17.6V15l5.9 6.6-2.8 2.4-5.3-6.1z"/></g><path d="M28.8 26.9l-1.4 1-8.2-9.4.9-1zm-11.7-14l1.8-1.2.8 1.1-2.6.5zm-7.7 1l.5-.8 1.7 1.4-.5.5zm.4-3.3l.5-.8 1.6 1.5-.4.4zm2-2.3l.6-.7 1.5 1.6-.5.4zm3.3-.7l.4-.6 1.1 1.4-.4.3z" fill="#ffdcf0"/></svg>