<svg xmlns="http://www.w3.org/2000/svg" xmlns:xlink="http://www.w3.org/1999/xlink" viewBox="0 0 32 32"><style><![CDATA[.R{fill:#ffbc8f}.S{fill:#8e4028}.T{fill:#96172c}.U{fill:#ffdec7}.V{fill:#af1e30}.W{fill:#f49937}]]></style><g fill="#663021"><path d="M18 5.3l.8 2.5 1.2.7s-.2-2.9-1.8-3.6l-.2.4zm-9.9.2s-2.1 4.7.3 6.6l.5-3.5-.8-3.1z"/><path d="M24.1 4.8C23 2.6 20.3.4 17 .2c-1-.2-2.4-.1-4.1.4-6.1 1.6-5.1 7.9-5.1 7.9 1.1-1.6 3.3-2.7 7-2.6 1.6 0 2.9-.5 3.7-1.1 1 1.3 2.4 3.9 2.2 8.3 0 0 .2 1.8 2.9 1.9 0 0-.2-1.3.2-2.2.5-.9 1.5-5.7.3-8z"/><path d="M26.5 10.4c0 1.7-1.4 3-3.1 3s-3-1.3-2.9-2.9c0-1.6 1.3-2.9 3-3 1.6 0 3 1.3 3 2.9z"/><path d="M28.4 16.4c0 3-2.3 5.3-5 5.1-2.6-.2-4.6-2.5-4.6-5.3s2.1-5 4.7-5c2.6-.1 4.9 2.3 4.9 5.2zm-16-1.6c0 1.9-1.5 3.5-3.2 3.4-1.6-.1-2.9-1.6-2.9-3.5.1-1.8 1.4-3.3 3-3.4 1.8 0 3.2 1.6 3.1 3.5z"/><path d="M25.9 9.8c0 1.7-1.4 3-3.1 3-1.6 0-2.9-1.3-2.9-2.9s1.3-2.9 3-3c1.7 0 3.1 1.2 3 2.9zm-13.3 5.1c0 1.7-1.4 3.1-3 3-1.5-.1-2.7-1.5-2.7-3.1s1.3-3 2.8-3c1.6 0 2.9 1.4 2.9 3.1z"/><path d="M23.6 9.2c0 4.9-4 8.7-8.6 8.5-4.3-.2-7.4-3.8-7.3-8.1s3.4-8 7.6-8.3c4.5-.4 8.4 3.1 8.3 7.9z"/><path d="M23.2 8.6c-.1 4.7-3.9 8.4-8.3 8.3-4.1-.1-7.2-3.6-7.1-7.8.1-4.1 3.3-7.7 7.4-8.1 4.4-.5 8.1 2.9 8 7.6z"/><path d="M23.1 8.3c0 4.5-3.6 8.1-7.8 8-3.9-.1-6.8-3.5-6.6-7.5.1-3.9 2.3-7.4 7-7.8 4-.4 7.5 2.9 7.4 7.3z"/><path d="M18.8 9.6c-.1 3.2-2.5 5.7-5.4 5.7-2.8-.1-4.8-2.5-4.8-5.4.1-2.9 2.3-5.4 5-5.6 2.9-.3 5.3 2.1 5.2 5.3z"/><path d="M8.3 8.4s.3-1.1 2.7-1.3c2.5-.1 6.2 0 7.9-1.9l-.6-.5s-1.6 1-4.2 1.1c-2.5.1-5.6 1-5.8 1.2-.2.4 0 1.4 0 1.4zM18.7 11c0 .5-.3.9-.7.9s-.7-.4-.7-.9.3-.9.7-.9.8.4.7.9z"/><path d="M18.3 10.7c0 .1-.1.2-.2.2s-.2-.1-.2-.2.1-.2.2-.2.2.1.2.2zm-5.4 0c0 .5-.3.8-.7.9-.4 0-.6-.4-.6-.8 0-.5.3-.8.7-.9.3-.1.6.3.6.8z"/><path d="M12.5 10.4c0 .1-.1.2-.2.2s-.2-.1-.2-.2.1-.2.2-.2c.2 0 .2.1.2.2zm7.3-7.1s-1.4 3.1-5.1 3c-3.5-.1-5.9.7-6.9 2.2 0 0 .2-6 5.2-7.3 5.4-1.5 6.8 1.2 6.8 2.1z"/><path d="M17.4 4.3l.1.1c.5.5 3.1 3.2 2.8 8.9 0 0 .2 1.8 2.7 1.8 0 0-.2-1.3.2-2.1s1.4-5.4.3-7.7C22.4 3.1 19.7.8 16.4.8"/><path d="M20.1 10.2s1-.6 1.4-.2c.7.8.1 2-1.4 2.2v-2z"/><path d="M18.1 5.7s1.8 2 2 4.5c0 0-.2-3.7-1.8-4.9l-.2.4m-6.9-3s3.4-2.1 6.4-1.1c0 0 .9 1.1-1.4 1.5-2.2.4-2.1-.8-5-.4zm12.2 5.1s1.3 1.5.4 3c0 0 0 .6.4.7.4 0 1-.3.9-.8s.1-2.6-1.7-2.9z"/></g><g class="R"><path d="M6.9 19.4l8.1-4.5s6.7-2 8.2-.4 2.2 8.1 2.2 8.1-17.6-.3-18.5-3.2z"/><path d="M7.4 20.7l5.5-5.5s6.5-1 7.8.6 1.8 8.1 1.8 8.1-14.3-.3-15.1-3.2z"/></g><g class="T"><path d="M13.1 26.9s3.2-4.8 5.5-5.8 4.1-1.2 4.1-1.2 2.7 2.2 3.2 5.5-.9 5.4-4.1 6-8.2.8-8.7-4.5zm-.4 1.2s-3.8-6.6-7.8-7.3c0 0-4.5 10.8 6.7 9.5-.1-.1 1.2-.4 1.1-2.2z"/><path d="M12.2 26.5h1.1s.3 3.4 1.3 4.1c0 0-1.4-.6-3.2-.3.1-.1 1-2.8.8-3.8z"/></g><g class="S"><path d="M11.2 18.4s-4.7 1-5.6 2.4-3.9 10.5 7.4 8 .1-10.7-1.8-10.4z"/><path d="M16.1 19.1s-3.3 1.2-3.9 3.9c-.5 2.8 0 6.4 3.9 6.9s9.7.9 9.2-4-3.4-6.5-3.4-6.5l-5.8-.3z"/><path d="M17 19.1s-3.3 1.2-3.9 3.9 0 6.4 3.9 6.9 9.7.9 9.2-4-3.4-6.5-3.4-6.5l-5.8-.3z"/></g><path d="M13.4 26.1s3.2-4.8 5.5-5.8 4.1-1.2 4.1-1.2 2.7 2.2 3.2 5.5c.4 3.3-.9 5.4-4.1 6-3.3.6-8.2.9-8.7-4.5zm-.4 1.2S9.2 20.7 5.2 20c0 0-4.5 10.8 6.7 9.5-.1 0 1.2-.4 1.1-2.2z" class="T"/><g class="S"><path d="M12.5 25.7h1.1s.3 3.4 1.3 4.1c0 0-1.4-.6-3.2-.3.1 0 1-2.8.8-3.8zm-.1-6.9s1.2 1.3 1 2.2l.9-.9-1.9-1.3z"/><path d="M13.6 25.7s4.9-4.2 7.1-4.5 5.1 2.2 5.1 2.2L23 19.1s-5.6.2-9.4 6.6z"/></g><path d="M12.4 26.4s-1.7-5.5-7.5-6.4l-.2 1.9s5.3.3 7.7 4.5z" class="T"/><path d="M17.9 5.8l.7 2.2 1 .6s-.2-2.6-1.5-3.3l-.2.5z" fill="#d3674f"/><path d="M9.2 5.9s-1.8 4.3.2 6l.4-3.2-.6-2.8z" class="S"/><path d="M22.8 10.2c0 4.4-3.5 7.9-7.5 7.8-3.7-.1-6-3.5-5.9-7.4s2.5-7.2 6.2-7.5c3.9-.4 7.3 2.8 7.2 7.1z" fill="#e07d69"/><g class="S"><path d="M23.3 5.3c-1-2-3.4-4-6.2-4.1-1-.2-2.1-.1-3.6.3C8.1 3 9 8.7 9 8.7c.9-1.4 2.9-2.5 6.1-2.4 1.4 0 2.5-.5 3.3-1 .9 1.2 2.1 3.6 1.9 7.6 0 0 .2 1.7 2.5 1.7 0 0-.2-1.2.2-2 .4-.9 1.3-5.2.3-7.3z"/><path d="M25.3 10.4c0 1.5-1.2 2.8-2.7 2.8S20 12 20 10.6s1.2-2.7 2.6-2.7c1.5-.1 2.7 1 2.7 2.5z"/><path d="M27 15.9c0 2.7-2 4.8-4.4 4.6-2.3-.1-4-2.3-4-4.8s1.8-4.5 4.1-4.6c2.3 0 4.3 2.1 4.3 4.8zm-14-1.5c0 1.8-1.3 3.1-2.8 3.1-1.4-.1-2.5-1.5-2.5-3.1 0-1.7 1.2-3 2.7-3.1 1.5 0 2.7 1.4 2.6 3.1z"/><path d="M24.9 9.9c0 1.5-1.2 2.7-2.7 2.8-1.4 0-2.6-1.2-2.6-2.6s1.2-2.7 2.6-2.7c1.4-.2 2.7.9 2.7 2.5zm-11.8 4.6c0 1.6-1.2 2.8-2.6 2.8-1.3-.1-2.4-1.3-2.3-2.8 0-1.5 1.1-2.7 2.5-2.7 1.4-.1 2.5 1.1 2.4 2.7z"/><path d="M22.8 9.3c0 4.4-3.5 7.9-7.5 7.8-3.7-.1-6.5-3.5-6.4-7.4s3-7.2 6.7-7.6c3.9-.4 7.3 2.8 7.2 7.2z"/></g><g class="R"><path d="M22.5 8.7c0 4.3-3.4 7.7-7.3 7.5-3.6-.1-6.3-3.2-6.2-7 .1-3.7 2.9-7 6.5-7.3 3.8-.4 7 2.6 7 6.8z"/><path d="M22.4 8.5c0 4.1-3.2 7.3-6.8 7.2-3.4-.1-5.9-3.2-5.8-6.8.1-3.5 2-6.7 6.1-7.1 3.5-.3 6.5 2.7 6.5 6.7z"/></g><path d="M18.6 9.6c0 2.9-2.2 5.2-4.8 5.2-2.4 0-4.2-2.3-4.2-4.9.1-2.6 2-4.9 4.4-5.1 2.6-.2 4.7 2 4.6 4.8z" class="U"/><path d="M9.4 8.6s.2-1 2.3-1.1c2.2-.1 5.4 0 6.9-1.7l-.5-.5s-1.4.9-3.7 1c-2.2.1-4.9.9-5 1.1-.2.3 0 1.2 0 1.2z" class="R"/><path d="M18.8 10.9c0 .6-.4 1-.8 1s-.8-.4-.8-1c0-.5.4-1 .8-1s.8.4.8 1zm-6.5-.4c0 .5-.3 1-.7 1s-.7-.4-.7-.9.3-1 .7-1 .7.4.7.9z" fill="#663021"/><g class="S"><path d="M19.5 3.9s-1.2 2.8-4.4 2.7c-3.1 0-5.2.7-6.1 2 0 0 .2-5.5 4.5-6.7 4.7-1.2 6 1.2 6 2z"/><path d="M17.4 4.8s0 .1 0 0c.6.5 2.8 3 2.5 8.2 0 0 .2 1.6 2.3 1.6 0 0-.2-1.2.2-1.9.4-.8 1.2-4.9.3-7-.9-2-3.4-4.1-6.2-4.1"/></g><path d="M19.7 10.2s.8-.6 1.2-.2c.6.7.1 1.8-1.2 2v-1.8zM18 6.1s1.6 1.9 1.8 4c0 0-.1-3.3-1.6-4.5l-.2.5" class="R"/><path d="M11.9 3.5s3-1.9 5.6-1c0 0 .8 1-1.2 1.4-1.9.2-1.8-.9-4.4-.4z" fill="#a55038"/><path d="M22.6 8s1.1 1.4.3 2.8c0 0 0 .6.4.6s.9-.3.8-.7c0-.5.1-2.4-1.5-2.7z" class="S"/><g class="T"><use xlink:href="#B"/><use xlink:href="#C"/><path d="M12.4 26.4h1.1s.3 3.1 1.2 3.8c0 0-1.3-.6-3-.3 0 0 .9-2.6.7-3.5z"/></g><path d="M11.2 17.6S6.6 19 5.8 20.5s-3.4 10.4 7.3 7.7-.1-10.8-1.9-10.6z" class="U"/><path d="M15.6 18.7s-3.2 1.2-3.7 4.2 0 6.8 3.7 7.3 9.2 1 8.8-4.3c-.5-5.3-3.3-7-3.3-7l-5.5-.2z" class="V"/><path d="M16.5 18s-3 1.2-3.5 4.2 0 6.8 3.5 7.3 8.8 1 8.3-4.3c-.4-5.3-4.3-7-4.3-7l-4-.2z" class="R"/><path d="M17.3 18s-3 1.2-3.5 4.2c-.5 2.9 0 6.8 3.5 7.3s8.8 1 8.3-4.3c-.4-5.3-4.9-7.1-4.9-7.1l-3.4-.1z" class="U"/><g fill="#db2031"><use xlink:href="#B" x="0.3" y="-0.7"/><use xlink:href="#C" x="0.3" y="-0.7"/></g><path d="M12.6 25.7h1.1s.3 3.1 1.2 3.8c0 0-1.3-.6-3-.3.1 0 .9-2.5.7-3.5z" class="V"/><path d="M12.5 17.7s1.1 1.4.9 2.3l.9-1-1.8-1.3z" class="R"/><path d="M8.7 18.7s1-.7 2.1-.5 2.2 1.2 1.6 1.5c-.6.4-2.4 1.1-3.4.6-1.1-.4-1.2-1.2-.3-1.6z" fill="#ffedde"/><path d="M6.8 23.9s1.6 0 2.7 1 1.5 2.9.6 2.9-3.4-.7-4.2-1.9c-.7-1.3-.2-2.2.9-2zm10.6 1.4s.9-1.4 2.3-1.7 3.2.3 2.7 1.1c-.5.7-2.4 2.5-3.9 2.5s-1.9-1-1.1-1.9z" fill="#f4374e"/><path d="M16.6 18.9s.9-.6 1.8-.4c.9.1 1.8 1 1.3 1.3s-2 .9-2.8.5c-1-.4-1-1.1-.3-1.4z" fill="#ffedde"/><path d="M13.7 25.7s4.6-3.9 6.8-4.1 4.9 2.1 4.9 2.1l-2.8-4c0-.1-5.4.1-8.9 6zm-1.2.7s-1.6-5-7.1-5.9l-.2 1.7s5.1.3 7.3 4.2z" fill="#f4374e"/><path d="M27.8 23.3s-4.4-2.9-4.6-1.9c-.2.9 1.8 1.5 1.8 1.5s-.7 1.5-2.3 2.5c0 0-.9 1-.7 1.1.3.2 2.5-.8 2.5-.8s-2.5 1.6-2 1.9 2.7-.5 2.7-.5-1.5 1.2-1.1 1.6c.4.5 5.5-1.2 3.7-5.4z" class="V"/><path d="M28.4 22.6s-4.4-2.9-4.6-1.9c-.2.9 1.8 1.6 1.8 1.6s-.7 1.5-2.3 2.5c0 0-.9 1-.7 1.1.3.2 2.5-.8 2.5-.8s-2.5 1.6-2 1.9 2.7-.5 2.7-.5-1.5 1.2-1.1 1.6 5.4-1.3 3.7-5.5z" class="R"/><path d="M1.5 21.6s4.7-3.1 5-2.1-2 1.7-2 1.7.8 1.7 2.5 2.8c0 0 1 1.1.7 1.2-.3.2-2.7-.9-2.7-.9s2.7 1.8 2.2 2.1-2.9-.5-2.9-.5 1.6 1.3 1.2 1.7-5.9-1.5-4-6z" class="V"/><path d="M2.1 21.2s4.4-2.9 4.6-1.9c.2.9-1.8 1.6-1.8 1.6s.7 1.5 2.3 2.5c0 0 .9 1 .7 1.1s-2.5-.8-2.5-.8 2.5 1.6 2 1.9-2.7-.5-2.7-.5 1.5 1.2 1.1 1.6c-.4.5-5.5-1.3-3.7-5.5z" class="R"/><path d="M3.8 21s0 1.3.7 1.6 0 .8 0 .8.3-.1.2.4-.7.5-.9.6c-.1 0-.6.3-.9-.3s-1-2.1.9-3.1zm22.3 2s0 1.3-.7 1.6 0 .8 0 .8-.3-.1-.2.4c.2.5.8.6.9.6s.6.3.9-.3 1-2.1-.9-3.1z" class="U"/><g fill="#9a4c18"><path d="M18.1 29.1l-.3.5 1.7 1.2 9.8-9.7-1.6-2.1z"/><path d="M29.5 23.8c-.3 3.9-3.9 7.2-7.9 7.1-4 0-6.5-3.3-5.7-7.1.7-3.6 4.1-6.3 7.7-6.4 3.5.1 6.2 2.8 5.9 6.4z"/><path d="M30.5 25.1c-.3 3.7-3.8 6.8-7.8 6.8-3.9 0-6.3-3.2-5.6-6.8.7-3.4 4-6 7.5-6.1 3.6 0 6.2 2.6 5.9 6.1z"/></g><g class="W"><path d="M19.2 29.4l1.7.9 8-8.4-1.3-1.8z"/><use xlink:href="#D"/></g><path d="M28.7 23.8c-.3 3.4-3.4 6.2-6.9 6.2s-5.7-2.9-5-6.2c.6-3.1 3.6-5.6 6.7-5.6s5.5 2.4 5.2 5.6z" fill="#ffedc0"/><use xlink:href="#D" x="-1.5" y="-1" fill="#ffd766"/><path d="M27 24.1c-.3 2.4-2.5 4.5-5 4.5s-4.1-2-3.7-4.4c.4-2.3 2.6-4.1 4.9-4.1 2.3-.2 4 1.6 3.8 4z" fill="#ffedc0"/><path d="M27 23.5c-.3 2.4-2.5 4.4-5 4.4s-4.1-2-3.7-4.4c.4-2.3 2.6-4.1 4.9-4.1 2.4 0 4.1 1.7 3.8 4.1z" class="W"/><path d="M26.3 24.1c-.2 2-2.1 3.8-4.2 3.7-2.1 0-3.5-1.7-3.1-3.7.3-2 2.2-3.5 4.2-3.5 1.9-.1 3.3 1.5 3.1 3.5z" fill="#ffd766"/><path d="M23.6 20.2l.6 2.2 2.4.6-2.2 1.5-.2 2.6-2-1.5-2.6.9 1.1-2.4-1.3-1.9H22z" class="W"/><defs><path id="A" d="M28.7 23.8c-.3 3.4-3.4 6.2-6.9 6.2s-5.7-2.9-5-6.2c.6-3.1 3.6-5.6 6.7-5.6s5.5 2.4 5.2 5.6z"/><path id="B" d="M13.2 26.8s3-4.4 5.2-5.3 3.9-1.1 3.9-1.1 2.6 2 3 5.1-.8 5-3.9 5.5-7.7.7-8.2-4.2z"/><path id="C" d="M12.8 27.9s-3.6-6-7.4-6.7c0 0-4.3 9.9 6.3 8.7 0 0 1.2-.4 1.1-2z"/><path id="D" d="M29.7 25.1c-.3 3.2-3.2 5.8-6.5 5.8-3.2 0-5.3-2.7-4.7-5.8.6-2.9 3.4-5.2 6.3-5.3 3 0 5.2 2.3 4.9 5.3z"/></defs><clipPath ><use xlink:href="#A"/></clipPath></svg>