<svg xmlns="http://www.w3.org/2000/svg" xmlns:xlink="http://www.w3.org/1999/xlink" viewBox="0 0 32 32"><style><![CDATA[.R{fill:#9a4c18}.S{fill:#fad395}.T{fill:#e5895b}.U{fill:#f49937}.V{fill:#db7d1f}]]></style><path d="M14.1 20.7s-2.6.9-2.9 3.7l-.1 2s-1.4-.8-.8-2.9 2.2-2.4 3.8-2.8z" class="U"/><g fill="#ccc"><path d="M22.8 20.6c1.5.5 2.9 1.9 3.3 3.8.5 1.9-.2 4.3-1.5 5.4-.9.7-2 .9-3.1.9-2.5 0-5.1-.9-7.6-1.9-.8-.3-1.7-.6-2.5-1.2-.7-.6-1.4-1.5-1.5-2.6-.2-1.5.7-3 1.8-3.8 1.9-1.3 3.8-1.8 5.7-1.8 1.7 0 3.8.6 5.4 1.2z"/><path d="M22.3 21.9c1.3.4 2.6 1.6 3 3.1.4 1.6-.2 3.6-1.4 4.5-.8.6-1.8.8-2.8.8-2.3 0-4.6-.8-6.9-1.5-.8-.3-1.5-.5-2.2-1s-1.2-1.3-1.3-2.2c-.2-1.2.6-2.5 1.6-3.1 1.7-1.1 3.4-1.5 5.2-1.5 1.6-.1 3.4.4 4.8.9z"/></g><path d="M22.1 20.9c1.3.4 2.4 1.6 2.8 3.1.4 1.6-.2 3.6-1.3 4.5-.8.6-1.7.8-2.6.8-2.2 0-4.3-.8-6.5-1.5-.7-.3-1.5-.5-2.1-1s-1.2-1.3-1.3-2.2c-.1-1.2.6-2.5 1.5-3.1 1.6-1.1 3.2-1.5 4.9-1.5 1.5-.1 3.2.4 4.6.9z" fill="#fff"/><path d="M21.2 21.6s-3.6 1.5-6.3 5.7c0 0-1-3.6-.4-6.3 0 .1 3.7 1.7 6.7.6z" fill="#ccc"/><path d="M19.9 21.6s-2.7 1.1-4.7 4.3c0 0-.7-2.7-.3-4.7 0 0 2.8 1.2 5 .4z" fill="#faeacf"/><ellipse transform="matrix(.3085 -.9512000000000002 .9512000000000002 .3085 -9.8629 38.15)" cx="21.3" cy="25.9" rx="2.7" ry="1.8" opacity=".28" fill="#fff"/><path d="M14.9 20.4l-.3 1.3s3 1 5.1.7l1.8-.4-.2-1.2-6.4-.4z" class="S"/><g class="R"><path d="M20.2 4.5l.6-1.9-.4-.9L22.7 3l1.6 4.4-4.8-1zm-10.3 3s-1.3 1.9-.7 4.9l1.5-2.5-.6-2.6-.2.2zm2.6-3.4s-.1-1.2-1.1-2.3c0 0 1.8-.1 3.6.8l.1.9-1 1.7-1.6-1.1z"/><ellipse transform="matrix(.9903000000000001 -.139 .139 .9903000000000001 -1.6701 2.6096)" cx="17.9" cy="13.3" rx="8.7" ry="8.6"/></g><ellipse transform="matrix(.9903000000000001 -.139 .139 .9903000000000001 -1.6191 2.547)" cx="17.4" cy="12.9" rx="8.1" ry="8.3" class="T"/><ellipse transform="matrix(.9903000000000001 -.139 .139 .9903000000000001 -1.5697 2.4812)" cx="17" cy="12.5" rx="7.6" ry="7.8" class="S"/><path d="M21.5 9.4s2.1 0 2.7-.4 1.4-.4 1.5-1c0-.6-1.2-4-5.4-4.8l2.4 2.9-1.2 3.3zm-11.2-.5s-.8-1.1-.3-2.5S9.5 3 9.5 3l3.7.8s2.2.6 2 1.6-.9 2.7-1 2.8-.7 1.2-.7 1.2l-3.2-.5z" class="R"/><path d="M10.8 9.2s-.4-1.6.2-2.2c.6-.5-.2-2.8-.2-2.8l3.7.8s2.2.6 2 1.6-.9 2.7-1 2.8-.6.7-.6.7l-4.1-.9zm9.4 0s2.1 0 2.7-.4 1.4-.4 1.5-1c0-.6-1.2-4-5.4-4.8l2.4 3-1.2 3.2z" class="V"/><path d="M12.9 9.2s-1-.2-.6-2c.5-1.8 2.2-4.4 2.2-4.4L11.7.2s3.8-.8 6.9 1.9c0 0 3.6 1.8 3.7 3.1.2 1.3 1.7 3.6.4 4.4-1 .6-9.3 0-9.8-.4z" class="R"/><path d="M13.5 9.3s-.4-1.3 0-2.7c.3-1.4 1.9-3.6 1.9-3.6L14 .8s1.9-.2 4.3 1.8c0 0 2.7 1.4 2.9 2.3.1 1 0 4-.9 4.6s-6.5.2-6.8-.2z" class="U"/><path d="M15.3 8.7l.9-3.3-.4-3.5 2.3 3.5-.4 3.7s-1.8.2-2.4-.4z" fill="#fde049"/><path d="M23.8 5.9l-.2 2.3-1.8-.9.9 1.7 2.5-.6z" class="R"/><g class="V"><path d="M20.5 7.9l1.6.5 1.6-1.1-.2 1.3-.9.5-2.8.7zm-8-1.5l.2 1.7 1.4 1.5-.4-.1-1.9-.4-.6-1.5z"/><path d="M18.4 10.1l1.4-3.2-.6-3.1-.9-1.3s2 1 2.4 1.4 1.1 1.5 1 1.9-.7 3.6-.7 3.6l-.6.4c-.1 0-1.3.4-2 .3z"/></g><path d="M13 6.6l.5-.1s-.4 1.5.1 2.6c0 0-1.3-.3-1.1-2.3l.5-.2z" class="R"/><path d="M21.5 8.6s1.8-.8 1.5-2.2c0 0 .6 1.1.4 1.8-.2.6-1.4.5-1.4.5l-.5-.1z" class="V"/><path d="M13.7 9.9l1.2 1 4.5-1.5V7.9l-1.6 1.8-3.2-.3-1.2-.5z" class="U"/><path d="M20.1 9.7s.5.5.8.9l-.8 1.2s2.1-.2 2.4.6c.3.9.1 2 .1 2l3.4-.8s-.5-3.8-1.8-5.3L23 7.7l-1.3 1.1-1.6.9zm-8.5-.6L9.3 12s-.2-1.6.7-3.6l1.6.7z" class="V"/><g class="R"><path d="M25.9 14.6l-3.3-.2-.1-.4 3.7-1z"/><path d="M23.4 13.9l-.5-2s-1.5-.4-2.4-.4l-.5.1 1.4.5 1.2 2.2.8-.4z"/><path d="M21 11.7l.5-1.2-1.6-1.3-1.9 1.1 2.3-.3-.3 1.6z"/><path d="M19.7 9.8l-4.9 1.7-1.3-1.8 1.6.9 4.7-1.4z"/><path d="M14.9 11.3l-2.5-.2 2.1-.5zm-.8-1l-2.5-.2-2.3 2 1.7-3 2.6.5.4.6"/><path d="M19.8 9.4l3.7-.4.9 1.7-1.7 1.9-.7-.3zm-9 .8l2.7.9 1.2-.5-.5-.5-2.2-.3z"/></g><path d="M19.8 10.2l3.3-.9.7 1.2-2.6 2.1-1.8-.6z" class="S"/><path d="M14.9 19.2s4.6 0 6.8-1.9c0 0-.1 1.5-1 2.4 0 .1-2.8.5-5.8-.5z" fill="#fff" stroke="#9a4c18" stroke-width=".3654" stroke-miterlimit="10"/><path d="M23.2 12.6s-4.1-.8-7.2-.5c0 0-.4.3-.9.3-.5-.1-.9-.5-.9-.5-3.2-1-7.1-1-7.1-1s-.4-.1-.3.6.6.7.6.7.1 2.7 1.1 3.4c1 .8 3.6 1.5 4.5 1.6 1 .2 1.4-.1 1.6-.8.2-.6.2-1.7.3-2.3 0-.3.2-.4.3-.4h.2c.1 0 .3.2.4.5.2.6.4 1.7.7 2.4s.8 1.1 1.8 1.2c.9 0 3.5-.1 4.4-.7s.5-3.3.5-3.3.5.1.5-.6c-.1-.6-.5-.6-.5-.6z" fill="#4a4a4a"/><path d="M16.3 12.5s4.4-.2 7 .5v.3s-4.6-.8-7-.8z" fill="#6f6f6f"/><path d="M22.3 13.6c-.9-.2-3.5-.7-5.9-.3-.2 0-.3.2-.3.5.1.6.4 1.7.8 2.8.1.2.2.4.3.5.8-.7 3-2.6 5.1-3.4v-.1z" fill="#fff"/><path d="M22.4 13.6c-2.1.8-4.4 2.8-5.1 3.4.2.2.4.3.7.3 1.1.1 3.2.1 4.4-.7.1 0 .1-.1.1-.2.1-.3.4-1 .2-2.6-.1 0-.2-.1-.3-.2z" fill="#ccc"/><path d="M8.1 12.2c-.2 0-.3.2-.3.4.1 1.5.5 2.3.7 2.6 0 .1.1.1.1.2.2.2.4.3.7.5 1-.7 2.7-2 4.4-2.8-2.4-.9-4.8-1-5.6-.9z" fill="#fff"/><path d="M13.9 13.1c-.1 0-.2-.1-.3-.1-1.7.7-3.4 2-4.4 2.8 1.3.7 2.9 1 3.8 1.1.4.1.8-.2.9-.6.3-1 .3-2.1.3-2.7.1-.2 0-.4-.3-.5z" fill="#ccc"/><path d="M24 22.3s.5 1.2.8 4v2s1.4-.8.9-2.9-.9-2.3-1.7-3.1z" class="U"/><path d="M21.5 31.4c0-.1 0-.2-.1-.2.2-.5 0-1.2 0-1.2l-1.2-3.4c-.2-.8-.8-1.5-1.6-2l-.1-.8c0-.3-.3-.5-.6-.6l-1-.2-.3-.3c-.2-.1-.8 0-.9.1s-.4.6-.4.8l.1.5-3.9-.8c-.1-.1-.2-.2-.4-.3l-.2-.8c-.1-.3-.3-.5-.6-.6l-.9-.2-.3-.3c-.5-.1-1.4.2-1.3.7l.2.8c-.2.1-.3.2-.5.3-.2.2-.3.5-.4.8h0v.5l.2 3.2c0 .1 0 .9.7 1.6 0 0 0 .1.1.2.2.3.5.5 1 .7.6.2 1 .2 1.3.1h.1c.9-.1 1.1-.8 1.1-.8l.2-.5.3.1c.2.3.6.5.9.6s.5 0 .6-.1c.2 0 .4 0 .5-.1l.3.1c.2.4.6.7 1 .8.3.1.5 0 .6-.1.3.1.5 0 .7-.2l.3.5c.1.2.3.3.4.5.3.4 1.1 1.1 2 1.2h.8c.8 0 1.3-.2 1.3-.6z" fill="#4a0751"/><path d="M20.4 22.7s3-.1 4.1.8c.6.5.9 2.2 1 3.4.1.9-.5 1.8-1.4 2.2-.7.3-1.6.6-1.9.6l-1.7-3.5v-3.5z" class="R"/><path d="M20.1 22.9s2.7-.1 3.7.7c.5.5.8 1.8.9 2.9.1 1-.5 1.8-1.4 2.2-.6.2-1.3.5-1.6.5L20.1 26v-3.1z" class="T"/><path d="M20.5 23.3s2.3-.1 3.2.6c.4.4.6 1.4.7 2.2.1 1-.5 1.9-1.4 2.2-.5.2-.9.3-1.1.3L20.5 26v-2.7z" class="S"/><path d="M18.1 29.3c-.2.2.3.9.7 1.4.2.3.5.4.8.4l3.1-.8c.2 0 .3-.1.3-.3.1-.4-.2-.9-.4-1.3s-.6-.6-.9-.5c-1.2.1-3.4.9-3.6 1.1z" class="R"/><g class="T"><use xlink:href="#B"/><path d="M17.9 29.3c-.2.2.3.8.6 1.2.2.2.4.4.7.3l2.7-.7c.1 0 .2-.1.3-.3.1-.3-.2-.8-.4-1.1s-.5-.5-.8-.4c-1 .1-2.9.8-3.1 1z"/></g><use xlink:href="#B" x="-0.5" class="S"/><path d="M9.1 26c.2.1 0 .9-.1 1.5-.1.3-.3.5-.6.6l-1.6.5c-.2 0-.3 0-.5-.1-.3-.3-.3-.8-.3-1.3 0-.4.3-.8.6-.9 1.2-.3 2.3-.4 2.5-.3z" class="R"/><path d="M8.8 26.2c.2.1 0 .8-.1 1.3-.1.3-.3.5-.5.5l-1.3.4c-.1 0-.3 0-.4-.1-.3-.2-.3-.7-.3-1.1s.2-.7.5-.8c1.1-.3 1.8-.3 2.1-.2z" class="T"/><path d="M8.5 26.3c.2.1 0 .7-.1 1.1-.1.2-.2.4-.4.4l-1 .4c-.1 0-.2 0-.3-.1-.2-.2-.2-.6-.2-.9s.2-.6.4-.7c.8-.2 1.4-.3 1.6-.2z" class="S"/><path d="M21.4 30.7c0-.1 0-.2-.1-.2.2-.5 0-1.2 0-1.2l-1.2-3.4c-.2-.8-.8-1.5-1.6-2l-.1-.8c0-.3-.3-.5-.6-.6l-1-.2-.3-.3c-.2-.1-.8 0-.9.1s-.4.6-.4.8l.1.5-3.9-.8c-.1-.1-.2-.2-.4-.3l-.2-.8c-.1-.3-.3-.5-.6-.6l-.9-.2-.3-.3c-.5-.1-1.4.2-1.3.7l.1.8c-.2.1-.3.2-.5.3-.2.2-.3.5-.4.8h0v.5l.2 3.2c0 .1 0 .9.7 1.6l.2.2c.2.3.5.5 1 .7.6.2 1 .2 1.3.1h.1c.9-.1 1.1-.8 1.1-.8l.2-.5.3.1c.2.3.6.5.9.6s.5 0 .6-.1c.2 0 .4 0 .5-.1l.3.1c.2.4.6.7 1 .8.3.1.5 0 .6-.1.3.1.5 0 .7-.2l.3.5c.1.2.3.3.4.5.3.4 1.1 1.1 2 1.2h.8c.9 0 1.4-.2 1.3-.6z" fill="#780364"/><path d="M17.7 26.9c-.2.2.3 1 .7 1.6.2.3.6.5.9.4l3.6-1c.2 0 .3-.2.4-.4.1-.5-.2-1.1-.5-1.5s-.7-.6-1-.6c-1.2.3-3.8 1.3-4.1 1.5z" class="R"/><path d="M18.1 27c-.2.2.3.9.6 1.4.2.3.5.4.8.3l3.2-.9c.2 0 .3-.2.3-.3.1-.4-.2-.9-.4-1.3s-.6-.6-.9-.5c-1.1.2-3.4 1-3.6 1.3z" class="T"/><path d="M18.2 27.1c-.1.1.3.7.6 1.1.2.2.4.3.6.3l2.5-.6c.1 0 .2-.1.3-.3.1-.3-.1-.8-.3-1.1s-.5-.5-.8-.5l-2.9 1.1z" class="S"/><path d="M16.9 25.1c-.2.2.3 1 .7 1.6.2.3.6.5.9.4l3.6-1c.2 0 .3-.2.4-.4.1-.5-.2-1.1-.5-1.5s-.7-.6-1-.6c-1.2.3-3.9 1.2-4.1 1.5z" class="R"/><path d="M17.3 25.1c-.2.2.3.9.6 1.4.2.3.5.4.8.3l3.2-.9c.2 0 .3-.2.3-.3.1-.4-.2-.9-.4-1.3s-.6-.6-.9-.5c-1.1.2-3.4 1.1-3.6 1.3z" class="T"/><path d="M8.7 22.1c.3.1 0 1.1-.2 1.7-.1.4-.4.6-.7.7l-1.8.6c-.2 0-.4 0-.5-.1-.4-.3-.5-1-.5-1.5s.3-1 .7-1.1c1.4-.3 2.7-.4 3-.3z" class="R"/><path d="M8.3 22.3c.2.1 0 .9-.1 1.5-.1.3-.3.5-.6.6l-1.5.5c-.2 0-.3 0-.5-.1-.3-.3-.4-.8-.4-1.3 0-.4.3-.9.6-.9 1.3-.4 2.2-.4 2.5-.3z" class="T"/><path d="M8 22.4c.2.1 0 .8-.1 1.2-.1.3-.3.5-.5.5l-1.2.5c-.1 0-.3 0-.4-.1-.2-.2-.3-.7-.3-1.1s.2-.7.5-.8l2-.2z" class="S"/><path d="M8.5 24.2c.2.1 0 .9-.1 1.5-.2.3-.4.5-.6.6l-1.6.5c-.2 0-.3 0-.5-.1-.3-.3-.4-.8-.4-1.3 0-.4.3-.8.6-.9 1.2-.3 2.3-.3 2.6-.3z" class="R"/><path d="M8.1 24.4c.2.1 0 .8-.1 1.3-.1.3-.3.5-.5.5l-1.3.4c-.1 0-.3 0-.4-.1-.3-.2-.3-.7-.3-1.1s.2-.7.5-.8c1.1-.3 1.9-.3 2.1-.2z" class="T"/><path d="M7.9 24.5c.2.1 0 .7-.1 1.1-.1.2-.3.4-.4.4l-1 .4c-.1 0-.2 0-.3-.1-.2-.2-.2-.6-.2-.9s.2-.6.4-.7c.7-.2 1.4-.2 1.6-.2zm9.5.7c-.1.1.3.7.6 1.1.2.2.4.3.6.3l2.5-.6c.1 0 .2-.1.3-.3.1-.3-.1-.8-.3-1.1s-.5-.5-.8-.5c-.9.3-2.8.9-2.9 1.1z" class="S"/><path d="M10.1 20.7c.2.1-.2 1-.5 1.6-.2.3-.5.5-.7.5l-2.3.2c-.2 0-.4-.1-.5-.2-.3-.4-.2-1-.1-1.5s.5-.9.9-.9c1.3 0 2.9.1 3.2.3z" class="R"/><path d="M9.7 20.8c.2.1-.1.9-.4 1.4-.1.3-.4.5-.7.5l-1.9.2c-.2 0-.3-.1-.4-.2-.2-.3-.2-.9-.1-1.3s.4-.8.8-.8c1.1-.1 2.4.1 2.7.2z" class="T"/><path d="M8.9 20.9c.2.1-.1.7-.3 1.1-.1.2-.3.4-.5.4l-1.2.2c-.1 0-.2 0-.3-.1-.2-.3-.1-.7-.1-1.1.1-.3.3-.6.6-.6.9-.1 1.6 0 1.8.1z" class="S"/><path d="M16.3 21.5c-.3 0-.2.9-.1 1.5.1.3.2.6.5.7l3.1.8c.2.1.4.1.5 0 .4-.2.6-.3.7-.8s-.1-.9-.5-1.1c-1.2-.4-3.9-1.2-4.2-1.1z" class="R"/><path d="M16.6 21.7c-.2 0-.2.8-.1 1.3 0 .3.2.5.4.6l2.8.5c.1.1.3.1.4 0 .3-.2.5-.1.6-.5s-.1-.8-.4-.9c-1.1-.4-3.5-1-3.7-1z" class="T"/><path d="M16.6 21.9c-.2 0-.1.7 0 1.1 0 .2.2.4.3.5l2.4.4c.1.1.2 0 .3 0 .2-.2.1-.1.2-.4 0-.3-.1-.7-.3-.8-.9-.3-2.7-.9-2.9-.8z" class="S"/><path d="M10.8 23.8l-.1.6c-.1.2.1.5.3.5l4.4.8c.3.1.6-.2.5-.6l-.2-.7c0-.2-.2-.3-.3-.3l-4-.7c-.3.1-.6.2-.6.4z" fill="#8d2299"/><path d="M7.9 28.2s1.6 1.1 3.1-.2l.6-1 3 .6c.6 0 2.3.3 2.3.3s.2 1.5 1.1 2.1 1.4 1.4 2.3 1.3 1 .4 1 .4l-.6.3s-2.9-.1-3.6-1.8c0 0-.5.3-1.4.3-.9-.1-1.5-1.1-1.5-1.1s-.5.7-1.2.6-1.2-1.2-1.2-1.2.1 1.5-1.3 1.4-2.7-1.2-2.9-1.6l.3-.4z" fill="#4a0751"/><path d="M10.9 23.9l4.8.9s-.1-.4-.2-.5-4.4-.8-4.4-.8-.3 0-.2.4" fill="#aa3c98"/><defs ><path id="B" d="M18.4 29.3c-.2.2.3.8.6 1.2.2.2.4.4.7.3l2.7-.7c.1 0 .2-.1.3-.3.1-.3-.2-.8-.4-1.1s-.5-.5-.8-.4c-.9.2-2.9.8-3.1 1z"/></defs></svg>