<svg xmlns="http://www.w3.org/2000/svg" xmlns:xlink="http://www.w3.org/1999/xlink" viewBox="0 0 32 32"><g fill="#336649"><path d="M6 24.2h-.3c-3 0-5.4-2.4-5.4-5.4v-3.5c0-3 2.4-5.4 5.4-5.4h12.1c3 0 5.4 2.4 5.4 5.4v3.5c0 3-2.4 5.4-5.4 5.4h-6.9l-.1 4.2L6 24.2z"/><path d="M17.8 10.2c2.8 0 5 2.3 5 5v3.5c0 2.8-2.3 5-5 5h-7.2l-.1 3.8-4.3-3.8h-.5c-2.8 0-5-2.3-5-5v-3.5c0-2.8 2.3-5 5-5h12.1m0-.7H5.7C2.6 9.5 0 12.1 0 15.3v3.5c0 3.1 2.6 5.7 5.7 5.7h.2l4.1 3.7 1.1.9v-1.4l.1-3.2h6.6c3.1 0 5.7-2.6 5.7-5.7v-3.5c0-3.2-2.5-5.8-5.7-5.8h0z"/></g><path d="M11.1 12.1c-2.1 0-3.8-1.7-3.8-3.8V5.8C7.3 3.7 9 2 11.1 2h8.4c2.1 0 3.8 1.7 3.8 3.8v2.5c0 2.1-1.7 3.8-3.8 3.8h-5.8L11 14.7l.1-2.6z" fill="#59aa7f"/><path d="M19.6 2.3c1.9 0 3.5 1.6 3.5 3.5v2.5c0 1.9-1.6 3.5-3.5 3.5h-5.9l-2.2 2.1v-2.1h-.3c-1.9 0-3.5-1.6-3.5-3.5V5.8c0-1.9 1.6-3.5 3.5-3.5h8.4m0-.6h-8.4C8.9 1.7 7 3.6 7 5.9v2.5c0 2.2 1.7 4 3.8 4.2v3l1.1-1.1 2-1.9h5.6c2.3 0 4.2-1.9 4.2-4.2V5.8c0-2.3-1.8-4.1-4.1-4.1h0z" fill="#336649"/><path d="M6 22.6h-.3c-3 0-5.4-2.4-5.4-5.4v-3.5c0-3 2.4-5.4 5.4-5.4h12.1c3 0 5.4 2.4 5.4 5.4v3.5c0 3-2.4 5.4-5.4 5.4h-6.9l-.1 4.4L6 22.6z" fill="#59aa7f"/><path d="M17.8 8.7c2.8 0 5 2.3 5 5v3.5c0 2.8-2.3 5-5 5h-7.2l-.1 4-4.3-4h-.5c-2.8 0-5-2.3-5-5v-3.5c0-2.8 2.3-5 5-5h12.1m0-.7H5.7C2.6 8 0 10.6 0 13.7v3.5C0 20.4 2.6 23 5.7 23h.2l4.1 3.8 1.1 1v-1.5l.1-3.4h6.6c3.1 0 5.7-2.6 5.7-5.7v-3.5c0-3.1-2.5-5.7-5.7-5.7h0z" fill="#336649"/><path d="M16.7 9.3H6.2c-2.4 0-4.4 2-4.4 4.5V17c0 2.5 2 4.5 4.4 4.5h10.5c2.4 0 4.4-2 4.4-4.5v-3.2c0-2.5-1.9-4.5-4.4-4.5z" fill="#75d1a3"/><g fill="#29677c"><path d="M27.8 20.2c1.5.5 3 1.8 3.5 3.6.5 1.9-.2 4.1-1.6 5.1-.9.7-2.1.9-3.2.9-2.6 0-5.3-.9-7.9-1.8-.9-.3-1.8-.6-2.5-1.2-.8-.6-1.4-1.4-1.5-2.5-.2-1.4.7-2.9 1.8-3.6 1.9-1.2 3.9-1.8 6-1.7 1.6.1 3.7.7 5.4 1.2z"/><path d="M28.2 18.4c1.6.7 3.2 2.3 3.7 4.6.5 2.4-.2 5.3-1.7 6.6-1 .9-2.2 1.1-3.4 1.1-2.8 0-5.6-1.1-8.3-2.3-.9-.4-1.9-.8-2.7-1.5s-1.5-1.9-1.6-3.2c-.2-1.9.7-3.7 1.9-4.6 2-1.6 4.1-2.3 6.3-2.3 1.8.1 4 .9 5.8 1.6z"/></g><circle transform="matrix(.003623492 -1 1 .003623492 8.4389 36.9209)" cx="22.7" cy="14.2" r="8.6" fill="#7f5c4e"/><path d="M27.5 19.1c1.5.5 2.8 1.8 3.3 3.6.5 1.9-.2 4.1-1.5 5.1-.9.7-1.9.9-3 .9-2.5 0-5-.9-7.4-1.8-.8-.3-1.7-.6-2.4-1.2s-1.3-1.4-1.5-2.5c-.2-1.4.7-2.9 1.7-3.6 1.8-1.2 3.7-1.8 5.6-1.7 1.6 0 3.7.7 5.2 1.2z" fill="#438baa"/><path d="M26.5 20c1.1.4 2.2 1.4 2.6 2.8.4 1.5-.1 3.2-1.2 4-.7.5-1.5.7-2.3.7-1.9 0-3.9-.7-5.8-1.4-.6-.2-1.3-.5-1.9-.9s-1-1.1-1.1-1.9c-.1-1.1.5-2.2 1.3-2.8 1.4-1 2.9-1.4 4.4-1.4 1.2 0 2.8.5 4 .9z" fill="#7bb9db"/><path d="M17 19.5s1.2 3.1 2.7 3.4 4.1.8 7.4-2.4l-10.1-1z" fill="#29677c"/><circle transform="matrix(.003623492 -1 1 .003623492 8.4389 36.9209)" cx="22.7" cy="14.2" r="7.7" fill="#a67a65"/><ellipse transform="matrix(.003623492 -1 1 .003623492 8.8874 36.2618)" cx="22.6" cy="13.7" rx="7.5" ry="7.4" fill="#e5a98c"/><ellipse transform="matrix(.003623492 -1 1 .003623492 9.5002 36.4619)" cx="23" cy="13.5" rx="7.2" ry="6.9" fill="#e8ccaa"/><ellipse transform="matrix(.003623492 -1 1 .003623492 6.610799999999999 35.5281)" cx="21.1" cy="14.4" rx="5.2" ry="5.1" fill="#faeacf"/><circle transform="matrix(.003623492 -1 1 .003623492 3.8654000000000006 30.9245)" cx="17.5" cy="13.5" r=".2" fill="#fff"/><path d="M9.7 20.8v2.9l-3.2-3 3.1.1z" fill="#75d1a3"/><use xlink:href="#B" fill="#59aa7f"/><path d="M9.5 4.599999904633h9v1.5h-9z" fill="#75d1a3"/><g fill="#59aa7f"><use xlink:href="#B" y="3"/><use xlink:href="#B" y="6.099999427795"/></g><defs ><path id="B" d="M4.199999809265 11.300000190735h8.699999809265v1.5H4.199999809265z"/></defs></svg>