<svg xmlns="http://www.w3.org/2000/svg" viewBox="0 0 32 32"><path d="M27.9 3.2l.4-3.3L26.9-2 3.2 6.7-.7 27.9s-.6 4.1 3.1 4.2c2 .1 12.8.9 19.8 1.4v-.1c7.5.4 8.1-6.8 8.1-6.8l3-24.7-5.4 1.3z" fill="#29383a"/><g fill="#e4edec"><path d="M22.9 31.3L6 30.1 10.2 8 32 3l-2.8 22.7c-.4 3.1-3.1 5.8-6.3 5.6z"/><path d="M23.1 28.4L.6 27.2 4.2 7.4 26.5-.8z"/></g><path d="M22.1 28.2l-21-1 1.6-9.5 21.1-3.3z" fill="#f9f9f9"/><path d="M23.4 10.2L3.7 14.5l.1-.4 19.7-4.5zm-.3 2.4L11 14.8v-.5L23.2 12zm-.3 2.4l-12.2 1.8.1-.5 12.2-1.9zm-.3 2.4l-12.2 1.4.1-.5 12.2-1.5zM7 23l-4.7.1v-.4l4.7-.2zm-.4 1.9H1.9l.1-.4 4.7-.1zM24.5 1.6L4.9 8.3v-.4l19.7-6.8z" fill="#86ada8"/><path d="M7 12.4l-1.6-2.2-.5 2.7-.5.1.7-3.8.5-.2 1.6 2.1.5-2.8.6-.2-.7 4-.6.3zm2.3-4.5l2.5-.8-.1.7-1.7.5-.2 1 1.6-.5-.1.7-1.6.5-.2 1.1 1.8-.5-.1.7-2.6.7.7-4.1zm7.9 1.9l-.9.2-.8-3-1.7 3.6-.8.3-.7-4 .9-.3.5 2.9L15.3 6l.9-.3.7 3L18.5 5l1-.3-2.3 5.1zm2.7-4.2c.1-.7.9-1.6 2.1-2 .8-.3 1.4-.3 1.8-.1l-.7.9c-.3-.1-.6-.2-1.1 0s-.9.5-.9.8c-.1 1 2.8-.2 2.6 1.6-.1.9-1.2 1.7-2.4 2-.8.2-1.7.1-1.9-.3l.7-.8c.3.3.9.3 1.4.2s1-.5 1-.8c.1-.9-2.8.1-2.6-1.5z" fill="#343f3d"/><path d="M7.7 21l-5.1.4 1-5.6 5.2-1z" fill="#ff6c6c"/><path d="M20.8 27.2l-11.7-.5 1-5.9 11.7-.9z" fill="#ffb040"/><path d="M22.6 29.4L.5 27.9s-.3 2.7 2.3 2.8c1.8 0 12.5.8 19 1.3.1-.9.5-1.7.8-2.6z" fill="#809692"/><path d="M.6 26.7L.4 28l22.5 1.6.2-1.5z" fill="#e4edec"/><g fill="#809692"><path d="M30.3 4.6h.9l-2.9 22.5-.6-.1zm-2.5 1h.8l-2.9 22.5-.6-.1zm-5.3 24.9l4-31.3.9 1.4-3.6 30z"/><path d="M21.5 30.1l.6-.5s6.6.2 7.1-3.8c0 0-.6 6.8-7.6 6.3l-.1-2z"/><path d="M24.1 27.2s-.1 2.5 1.8 2.4l-3.1 1 1.3-3.4z"/></g></svg>