<svg xmlns="http://www.w3.org/2000/svg" viewBox="0 0 32 32"><path d="M11.6 5.8s.1-1.7-1.2-3.5c0 0 2.5.3 4.9 1.8v1.2l-1.7 2.1-2-1.6z" fill="#9a4c18"/><path d="M15.6 10.7s4.5-1.1 9.8.4 7 6.7 5.8 9.4l-2.7-1.7s1.2-4.6-3.8-5.7l-9.1-2.4z" fill="#3c505b"/><ellipse transform="matrix(.003623492 -1 1 .003623492 -2.6148 37.0374)" cx="17.3" cy="19.8" rx="12.2" ry="12.4" fill="#9a4c18"/><ellipse transform="matrix(.003623492 -1 1 .003623492 -2.4837000000000002 35.8841)" cx="16.8" cy="19.2" rx="11.8" ry="11.5" fill="#e5895b"/><ellipse transform="matrix(.003623492 -1 1 .003623492 -2.3974 34.7051)" cx="16.2" cy="18.6" rx="11.1" ry="10.8" fill="#fad395"/><path d="M7 25l5.9 2.2-1.4-5.5-6.8-1.1zm12.1 3.5l7.7-2.9c1-.5 1.6-1.5 1.6-2.6l-.1-6.2c0-1.9-1.9-3.2-3.7-2.6l-8.3 3c-1.3.5-2 1.8-1.8 3.2l1.6 6.2c.3 1.7 1.4 2.7 3 1.9z" fill="#3c505b"/><path d="M8 24.9l4.6-1.1-1.5-2.9-2.6.4zm12.3 1.4l5.2-2.2c.7-.4 1.2-1.1 1.2-2l-.1-4.8c0-1.5-1.5-2.5-2.9-2l-6.4 2.3c-1 .4-1.6 1.4-1.4 2.4l1.3 4.7c.3 1.5 1.8 2.2 3.1 1.6z" fill="#98b1b7"/><path d="M4.4 13.2l7.5-2.3c.6-.2 1.2-.3 1.8-.1l11.2 2.5c1.1.3 1.1 1.5.1 2l-9.1 2.8c-.1.1-.3.1-.5 0L4.3 14.2c-.4-.2-.4-.8.1-1z" fill="#fad395"/><path d="M3.8 13.4l3.6-1.3s13 3.8 16.2 4.1l-6 1.7-3.7-1.5-10.1-3z" fill="#cbdee4"/><g fill="#3c505b"><path d="M10 14.9h0l-5.8-1.8c-1.4-.4-2.5.6-2.5 2.3l-.5 4.7c0 1.7 1.1 3.5 2.5 4l3.7 1c.2.1.4 0 .6-.1l1.7-1.9c.3-.4.6-.3.9.3l1.8 3.3c.2.3.4.5.7.6l3.5 1.2c1.7.7 3.1-.3 3.1-2.3l-.3-5c0-1.9-1.4-3.9-3.1-4.5L10 14.9z"/><ellipse transform="matrix(.37720000000000004 -.9261 .9261 .37720000000000004 -5.0471 34.4527)" cx="23.1" cy="21" rx="4" ry="2.9"/></g><path d="M23.2 15.1s2.9.4 3.8 0 2.1-.3 2.2-1.1c.1-.9-.9-5.8-6.6-7.8l2.8 4.5-2.2 4.4zM7.5 12.2s-.9-1.7.1-3.6 0-4.8 0-4.8l5 1.8s2.9 1.3 2.5 2.7-1.8 3.6-1.9 3.7c-.2.2-1.2 1.5-1.2 1.5l-4.5-1.3z" fill="#9a4c18"/><path d="M8.1 12.6s-.2-2.4.7-3 .2-4 .2-4l5 1.8s2.9 1.3 2.5 2.7-1.8 3.6-1.9 3.7-1 .9-1 .9l-5.5-2.1zm13.3 2s2.9.4 3.8 0 2.1-.3 2.2-1.1-.9-5.8-6.6-7.8l2.8 4.5-2.2 4.4z" fill="#db7d1f"/><g fill="#cbdee4"><path d="M10.1 16h0l-4.9-1.5c-1.2-.4-2.1.5-2.1 1.9l-.5 3.2c0 1.4.9 2.9 2.1 3.3l2.8.6c.2.1.4 0 .5-.1l1.4-1.5c.3-.3.8-.1 1.1.4L12 25c.1.2.4.4.6.5l3 1c1.4.5 2.6-.3 2.6-1.9l-.3-3.4c0-1.6-1.2-3.2-2.6-3.7L10.1 16z"/><ellipse transform="matrix(.37720000000000004 -.9261 .9261 .37720000000000004 -4.4606 34.9233)" cx="23.7" cy="20.8" rx="2.9" ry="2"/></g><path d="M5.2 15.6l-1.1 5 2.2.7 1.2-5z" fill="#fff"/><path d="M25.7 18.6s4.5-.3 4.1-2.6c0 0 2.1 2.3 1.6 4.2-.6 1.9-6.1 2.5-6.1 2.5s1.2-2.1.4-4.1zm-21.5-5L8.3 12l-1.1-.6-4.4 1.8z" fill="#3c505b"/><path d="M11.2 13.1s-1.4-.5-.4-2.9 4-5.7 4-5.7L11.5.2s5.4-.4 9.3 4c0 0 4.6 3.3 4.6 5.1s1.6 5.4-.3 6.3c-1.8.7-13.4-1.9-13.9-2.5z" fill="#9a4c18"/><path d="M11.9 13.4s-.2-2 .6-3.8c.8-1.9 3.4-4.7 3.4-4.7l-1.4-3.3s2.7.1 5.7 3.4c0 0 3.6 2.5 3.6 3.9s-.8 5.7-2.2 6.3c-1.6.6-9.3-1.3-9.7-1.8z" fill="#f49937"/><path d="M14.6 12.8l2-4.4.1-5 2.6 5.4-1.3 5.1s-2.7-.1-3.4-1.1z" fill="#fde049"/><path d="M27.1 10.6l-.8 3.3-2.3-1.7.9 2.6 3.7-.3z" fill="#9a4c18"/><g fill="#db7d1f"><path d="M22.1 12.9l2.1 1 2.4-1.3-.4 1.9-1.4.5-4.1.4zm-11-3.8l-.1 2.4 1.7 2.4-.4-.2-2.6-1-.7-2.1z"/><path d="M18.7 15.5l2.5-4.2-.2-4.5-1-2s2.6 1.8 3.1 2.4 1.2 2.3 1 2.8l-1.7 4.9-.9.5c-.1 0-1.9.4-2.8.1z"/></g><path d="M7.2 11.4S15 16 27.5 15.1l-.9 1s-11 1.2-20.1-3.8l.7-.9z" fill="#3c505b"/><path d="M11.8 9.5l.7-.1s-.9 2.1-.4 3.6c0 0-1.8-.7-1-3.5h.7z" fill="#9a4c18"/><path d="M23.4 14s2.7-.8 2.5-2.8c0 0 .6 1.6.1 2.6s-2.1.6-2.1.6l-.5-.4z" fill="#db7d1f"/></svg>