<svg xmlns="http://www.w3.org/2000/svg" fill="none" viewBox="0.75 -0.12 32 32.32">
<g clip-path="url(#clip0_1415_766)">
<path d="M12.75 30.5999C12.75 30.5999 18.55 32.6999 24.65 30.1999C25.15 29.9999 25.35 29.4999 25.15 28.9999C24.85 28.1999 24.35 26.8999 24.35 25.7999C24.35 24.1999 24.35 21.4999 26.85 19.0999C29.35 16.6999 31.05 9.49991 26.35 5.39991C21.65 1.29991 13.95 2.19991 11.35 3.99991C8.75001 5.79991 5.85 8.29991 6.55 12.8999C6.55 12.8999 6.75001 13.8999 6.55 14.1999C6.35 14.5999 4.25 17.6999 4.15 17.9999C4.05 18.1999 3.75 19.0999 4.25 19.2999C4.75 19.4999 6.25 19.9999 6.35 20.9999C6.45 21.9999 6.45 23.5999 6.45 24.2999C6.45 24.9999 6.15 26.4999 7.85 26.6999C9.55 26.8999 11.65 25.9999 12.15 27.6999C12.15 27.6999 12.25 28.9999 12.15 29.5999C12.05 29.9999 12.25 30.2999 12.55 30.4999L12.75 30.5999Z" fill="#2590BA" stroke="#2590BA" stroke-width="1.1974" stroke-miterlimit="10"/>
<path d="M12.8501 28.5999C12.8501 28.5999 18.6501 30.6999 24.7501 28.1999C25.2501 27.9999 25.4501 27.4999 25.2501 26.9999C24.9501 26.1999 24.4501 24.8999 24.4501 23.7999C24.4501 22.1999 24.4501 19.4999 26.9501 17.0999C29.4501 14.6999 31.1501 7.49991 26.4501 3.39991C21.7501 -0.700089 14.0501 0.199911 11.4501 1.99991C8.8501 3.79991 5.9501 6.39991 6.6501 10.9999C6.6501 10.9999 6.8501 11.9999 6.6501 12.2999C6.4501 12.6999 4.3501 15.7999 4.2501 16.0999C4.1501 16.2999 3.8501 17.1999 4.3501 17.3999C4.8501 17.5999 6.3501 18.0999 6.4501 19.0999C6.5501 20.0999 6.5501 21.6999 6.5501 22.3999C6.5501 23.0999 6.2501 24.5999 7.9501 24.7999C9.6501 24.8999 11.7501 24.0999 12.2501 25.7999C12.2501 25.7999 12.3501 27.0999 12.2501 27.6999C12.1501 28.0999 12.3501 28.3999 12.6501 28.5999H12.8501Z" fill="#94BECE" stroke="#457087" stroke-width="1.1974" stroke-miterlimit="10"/>
<path d="M12.95 28.1C12.95 28.1 18.55 30.1 24.45 27.7001C24.85 27.5 25.15 27 24.95 26.6C24.65 25.8001 24.15 24.5 24.15 23.6C24.15 22 24.15 19.5001 26.55 17.1001C28.95 14.7001 30.65 7.80005 26.05 3.90005C21.45 5.00679e-05 14.15 0.80005 11.55 2.60005C8.95001 4.40005 6.25 6.70005 6.95 11.2001C6.95 11.2001 7.15 12.1001 6.95 12.5001L4.65 16.0001C4.55 16.2001 4.25 17.1 4.75 17.3C5.25 17.5 6.65 17.9 6.75 18.9C6.85 19.9 6.85 21.4 6.85 22C6.85 22.6 6.55 24.2 8.25 24.3C9.95 24.4 11.95 23.6 12.45 25.3C12.45 25.3 12.55 26.5 12.45 27.1C12.35 27.5 12.55 27.8 12.85 28L12.95 28.1Z" fill="#94BECE"/>
<g opacity="0.84">
<path d="M13.3501 26.9001C13.3501 26.9001 18.3501 28.7001 23.7501 26.5001C24.1501 26.3001 24.3501 25.9001 24.1501 25.5001C23.8501 24.8001 23.4501 23.6001 23.4501 22.8001C23.4501 21.4001 23.4501 19.1001 25.6501 16.9001C27.8501 14.7001 29.3501 8.50006 25.1501 5.00006C20.9501 1.50006 14.4501 2.20006 12.0501 3.80006C9.6501 5.40006 7.3501 7.50006 7.8501 11.5001C7.8501 11.5001 8.0501 12.3001 7.8501 12.7001C7.6501 13.1001 5.8501 15.8001 5.7501 16.0001C5.6501 16.2001 5.3501 16.9001 5.8501 17.1001C6.3501 17.3001 7.5501 17.7001 7.6501 18.6001C7.7501 19.5001 7.7501 20.9001 7.7501 21.4001C7.7501 22.0001 7.5501 23.4001 8.9501 23.5001C10.3501 23.6001 12.2501 22.9001 12.7501 24.4001C12.7501 24.4001 12.8501 25.5001 12.7501 26.1001C12.6501 26.4001 12.8501 26.7001 13.1501 26.9001H13.3501Z" fill="url(#paint0_linear_1415_766)"/>
</g>
<path d="M19.65 17.1001C19.65 17.1001 21.65 18.7001 23.65 16.9001L24.05 16.2001C24.05 16.2001 26.05 16.1001 26.15 13.8001C26.15 13.8001 28.05 12.5001 27.15 10.4001C27.15 10.4001 27.15 9.50011 26.05 9.20011C26.05 9.20011 26.65 7.80011 25.55 6.50011C24.45 5.20011 23.75 5.50011 23.75 5.50011C23.75 5.50011 23.85 4.60011 23.25 4.10011C22.65 3.60011 21.55 3.00011 19.95 3.70011C19.95 3.70011 18.65 2.40011 16.65 2.90011C14.65 3.40011 14.45 4.40011 14.45 4.40011C14.45 4.40011 14.15 3.80011 12.85 4.20011C11.55 4.50011 11.05 5.60011 11.05 6.40011C11.05 6.40011 9.35 6.60011 9.25 8.10011C9.25 9.60011 10.75 10.3001 10.75 10.3001C10.75 10.3001 10.95 12.1001 12.05 12.5001C13.15 12.9001 14.15 12.8001 14.15 12.8001C14.15 12.8001 13.65 14.9001 15.85 15.4001C15.85 15.4001 16.15 16.3001 17.35 16.5001C18.55 16.7001 19.65 17.1001 19.65 17.1001Z" fill="#2CA0CE"/>
<path d="M15.0499 8.80024C15.8231 8.80024 16.4499 8.17344 16.4499 7.40024C16.4499 6.62705 15.8231 6.00024 15.0499 6.00024C14.2767 6.00024 13.6499 6.62705 13.6499 7.40024C13.6499 8.17344 14.2767 8.80024 15.0499 8.80024Z" fill="#2CA0CE" stroke="#EBF4F6" stroke-width="0.5527"/>
<path d="M19.3497 7.70015C20.1229 7.70015 20.7497 7.07335 20.7497 6.30015C20.7497 5.52695 20.1229 4.90015 19.3497 4.90015C18.5765 4.90015 17.9497 5.52695 17.9497 6.30015C17.9497 7.07335 18.5765 7.70015 19.3497 7.70015Z" fill="#2CA0CE" stroke="#EBF4F6" stroke-width="0.5527"/>
<path d="M22.5499 10.6C23.3231 10.6 23.9499 9.97325 23.9499 9.20005C23.9499 8.42685 23.3231 7.80005 22.5499 7.80005C21.7767 7.80005 21.1499 8.42685 21.1499 9.20005C21.1499 9.97325 21.7767 10.6 22.5499 10.6Z" fill="#2CA0CE" stroke="#EBF4F6" stroke-width="0.5527"/>
<path d="M20.5499 13.9001C21.3231 13.9001 21.9499 13.2733 21.9499 12.5001C21.9499 11.7269 21.3231 11.1001 20.5499 11.1001C19.7767 11.1001 19.1499 11.7269 19.1499 12.5001C19.1499 13.2733 19.7767 13.9001 20.5499 13.9001Z" fill="#2CA0CE" stroke="#EBF5F6" stroke-width="0.5527"/>
<path d="M16.9498 14.5002C17.723 14.5002 18.3498 13.8734 18.3498 13.1002C18.3498 12.327 17.723 11.7002 16.9498 11.7002C16.1766 11.7002 15.5498 12.327 15.5498 13.1002C15.5498 13.8734 16.1766 14.5002 16.9498 14.5002Z" fill="#2CA0CE" stroke="#EBF5F6" stroke-width="0.5527"/>
<path d="M10.25 10.5002H11.75L13.95 8.2002" fill="#2CA0CE"/>
<path d="M10.25 10.5002H11.75L13.95 8.2002" stroke="#EBF4F6" stroke-width="0.5527" stroke-miterlimit="10"/>
<path d="M19.1498 7.6001L16.9498 10.5001H11.5498M15.7498 14.1001L14.6498 15.5001L15.7498 14.1001ZM23.2498 10.4001L24.7498 11.8001H27.4498M21.4498 13.7001L22.9498 15.1001L22.8498 18.5001" fill="#2CA0CE"/>
<path d="M19.1498 7.6001L16.9498 10.5001H11.5498M15.7498 14.1001L14.6498 15.5001M23.2498 10.4001L24.7498 11.8001H27.4498M21.4498 13.7001L22.9498 15.1001L22.8498 18.5001" stroke="#EBF4F6" stroke-width="0.5527" stroke-miterlimit="10"/>
<path d="M19.0498 16.3001V17.5001C19.0498 18.2001 19.4498 18.7001 20.0498 19.0001C21.0498 19.3001 22.0498 18.6001 22.0498 17.5001V16.3001C22.0498 15.5001 21.4498 14.8001 20.5498 14.8001C19.7498 14.7001 19.0498 15.4001 19.0498 16.3001Z" fill="#2CA0CE"/>
<path d="M19.0401 29.4025L18.6401 29.9025L20.4401 31.1025L30.9401 20.8025L29.1401 18.6025L19.0401 29.4025Z" fill="#9A4C18"/>
<path d="M31.1403 23.7024C30.8403 27.8024 26.9403 31.3024 22.7403 31.3024C18.5403 31.3024 15.8403 27.8024 16.6403 23.8024C17.4403 20.0024 21.0403 17.1024 24.7403 17.0024C28.5403 16.9024 31.4403 19.9024 31.1403 23.7024Z" fill="#9A4C18"/>
<path d="M32.1404 25.0024C31.8404 28.9024 28.0404 32.3024 23.9404 32.2024C19.8404 32.2024 17.2404 28.8024 18.0404 25.0024C18.7404 21.4024 22.3404 18.6025 25.9404 18.6025C29.6404 18.5025 32.4404 21.3024 32.1404 25.0024Z" fill="#9A4C18"/>
<path d="M20.1401 29.6022L21.9401 30.6022L30.4401 21.6022L29.0401 19.8022L20.1401 29.6022Z" fill="#F49937"/>
<path d="M31.3403 25.0023C31.0403 28.3023 27.9403 31.2023 24.4403 31.1023C21.0403 31.1023 18.8403 28.3023 19.4403 25.0023C20.0403 21.9023 23.0403 19.4023 26.1403 19.4023C29.3403 19.4023 31.6403 21.9023 31.3403 25.0023Z" fill="#F49937"/>
<path d="M30.2405 23.7024C29.9405 27.3024 26.5405 30.3024 22.8405 30.3024C19.1405 30.3024 16.8405 27.3024 17.4405 23.8024C18.0405 20.5024 21.2405 17.9024 24.5405 17.8024C28.0405 17.7024 30.5405 20.3024 30.2405 23.7024Z" fill="#FFEDC0"/>
<path d="M29.7402 24.0023C29.4402 27.3023 26.3402 30.2023 22.8402 30.1023C19.4402 30.1023 17.2402 27.3023 17.8402 24.0023C18.4402 20.9023 21.4402 18.4023 24.5402 18.4023C27.7402 18.3023 30.0402 20.8023 29.7402 24.0023Z" fill="#FFD766"/>
<path d="M28.4403 24.0023C28.1403 26.6023 25.7403 28.7023 23.1403 28.7023C20.5403 28.7023 18.7403 26.5023 19.2403 24.0023C19.6403 21.6023 22.0403 19.6023 24.4403 19.6023C26.8403 19.6023 28.6403 21.5023 28.4403 24.0023Z" fill="#FFEDC0"/>
<path d="M28.4404 23.3023C28.1404 25.9023 25.7404 28.0023 23.1404 28.0023C20.5404 28.0023 18.8404 25.9023 19.2404 23.3023C19.6404 20.9023 21.9404 19.0023 24.4404 18.9023C26.9404 19.0023 28.7404 20.9023 28.4404 23.3023Z" fill="#F49937"/>
<path d="M27.6405 24.0023C27.4405 26.2023 25.3405 28.0023 23.1405 28.0023C20.9405 28.0023 19.4405 26.2023 19.8405 24.0023C20.2405 21.9023 22.1405 20.3023 24.2405 20.3023C26.3405 20.2023 27.9405 21.9023 27.6405 24.0023Z" fill="#FFD766"/>
<path d="M24.8404 19.8022L25.4404 22.2022L28.0404 22.9022L25.6404 24.5022L25.5404 27.2022L23.3404 25.6022L20.6404 26.6022L21.8404 24.0022L20.4404 22.0022L23.1404 21.9022L24.8404 19.8022Z" fill="#F49937"/>
</g>
<defs>
<linearGradient id="paint0_linear_1415_766" x1="5.6555" y1="15.0253" x2="27.7724" y2="15.0253" gradientUnits="userSpaceOnUse">
<stop stop-color="white"/>
<stop offset="1" stop-color="#B9DAE4"/>
</linearGradient>
<clipPath id="clip0_1415_766">
<rect width="32" height="32" fill="white" transform="translate(0.75)"/>
</clipPath>
</defs>
</svg>