<svg xmlns="http://www.w3.org/2000/svg" viewBox="0 0 32 32"><g fill="#aa5d18"><path d="M8.5 20.2l-5.6 3.4 3.7.8-2 4.4 6.7-5z"/><path d="M11.5 23.3l-4.8 5.9 5.5-1.3.7 3.9 2.9-6.9z"/></g><g fill="#ffa750" stroke="#aa5d18" stroke-width=".8162" stroke-miterlimit="10"><path d="M7.2 19.7l-5.6 3.4 3.7.8-.3 4 5-4.6z"/><path d="M10.2 22.8l-2.8 5.9 3.5-1.3 1.9 3.5 1.7-6.5z"/></g><g fill="#aa5d18"><path d="M6.5 20.2l-2.8 1.6 3 1.1.8 2.6 1.8-1.7-.7-.2-.3-2.1H7zm3.7 3l-1.9 3.5 3.1-.5 2 1.9.7-2.3-.6-.6-.6-1-1.6.2z" opacity=".62"/><path d="M29.7 14.9l1.1-1-1.2-1.4 1.1-1.4-2.2-1.5.3-1-1.3-.5.1-1.9-1.7-.6-.2-1.4H24l-.4-1.3-1.8.3-.8-1.4-1.5 1-1-1.3-1.3 1.3-1.4-1-.9 1.5-1.6-.7-.7 1.6-1.6-.3-.4 1.7-1.7.1v1.7l-1.8.4.4 1.7-1.7.8.8 1.5L5 12.9l1.1 1.4-1.3 1.5 1.3 1-.9 2.4 1.6.1-.4 2.7 1.5-.4-.1 3.7 1.8-1.8.6 2.6 1.7-.7.4 1.6 1.8-1 1 1.8 1.6-1.4 1.4 1.4 1.3-1.7 1.7 1.1.9-2 1.9.7.4-2.1 2 .2v-2.1l2-.3-.4-2 1.8-.7-.8-2.2 1.6-.6z"/></g><g stroke-miterlimit="10"><path d="M17.5.7l1.1 1.1 1.5-.9.8 1.4 1.6-.6.5 1.5 1.7-.3.1 1.6 1.8.1-.3 1.6 1.8.5-.6 1.6 1.6.8-1 1.5 1.4 1.1-1.3 1.3 1.2 1.5-1.6 1 .8 1.7-1.8.7.4 1.8-1.9.3v2l-2-.2-.5 2-1.8-.6-.9 1.8-1.7-1-1.2 1.6-1.4-1.3-1.6 1.3-1-1.7-1.8.9-.6-1.8-1.9.5-.1-2-1.9.1.2-1.9-1.8-.3.7-1.8-1.6-.7 1-1.7-1.4-1 1.3-1.4-1-1.3 1.5-1.1L5.1 9l1.6-.8-.3-1.6 1.7-.4V4.6l1.7-.1.4-1.6 1.6.3.7-1.5 1.5.6L15 1l1.3.8z" fill="#ffa750" stroke="#aa5d18" stroke-width=".98"/><path d="M26.2 12.4c-.1 5.3-4.8 9.7-10.4 9.6-5.5-.1-9.4-4.6-8.7-9.8.6-4.9 5.1-8.6 10.1-8.7 5.1.1 9.1 4 9 8.9z" fill="#ffb22e" stroke="#fff" stroke-width=".8162"/></g><path d="M24.7 12.4c-.1 4.4-4.1 8.2-8.8 8.1-4.6-.1-7.9-3.8-7.4-8.2.5-4.2 4.3-7.4 8.6-7.4 4.4 0 7.8 3.3 7.6 7.5z" fill="#ffe092"/><path d="M14.8 9.3l-3.4 3.8v.3H13l.1-1.1h2l-.3 3.9h-2.1l.1-1.4H9.3l.2-2 3.1-3.5h2.2zm3.7 0l-.2 2.6h1L21 9.3h2.2l-2.3 3.2 2.1 3.9h-2.5l-1.4-3.1h-1l-.2 3h-2.1l.5-7h2.2z" fill="#aa5d18"/><path d="M24.4 7.9c0 .9-.8 1.7-1.8 1.7-.9 0-1.7-.8-1.6-1.7 0-.9.8-1.6 1.8-1.6.8 0 1.6.7 1.6 1.6z" opacity=".47" fill="#fff"/><circle cx="13.9" cy="15.1" r="6" opacity=".4" fill="#f49937"/></svg>