<svg xmlns="http://www.w3.org/2000/svg" viewBox="0 0 32 32"><path d="M32 12.5c0-9.6-7.9-8.9-7.9-8.9s-4.6-.1-7.9 3.5C13.3 3.4 9 3.5 9 3.5S1.2 2.7.3 12.3c-.9 9.8 14.3 17.2 15.2 17.8h0c1.1-.4 16.5-7.7 16.5-17.6z" fill="#4f1919"/><path d="M31.8 11.5c.1-8.4-8-8.9-8-8.9s-4.6-.6-7.9 3.1C13 2 8.7 2.1 8.7 2.1S.9 1.3 0 10.9c-.9 9.8 14.3 17.2 15.2 17.8h0c1-.5 16.6-7.4 16.6-17.2z" fill="#960f0f"/><path d="M29.9 11.2c0-4.1-1.8-5.9-3.5-6.8-1.7-.8-3.6-.8-5.3-.1-1.4.6-3.5 1.6-5.2 3.4C14.5 6 12.8 5 11.4 4.4c-2.1-.9-4.5-.9-6.4.3-1.6 1-3.2 2.9-3.5 6.4-.8 8.3 12.8 14.6 13.6 15.1h0c.9-.5 14.8-6.7 14.8-15z" fill="#dd4545"/><path d="M24.6 11.2c0-3-1.3-4.4-2.6-5-1.2-.6-2.7-.6-3.9-.1-1.1.4-2.6 1.2-3.9 2.5-1-1.2-2.3-2-3.3-2.4-1.5-.7-3.3-.7-4.8.2-1.2.7-2.3 2.1-2.6 4.8C3 17.3 13 22 13.7 22.4h0c.6-.4 10.9-5 10.9-11.2z" fill="#f96464"/><path d="M22.4 18.4c-1.5.6-2.9.4-3.8-.1s-1.8-1.7-2-3.3c-.5-3.8 2.9-12.8 9.2-9.1S26 17 22.4 18.4z" fill="#ffb3b3"/><path d="M13.7 27.9S25.8 24.2 31 14.2c0 0-1.6 7.9-15.8 14.6l-1.5-.9z" fill="#dd4545"/><path d="M24.4 10.1c-.4.1-.7.1-1 0-.2-.1-.4-.4-.5-.8-.1-.9.7-3.2 2.3-2.3 1.7.9.1 2.7-.8 3.1z" fill="#fff"/><path d="M9.9 9.4c-.1.6-.5 1.2-.9 1.5s-1.1.6-1.7.6c-1.6-.1-4.2-2.1-1.4-4.4s4.3.7 4 2.3z" fill="#ffb3b3"/><path d="M1.9 18s14.1 13.3 28.5-.6c0 0-6.2 7.6-14 12.1 0 0-12.3-4.4-14.5-11.5z" opacity=".28" fill="#4f1919"/></svg>