<svg xmlns="http://www.w3.org/2000/svg" viewBox="0 0 32 32"><style><![CDATA[.N{fill:#a3704d}.O{fill:#734f36}.P{fill:#fcc097}]]></style><g fill="#962c2c"><path d="M14.7 2.5s6.4-1.3 8.4 3-1.1 5.9-1.1 5.9l-2.2-2s3.3-2.8.4-4.6-4.8-1.2-4.8-1.2l-.7-1M23.4 20s2.7 7.8-2.6 8.1l-3-1.3-.3.9s1.8 2 4.4 1.7 6.3-5.3 2.9-9.6l-1.4.2zm-20-8s-5 4.2-2.8 8.5 5.3 2.8 5.3 2.8l-.2-3s-4.2.8-3.8-2.5S4 13.3 4 13.3l-.4-1.2m8.8 3.1s1.4 1.4 1.5 3.1l2.5-.8s-2.2-2.7-2.1-3.9c.1 0-1.1 1.6-1.9 1.6z"/><path d="M14.5 18.1S19.4 10.4 31 12l.6.3s.4 3.6.3 5.5c-.2 1.8-.9 7.2-5.5 7.7s-8.1-1-12.1-7.5"/></g><path d="M16.3 18.1s4-6.4 13.7-5.1l.5.3s.4 3 .2 4.5-.7 6-4.6 6.4-6.7-.8-10.1-6.2" fill="#e52e2e"/><path d="M13.5 17.3s6.3-5.4 3.4-15.8l-.3-.5s-3.4.1-5 .4-6.4 1.7-6.3 6 1.9 7.2 8.3 10m7.1 2.4s.2 5.2 5.9 4.8c0 0-2.6.7-6.2-.6l.3-4.2z" fill="#962c2c"/><path d="M18.5 17.9s2.9-4.6 9.8-3.7l.4.2s.3 2.2.2 3.3-.5 4.3-3.3 4.6-4.8-.6-7.2-4.4" fill="#ef5858"/><path d="M14.6 2.5s3.4 4.2.3 10.4l-.3.3s-2.1-.4-3.1-.9c-1-.4-3.9-1.9-3.3-4.6s2.1-4.3 6.5-5.4" fill="#e52e2e"/><path d="M11.4 19.6s1.5 2.9 0 5.9l-1.5-1.4 1.5-4.5z" class="N"/><path d="M15.1 21.3s.6 6.4-2.8 7.6-9.3 1.3-8.7-5.5 8.5-4.1 8.5-4.1l3 2z" class="O"/><path d="M14.4 21.6s.5 5.6-2.5 6.6-8.1 1.2-7.6-4.8 7.5-3.6 7.5-3.6l2.6 1.8z" class="N"/><g class="O"><path d="M10.2 6.6s1.8 7.1 7.5 11.3c1.9 1.4 2.3 4 .9 5.8-.3.4-.7.8-1.2 1-2.4 1.1-5.3.1-7.9-2.3S1.9 16.5 2.7 7.1c0 0 6.7-1.8 7.5-.5z"/><path d="M17.3 22c1.3.9 2.1 2.5 1.9 4.1-.2 1.9-.9 4.2-2.8 4.8-3.4 1.1-9.3 1.3-8.7-5.4s8.5-4.1 8.5-4.1l1.1.6z"/></g><path d="M9.6 7.5s1.7 6.9 7.4 10.7c1 .7 1.6 1.9 1.4 3.2-.2 1-.6 2-1.6 2.5-2.2 1-4.8.1-7.1-2.1S2.8 16.4 3.5 7.9c0 0 5.3-1.5 6.1-.4z" class="N"/><path d="M5.1 2.5s-2.3 0-3.3 1.7-1 4.5.9 6c0 0 1.3.7 1.7.2s.8-2.1.8-2.1l-.1-5.8z" class="O"/><g class="N"><path d="M4.5 3S3 3.1 2.2 4.6s-.9 3.7.7 4.9c0 0 1.1.6 1.4.1.3-.4.6-1.7.6-1.7L4.5 3z"/><path d="M3.6 7.9s-.4 2.2 3.3 2.8 5.9 0 6.2-.9c.3-1 .1-1.5-1.6-2.8S9.6 2.6 6.7 2.2 2.9 4.9 3.6 7.9z"/><path d="M4.4 7.7s-.3 1.8 2.8 2.4 4.9 0 5.2-.8c.2-.8 0-1.2-1.3-2.3S9.4 3.3 7 2.9 3.8 5.2 4.4 7.7zm12.4 14.8c1.2.8 1.8 2.2 1.7 3.6-.2 1.7-.8 3.6-2.4 4.2-3 1-8.1 1.2-7.6-4.8s7.5-3.6 7.5-3.6l.8.6z"/><path d="M4.1 5.4s-.2 2.4 3.6 3.2 5.2.7 5.2.7-.3 1.1-1.9 1.2-7.8 1.4-6.9-5.1z" opacity=".53"/></g><path d="M1.9 4.5S1.5 8.1 4 8.2c0 0 .7.7.6 1.1s-.2.9-.7.9c-.6.1-3.7-.9-2-5.7z" opacity=".46" class="O"/><path d="M5.9 4.4c0-.3.2-.6.4-.8.3-.1.6 0 .9.2C8 4.2 8.5 5 9 5.7c.1.2.2.4.2.6-.1.3-.5.4-.8.4-1.2.1-2.6-1-2.5-2.3zm10.9 14.2c-1-.9-2.2-1.4-3.3-2.2-1.1-.9-2.1-2.1-2.6-3.4-.1-.3-.2-.5-.3-.7s-.4-.4-.6-.5c-.5-.1-1 .4-1.1.9s.2 1.1.5 1.5l2.1 3.4c1 1.4 2.3 2.8 3.9 3.3.4.1.8.2 1.2.1s.7-.4.9-.7c.1-.7-.3-1.3-.7-1.7z" class="N"/><g class="O"><path d="M6.4 10.5c0 .2-.1.4-.1.5-.3.7-.3 1.4-.2 2.1.4 2.7 1.7 5.3 3.4 7.3.2.3.5.5.5.9 0 .3-.2.7-.6.7-.1 0-.3-.1-.4-.3L6.4 19c-.8-.8-1.6-1.6-2.1-2.6-.8-1.5-.9-3.3-1-5 0-.3 0-.6.1-.9s.3-.5.6-.7c.4-.3.9-.3 1.3-.1.3.1 1.1.4 1.1.8z"/><path d="M8.3 22.2c-.3.4-.7.8-1.1 1.2-.7.9-.9 2.2-.5 3.2.4.9 1.1 1.5 1.9 2.1-.9.4-2 .4-2.8-.2-.7-.5-1.2-1.4-1.5-2.2-.2-.6-.4-1.3-.4-2 0-1.5.6-2.9 1.6-3.9.3-.3.7-.6 1.1-.6.7 0 1.1.6 1.5 1 .5.3.5.9.2 1.4z"/><path d="M9.5 25.6c.2 1.1.7 2.1 1.6 2.8.7.5 1.6.7 2.5.7s1.8-.1 2.6-.3c.4-.1.9 0 1 .3s-.1.6-.4.8c-.8.7-1.9 1-3 1.1s-2.1-.1-3.2-.2c-.5-.1-1-.2-1.4-.4-.5-.3-.7-.9-.9-1.4-.5-1.6-.4-3.3.2-4.8.1-.3.7-1.9 1.1-1.2.1.2-.2 1-.2 1.2 0 .4 0 .9.1 1.4z" opacity=".38"/></g><g class="N"><path d="M9.1 21.5s-1.9 1.9-2.6 4.8-2 .2-2 .2.2 2.1 4 2.5c0 0-.6-5.1.5-6.7l.6-.2-.5-.6z"/><path d="M16.5 19.9s.8 6.4-2.5 7.7c-3.4 1.3-9.2 1.7-8.9-5.1s8.4-4.4 8.4-4.4l3 1.8z"/></g><path d="M15.8 20.3s.7 5.6-2.2 6.7-8.1 1.5-7.8-4.5 7.4-3.9 7.4-3.9l2.6 1.7z" class="P"/><g class="N"><path d="M11.1 5.5s2 7 8 11.1c1.9 1.3 2.5 3.9 1.2 5.8-.3.4-.7.8-1.2 1-2.4 1.2-5.3.3-8-2.1S3.2 15.6 3.6 6.2c0 0 6.6-2 7.5-.7z"/><path d="M18.8 20.6c1.4.9 2.1 2.4 2 4-.1 1.9-.7 4.2-2.6 4.9-3.4 1.3-9.2 1.7-8.9-5.1s8.4-4.4 8.4-4.4l1.1.6z"/></g><path d="M10.5 6.4s2 6.9 7.8 10.4c1.1.6 1.6 1.9 1.5 3.1-.1 1-.5 2-1.5 2.5-2.2 1.1-4.8.2-7.2-1.8S4 15.5 4.4 7c0 0 5.3-1.7 6.1-.6z" class="P"/><path d="M5.8 1.5s-2.3.1-3.2 1.9-.8 4.5 1.1 5.9c0 0 1.4.7 1.7.1.3-.5.7-2.1.7-2.1l-.3-5.8z" class="N"/><path d="M5.2 2.1s-1.5.2-2.3 1.7-.7 3.7.9 4.8c0 0 1.1.5 1.4.1s.6-1.8.6-1.8l-.6-4.8z" fill="#e8ab82"/><path d="M4.5 7s-.3 2.2 3.4 2.7 5.9-.2 6.1-1.2 0-1.5-1.7-2.7-2.1-4.2-5-4.6S3.7 4 4.5 7z" class="N"/><path d="M5.3 6.8S5 8.6 8.2 9s4.9-.2 5.2-1c.2-.8 0-1.2-1.4-2.3s-1.7-3.6-4.2-3.8-3.2 2.4-2.5 4.9z" fill="#e8ab82"/><path d="M18.3 21.1c1.2.8 1.9 2.1 1.8 3.6-.1 1.7-.6 3.7-2.3 4.3-2.9 1.1-8.1 1.5-7.8-4.5s7.4-3.9 7.4-3.9l.9.5z" class="P"/><g class="N"><path d="M4.9 4.4s-.1 2.4 3.7 3.1 5.2.5 5.2.5-.3 1.1-1.9 1.2c-1.6.2-7.7 1.8-7-4.8z" opacity=".53"/><path d="M2.7 3.7s-.3 3.6 2.2 3.6c0 0 .7.6.6 1.1s-.1.9-.6.9c-.6.1-3.7-.8-2.2-5.6z" opacity=".53"/></g><path d="M6.7 3.4c0-.3.1-.6.4-.8s.6 0 .9.1c.8.4 1.3 1.2 1.8 1.9.1.2.2.4.2.6 0 .3-.4.4-.7.5-1.3.1-2.7-.9-2.6-2.3zm11.4 13.8c-1-.9-2.3-1.4-3.4-2.1-1.2-.8-2.1-2-2.7-3.3-.1-.2-.2-.5-.4-.7s-.4-.4-.7-.5c-.5-.1-1 .4-1.1 1 0 .5.2 1 .6 1.5 0 0 1.3 2.2 2.3 3.3 1.1 1.4 2.4 2.7 4 3.1.4.1.8.1 1.2 0s.7-.4.8-.8c.2-.5-.2-1.1-.6-1.5z" fill="#ffe8d9"/><g class="N"><path d="M7.4 9.5c0 .2-.1.4-.1.5-.2.7-.1 1.4 0 2.1.5 2.7 1.8 5.2 3.7 7.2.2.3.5.5.6.9s-.3.8-.6.7c-.1 0-.3-.1-.4-.2l-2.7-2.6c-.8-.8-1.6-1.5-2.2-2.5-.9-1.5-1-3.3-1.2-5 0-.3-.1-.6 0-.9 0-.4.2-.6.5-.8.4-.3.9-.3 1.3-.2.3.1 1 .4 1.1.8z" opacity=".3"/><path d="M9.7 21.1c-.3.5-.7.8-1 1.2-.7.9-.9 2.2-.4 3.2.4.9 1.2 1.5 1.9 2-.9.5-2 .4-2.8-.1s-1.2-1.3-1.6-2.2c-.2-.6-.4-1.3-.5-2-.1-1.5.5-2.9 1.5-4 .4-.2.8-.5 1.2-.5.7 0 1.1.6 1.6.9.4.4.4 1 .1 1.5z" opacity=".38"/><path d="M11.1 24.4c.2 1.1.8 2.1 1.7 2.7.7.5 1.7.6 2.5.6.9 0 1.8-.2 2.6-.4.4-.1.9-.1 1 .3.1.3-.1.6-.3.8-.8.7-1.9 1.1-2.9 1.2-1.1.1-2.1 0-3.2-.1-.5-.1-1-.1-1.4-.4-.5-.3-.8-.8-1-1.4-.6-1.5-.6-3.3 0-4.8.1-.3.7-1.9 1.1-1.3.1.2-.1 1-.1 1.2-.1.7-.1 1.2 0 1.6z" opacity=".38"/></g><path d="M10.5 20.4s-1.8 2-2.4 4.9-2 .3-2 .3.3 2.1 4.1 2.4c0 0-.8-5.1.2-6.7l.6-.3-.5-.6z" class="O"/><path d="M20.1 17.6s1.8 1.9.6 7.6l-2-1.8 1.4-5.8z" class="N"/><path d="M19.4 17.9s1.8 1.9.6 7.6l-2-1.8 1.4-5.8z" class="P"/><path d="M15.3 22.2c.8.1 1.7.5 2.1 1.3.5 1-.1 2.2-1 2.7s-2.2.3-3-.4c-.5-.4-.9-1-1-1.6-.5-1.8 1.5-2.1 2.9-2z" fill="#ffe8d9"/><path d="M4.7 27.6S8 30.1 9 23.9c0 0 .3.5.3.7s-1.5 3.9 1 6.1l-1.8-2 .2.5s-.7.1-.9 0c-.3 0-2.6-.3-3.1-1.6z" class="O"/></svg>