<svg xmlns="http://www.w3.org/2000/svg" viewBox="0 0 32 32"><path d="M.3 28.9s.3 2.5 2.7 2.5 25.8.6 25.8.6l1.9-29.6-1.4.1.1-2.2H5.6L.3 28.9z" fill="#4c2537"/><path d="M27.1 30.7l-24.6-.4L4.8 4.6l24.1-1.7z" fill="#c9524c"/><path d="M26.5 29.9l-23.8-.3L4.8 3.7h22.5z" fill="#ccc6ba"/><path d="M27.5 26.4l-23.8-.3L5.8.2h22.5z" fill="#ec5446"/><path d="M5 .7l.8-.6-2.3 28.3-.9 1.9C1.2 30.3.2 29.2.3 28L3.1 3.8c.1-1.2.8-2.3 1.9-3.1z" fill="#4c2537"/><path d="M4.6 27.5l-.9-1.4S1.4 26.3 1 28s2.3 1.7 2.3 1.7l1.3-2.2z" fill="#ccc6ba"/><path d="M28.7 12.3c.1-6.1-6.3-6.4-6.3-6.4s-3.7-.5-6.2 2.1c-2.3-2.7-5.7-2.6-5.7-2.6s-6.2-.6-6.9 6.4c-.7 7.1 11.3 12.5 12 12.9h0c.8-.3 13.1-5.3 13.1-12.4z" fill="#960f0f"/><path d="M27.2 12.1c0-3-1.4-4.3-2.8-4.9-1.3-.6-2.8-.6-4.2-.1-1.1.4-2.8 1.2-4.1 2.5-1.1-1.2-2.5-1.9-3.5-2.4-1.6-.7-3.5-.7-5.1.2-1.3.7-2.5 2-2.7 4.6-.6 6 10.1 10.6 10.8 11h0c.7-.4 11.6-4.9 11.6-10.9z" fill="#dd4545"/><path d="M23 12.1c0-2.2-1-3.2-2.1-3.7-.9-.4-2-.4-3-.1-.8.3-2.1.9-3 1.8-.9-.8-1.9-1.4-2.7-1.7-1.2-.5-2.6-.4-3.8.2-1 .5-1.9 1.5-2 3.4-.5 4.5 7.5 7.8 8 8.1h0c.5-.2 8.6-3.5 8.6-8z" fill="#f96464"/><path d="M21.3 17.3c-1.2.4-2.3.3-3-.1s-1.4-1.2-1.6-2.4c-.4-2.7 2.3-9.3 7.3-6.6s.1 8.1-2.7 9.1z" fill="#ffb3b3"/><path d="M22.9 11.2c-.3.1-.6.1-.8 0s-.4-.3-.4-.6c-.1-.7.6-2.3 1.8-1.7 1.3.7.1 2.1-.6 2.3z" fill="#fff"/><path d="M11.4 10.7c-.1.5-.4.9-.7 1.1s-.8.4-1.3.4c-1.2 0-3.3-1.5-1.1-3.2s3.4.6 3.1 1.7z" fill="#ffb3b3"/><path d="M2.5 27.5l23.2.5v1.3l-22.4-.4s-.8-.6-.8-1.4z" fill="#e8e0d1"/><path d="M2.5 26.5l25.7.7.1-1-26-.5z" fill="#4c2537"/><g fill="#960f0f"><path d="M15.8 22.6L4 21.2l.8-7.8c0 0 6.5 7.4 11 9.2z" opacity=".37"/><path d="M13.4.2l-.1 5.5-3.1-1.9-3.1 2L7.9 0z"/></g><path d="M13.3.2l-.1 4.4-2.5-1.5-2.4 1.6.6-4.6z" fill="#ccc6ba"/><path d="M11 .7v1.4l1.5 1-.1-2.3z" fill="#fff"/></svg>